<svg xmlns="http://www.w3.org/2000/svg" width="1420" height="760" viewBox="0 0 1420 760" role="img" aria-labelledby="title"><title id="title">メディア一覧 機能内画面遷移図</title><defs>
  <marker id="arrowHead" viewBox="0 0 10 10" refX="9" refY="5" markerWidth="7" markerHeight="7" orient="auto-start-reverse">
    <path d="M 0 0 L 10 5 L 0 10 z" fill="#73D7E8"/>
  </marker>
</defs><style>
  svg{background:#101316;font-family:'Yu Gothic','Meiryo',system-ui,sans-serif}
  .pageTitle{fill:#F8FAFC;font-size:28px;font-weight:800}
  .pageSub{fill:#AAB2BD;font-size:14px}
  .phone{fill:#07080A;stroke:#3D4551;stroke-width:2}
  .screenTitle{fill:#F8FAFC;font-size:12px;font-weight:800}
  .route{font-size:9px;font-weight:800}
  .miniMuted{fill:#D5DCE5;font-size:10px}
  .darkText{fill:#1D192B;font-size:11px;font-weight:800}
  .buttonText{fill:#fff;font-size:11px;font-weight:800}
  .dialog{fill:#2B2633;stroke:#B79CFF;stroke-width:1.5;stroke-dasharray:6 5}
  .popup{fill:#29323D;stroke:#D7B95F;stroke-width:1.4}
  .sheet{fill:#26302A;stroke:#4CAF50;stroke-width:1.4}
  .nodeTitle{fill:#F8FAFC;font-size:13px;font-weight:800}
  .dialogText{fill:#D5DCE5;font-size:11px}
  .arrow{fill:none;stroke:#73D7E8;stroke-width:2.1;marker-end:url(#arrowHead)}
  .arrowLabel{font-size:10px;font-weight:800}
  .txt{fill:#fff;font-size:12px}
</style><text x="46" y="52" class="pageTitle">メディア一覧 機能内画面遷移図</text><text x="46" y="80" class="pageSub">一覧、表示切替、選択モード、一括操作だけに絞った遷移</text><rect x="46" y="104" width="1328" height="1" fill="#303741"/><rect x="70" y="150" width="190" height="270" class="phone" rx="18"/><rect x="80" y="162" width="170" height="246" fill="#121212" rx="12"/><rect x="80" y="162" width="170" height="34" fill="#000000" rx="12"/><rect x="80" y="184" width="170" height="12" fill="#000000"/><text x="92" y="185" class="screenTitle">通常一覧</text><text x="242" y="185" class="route" fill="#00BCD4" text-anchor="end">home</text><text x="92" y="204" class="miniMuted">2026年6月25日</text><rect x="92" y="214" width="30" height="30" fill="#6C8BFF" rx="3" opacity="0.9"/><rect x="126" y="214" width="30" height="30" fill="#3EB489" rx="3" opacity="0.9"/><rect x="160" y="214" width="30" height="30" fill="#D77A61" rx="3" opacity="0.9"/><rect x="194" y="214" width="30" height="30" fill="#D7B95F" rx="3" opacity="0.9"/><rect x="92" y="248" width="30" height="30" fill="#8F7CFF" rx="3" opacity="0.9"/><rect x="126" y="248" width="30" height="30" fill="#E56B9F" rx="3" opacity="0.9"/><rect x="160" y="248" width="30" height="30" fill="#6EC6E8" rx="3" opacity="0.9"/><rect x="194" y="248" width="30" height="30" fill="#92A76A" rx="3" opacity="0.9"/><rect x="92" y="282" width="30" height="30" fill="#6C8BFF" rx="3" opacity="0.9"/><rect x="126" y="282" width="30" height="30" fill="#3EB489" rx="3" opacity="0.9"/><rect x="160" y="282" width="30" height="30" fill="#D77A61" rx="3" opacity="0.9"/><rect x="194" y="282" width="30" height="30" fill="#D7B95F" rx="3" opacity="0.9"/><rect x="92" y="316" width="30" height="30" fill="#8F7CFF" rx="3" opacity="0.9"/><rect x="126" y="316" width="30" height="30" fill="#E56B9F" rx="3" opacity="0.9"/><rect x="160" y="316" width="30" height="30" fill="#6EC6E8" rx="3" opacity="0.9"/><rect x="194" y="316" width="30" height="30" fill="#92A76A" rx="3" opacity="0.9"/><rect x="240" y="214" width="4" height="128" fill="#FFFFFF90" rx="2"/><rect x="330" y="150" width="190" height="270" class="phone" rx="18"/><rect x="340" y="162" width="170" height="246" fill="#121212" rx="12"/><rect x="340" y="162" width="170" height="34" fill="#000000" rx="12"/><rect x="340" y="184" width="170" height="12" fill="#000000"/><text x="352" y="185" class="screenTitle">28列表示</text><text x="502" y="185" class="route" fill="#00BCD4" text-anchor="end">home</text><text x="352" y="204" class="miniMuted">2026年</text><rect x="352" y="214" width="10" height="10" fill="#6C8BFF" rx="3" opacity="0.9"/><rect x="364" y="214" width="10" height="10" fill="#3EB489" rx="3" opacity="0.9"/><rect x="376" y="214" width="10" height="10" fill="#D77A61" rx="3" opacity="0.9"/><rect x="388" y="214" width="10" height="10" fill="#D7B95F" rx="3" opacity="0.9"/><rect x="400" y="214" width="10" height="10" fill="#8F7CFF" rx="3" opacity="0.9"/><rect x="412" y="214" width="10" height="10" fill="#E56B9F" rx="3" opacity="0.9"/><rect x="424" y="214" width="10" height="10" fill="#6EC6E8" rx="3" opacity="0.9"/><rect x="436" y="214" width="10" height="10" fill="#92A76A" rx="3" opacity="0.9"/><rect x="448" y="214" width="10" height="10" fill="#6C8BFF" rx="3" opacity="0.9"/><rect x="460" y="214" width="10" height="10" fill="#3EB489" rx="3" opacity="0.9"/><rect x="352" y="226" width="10" height="10" fill="#D77A61" rx="3" opacity="0.9"/><rect x="364" y="226" width="10" height="10" fill="#D7B95F" rx="3" opacity="0.9"/><rect x="376" y="226" width="10" height="10" fill="#8F7CFF" rx="3" opacity="0.9"/><rect x="388" y="226" width="10" height="10" fill="#E56B9F" rx="3" opacity="0.9"/><rect x="400" y="226" width="10" height="10" fill="#6EC6E8" rx="3" opacity="0.9"/><rect x="412" y="226" width="10" height="10" fill="#92A76A" rx="3" opacity="0.9"/><rect x="424" y="226" width="10" height="10" fill="#6C8BFF" rx="3" opacity="0.9"/><rect x="436" y="226" width="10" height="10" fill="#3EB489" rx="3" opacity="0.9"/><rect x="448" y="226" width="10" height="10" fill="#D77A61" rx="3" opacity="0.9"/><rect x="460" y="226" width="10" height="10" fill="#D7B95F" rx="3" opacity="0.9"/><rect x="352" y="238" width="10" height="10" fill="#8F7CFF" rx="3" opacity="0.9"/><rect x="364" y="238" width="10" height="10" fill="#E56B9F" rx="3" opacity="0.9"/><rect x="376" y="238" width="10" height="10" fill="#6EC6E8" rx="3" opacity="0.9"/><rect x="388" y="238" width="10" height="10" fill="#92A76A" rx="3" opacity="0.9"/><rect x="400" y="238" width="10" height="10" fill="#6C8BFF" rx="3" opacity="0.9"/><rect x="412" y="238" width="10" height="10" fill="#3EB489" rx="3" opacity="0.9"/><rect x="424" y="238" width="10" height="10" fill="#D77A61" rx="3" opacity="0.9"/><rect x="436" y="238" width="10" height="10" fill="#D7B95F" rx="3" opacity="0.9"/><rect x="448" y="238" width="10" height="10" fill="#8F7CFF" rx="3" opacity="0.9"/><rect x="460" y="238" width="10" height="10" fill="#E56B9F" rx="3" opacity="0.9"/><rect x="352" y="250" width="10" height="10" fill="#6EC6E8" rx="3" opacity="0.9"/><rect x="364" y="250" width="10" height="10" fill="#92A76A" rx="3" opacity="0.9"/><rect x="376" y="250" width="10" height="10" fill="#6C8BFF" rx="3" opacity="0.9"/><rect x="388" y="250" width="10" height="10" fill="#3EB489" rx="3" opacity="0.9"/><rect x="400" y="250" width="10" height="10" fill="#D77A61" rx="3" opacity="0.9"/><rect x="412" y="250" width="10" height="10" fill="#D7B95F" rx="3" opacity="0.9"/><rect x="424" y="250" width="10" height="10" fill="#8F7CFF" rx="3" opacity="0.9"/><rect x="436" y="250" width="10" height="10" fill="#E56B9F" rx="3" opacity="0.9"/><rect x="448" y="250" width="10" height="10" fill="#6EC6E8" rx="3" opacity="0.9"/><rect x="460" y="250" width="10" height="10" fill="#92A76A" rx="3" opacity="0.9"/><rect x="352" y="262" width="10" height="10" fill="#6C8BFF" rx="3" opacity="0.9"/><rect x="364" y="262" width="10" height="10" fill="#3EB489" rx="3" opacity="0.9"/><rect x="376" y="262" width="10" height="10" fill="#D77A61" rx="3" opacity="0.9"/><rect x="388" y="262" width="10" height="10" fill="#D7B95F" rx="3" opacity="0.9"/><rect x="400" y="262" width="10" height="10" fill="#8F7CFF" rx="3" opacity="0.9"/><rect x="412" y="262" width="10" height="10" fill="#E56B9F" rx="3" opacity="0.9"/><rect x="424" y="262" width="10" height="10" fill="#6EC6E8" rx="3" opacity="0.9"/><rect x="436" y="262" width="10" height="10" fill="#92A76A" rx="3" opacity="0.9"/><rect x="448" y="262" width="10" height="10" fill="#6C8BFF" rx="3" opacity="0.9"/><rect x="460" y="262" width="10" height="10" fill="#3EB489" rx="3" opacity="0.9"/><text x="352" y="292" class="miniMuted">28列 / 1年6段</text><rect x="590" y="165" width="210" height="128" class="popup" rx="10"/><text x="602" y="192" class="nodeTitle" fill="#D7B95F">Filter/Sort Popup</text><text x="604" y="220" class="dialogText">メディア種別</text><text x="604" y="243" class="dialogText">年齢制限</text><text x="604" y="266" class="dialogText">並び替え</text><rect x="70" y="470" width="190" height="270" class="phone" rx="18"/><rect x="80" y="482" width="170" height="246" fill="#121212" rx="12"/><rect x="80" y="482" width="170" height="34" fill="#000000" rx="12"/><rect x="80" y="504" width="170" height="12" fill="#000000"/><text x="92" y="505" class="screenTitle">選択モード</text><text x="242" y="505" class="route" fill="#B79CFF" text-anchor="end">selection</text><rect x="92" y="534" width="30" height="30" fill="#6C8BFF" rx="3" opacity="0.9"/><rect x="126" y="534" width="30" height="30" fill="#3EB489" rx="3" opacity="0.9"/><rect x="160" y="534" width="30" height="30" fill="#D77A61" rx="3" opacity="0.9"/><rect x="194" y="534" width="30" height="30" fill="#D7B95F" rx="3" opacity="0.9"/><rect x="92" y="568" width="30" height="30" fill="#8F7CFF" rx="3" opacity="0.9"/><rect x="126" y="568" width="30" height="30" fill="#E56B9F" rx="3" opacity="0.9"/><rect x="160" y="568" width="30" height="30" fill="#6EC6E8" rx="3" opacity="0.9"/><rect x="194" y="568" width="30" height="30" fill="#92A76A" rx="3" opacity="0.9"/><rect x="92" y="602" width="30" height="30" fill="#6C8BFF" rx="3" opacity="0.9"/><rect x="126" y="602" width="30" height="30" fill="#3EB489" rx="3" opacity="0.9"/><rect x="160" y="602" width="30" height="30" fill="#D77A61" rx="3" opacity="0.9"/><rect x="194" y="602" width="30" height="30" fill="#D7B95F" rx="3" opacity="0.9"/><rect x="80" y="672" width="170" height="38" fill="#D0BCFF" rx="4"/><text x="96" y="696" class="darkText">8件選択中</text><rect x="330" y="492" width="205" height="128" class="popup" rx="10"/><text x="342" y="519" class="nodeTitle" fill="#D7B95F">選択Menu</text><text x="344" y="547" class="dialogText">ゴミ箱へ</text><text x="344" y="570" class="dialogText">フォルダ移動</text><text x="344" y="593" class="dialogText">一括タグ編集</text><rect x="590" y="462" width="205" height="120" class="dialog" rx="14"/><text x="604" y="490" class="nodeTitle" fill="#B79CFF">一括編集Dialog</text><text x="606" y="520" class="dialogText">タグ/評価編集</text><text x="606" y="544" class="dialogText">保存して戻る</text><rect x="850" y="445" width="190" height="270" class="phone" rx="18"/><rect x="860" y="457" width="170" height="246" fill="#121212" rx="12"/><rect x="860" y="457" width="170" height="34" fill="#000000" rx="12"/><rect x="860" y="479" width="170" height="12" fill="#000000"/><text x="872" y="480" class="screenTitle">フォルダ選択</text><text x="1022" y="480" class="route" fill="#4CAF50" text-anchor="end">bulk_move</text><rect x="872" y="509" width="42" height="42" fill="#6C8BFF" rx="3" opacity="0.9"/><rect x="920" y="509" width="42" height="42" fill="#3EB489" rx="3" opacity="0.9"/><rect x="968" y="509" width="42" height="42" fill="#D77A61" rx="3" opacity="0.9"/><rect x="872" y="557" width="42" height="42" fill="#D7B95F" rx="3" opacity="0.9"/><rect x="920" y="557" width="42" height="42" fill="#8F7CFF" rx="3" opacity="0.9"/><rect x="968" y="557" width="42" height="42" fill="#E56B9F" rx="3" opacity="0.9"/><text x="872" y="621" class="miniMuted">Camera / Download</text><rect x="1110" y="445" width="190" height="270" class="phone" rx="18"/><rect x="1120" y="457" width="170" height="246" fill="#121212" rx="12"/><rect x="1120" y="457" width="170" height="34" fill="#000000" rx="12"/><rect x="1120" y="479" width="170" height="12" fill="#000000"/><text x="1132" y="480" class="screenTitle">ゴミ箱</text><text x="1282" y="480" class="route" fill="#F44336" text-anchor="end">trash</text><text x="1132" y="499" class="miniMuted">2026年6月25日</text><rect x="1132" y="509" width="30" height="30" fill="#6C8BFF" rx="3" opacity="0.9"/><rect x="1166" y="509" width="30" height="30" fill="#3EB489" rx="3" opacity="0.9"/><rect x="1200" y="509" width="30" height="30" fill="#D77A61" rx="3" opacity="0.9"/><rect x="1234" y="509" width="30" height="30" fill="#D7B95F" rx="3" opacity="0.9"/><rect x="1132" y="543" width="30" height="30" fill="#8F7CFF" rx="3" opacity="0.9"/><rect x="1166" y="543" width="30" height="30" fill="#E56B9F" rx="3" opacity="0.9"/><rect x="1200" y="543" width="30" height="30" fill="#6EC6E8" rx="3" opacity="0.9"/><rect x="1234" y="543" width="30" height="30" fill="#92A76A" rx="3" opacity="0.9"/><rect x="1132" y="577" width="30" height="30" fill="#6C8BFF" rx="3" opacity="0.9"/><rect x="1166" y="577" width="30" height="30" fill="#3EB489" rx="3" opacity="0.9"/><rect x="1200" y="577" width="30" height="30" fill="#D77A61" rx="3" opacity="0.9"/><rect x="1234" y="577" width="30" height="30" fill="#D7B95F" rx="3" opacity="0.9"/><rect x="1132" y="611" width="30" height="30" fill="#8F7CFF" rx="3" opacity="0.9"/><rect x="1166" y="611" width="30" height="30" fill="#E56B9F" rx="3" opacity="0.9"/><rect x="1200" y="611" width="30" height="30" fill="#6EC6E8" rx="3" opacity="0.9"/><rect x="1234" y="611" width="30" height="30" fill="#92A76A" rx="3" opacity="0.9"/><rect x="1280" y="509" width="4" height="128" fill="#FFFFFF90" rx="2"/><line x1="260" y1="275" x2="330" y2="275" class="arrow" stroke="#73D7E8"/><rect x="259.0" y="250.0" width="52" height="24" fill="#101316" stroke="#73D7E8" stroke-width="1" rx="12"/><text x="267.0" y="267.0" class="arrowLabel" fill="#73D7E8">列数28</text><line x1="260" y1="230" x2="590" y2="230" class="arrow" stroke="#73D7E8"/><rect x="389.0" y="205.0" width="52" height="24" fill="#101316" stroke="#73D7E8" stroke-width="1" rx="12"/><text x="397.0" y="222.0" class="arrowLabel" fill="#73D7E8">操作バー</text><line x1="165" y1="420" x2="165" y2="470" class="arrow" stroke="#73D7E8"/><rect x="129.0" y="420.0" width="43" height="24" fill="#101316" stroke="#73D7E8" stroke-width="1" rx="12"/><text x="137.0" y="437.0" class="arrowLabel" fill="#73D7E8">長押し</text><line x1="260" y1="575" x2="330" y2="555" class="arrow" stroke="#73D7E8"/><rect x="259.0" y="540.0" width="43" height="24" fill="#101316" stroke="#73D7E8" stroke-width="1" rx="12"/><text x="267.0" y="557.0" class="arrowLabel" fill="#73D7E8">その他</text><line x1="535" y1="535" x2="590" y2="520" class="arrow" stroke="#73D7E8"/><rect x="526.5" y="502.5" width="34" height="24" fill="#101316" stroke="#73D7E8" stroke-width="1" rx="12"/><text x="534.5" y="519.5" class="arrowLabel" fill="#73D7E8">編集</text><line x1="535" y1="590" x2="850" y2="565" class="arrow" stroke="#73D7E8"/><rect x="656.5" y="552.5" width="34" height="24" fill="#101316" stroke="#73D7E8" stroke-width="1" rx="12"/><text x="664.5" y="569.5" class="arrowLabel" fill="#73D7E8">移動</text><line x1="535" y1="620" x2="1110" y2="565" class="arrow" stroke="#73D7E8"/><rect x="786.5" y="567.5" width="34" height="24" fill="#101316" stroke="#73D7E8" stroke-width="1" rx="12"/><text x="794.5" y="584.5" class="arrowLabel" fill="#73D7E8">削除</text></svg>
