<svg xmlns="http://www.w3.org/2000/svg" width="920" height="980" viewBox="0 0 920 980" role="img" aria-labelledby="title"><title id="title">メディア一覧UIモック</title><defs>
  <linearGradient id="thumb0" x1="0" y1="0" x2="1" y2="1"><stop stop-color="#6C8BFF"/><stop offset="1" stop-color="#15203D"/></linearGradient>
  <linearGradient id="thumb1" x1="0" y1="0" x2="1" y2="1"><stop stop-color="#3EB489"/><stop offset="1" stop-color="#14251D"/></linearGradient>
  <linearGradient id="thumb2" x1="0" y1="0" x2="1" y2="1"><stop stop-color="#D77A61"/><stop offset="1" stop-color="#301915"/></linearGradient>
  <linearGradient id="thumb3" x1="0" y1="0" x2="1" y2="1"><stop stop-color="#D7B95F"/><stop offset="1" stop-color="#2C2412"/></linearGradient>
  <linearGradient id="thumb4" x1="0" y1="0" x2="1" y2="1"><stop stop-color="#8F7CFF"/><stop offset="1" stop-color="#21193A"/></linearGradient>
  <linearGradient id="thumb5" x1="0" y1="0" x2="1" y2="1"><stop stop-color="#E56B9F"/><stop offset="1" stop-color="#351826"/></linearGradient>
  <linearGradient id="thumb6" x1="0" y1="0" x2="1" y2="1"><stop stop-color="#6EC6E8"/><stop offset="1" stop-color="#132836"/></linearGradient>
  <linearGradient id="thumb7" x1="0" y1="0" x2="1" y2="1"><stop stop-color="#92A76A"/><stop offset="1" stop-color="#1A2214"/></linearGradient>
</defs><style>
  svg{background:#101316;font-family:'Yu Gothic','Meiryo',system-ui,sans-serif}
  .device{fill:#07080A;stroke:#2B3038;stroke-width:3}
  .screen{stroke:#171A1F;stroke-width:1}
  .camera{fill:#1E242C}
  .barTitle{font-size:20px;font-weight:500}
  .barIcon{font-size:25px;font-weight:600}
  .barIconSmall{font-size:18px;font-weight:600}
  .iconCircle{fill:#2D2D2D}
  .iconLabel{font-size:14px;font-weight:700;fill:#FFFFFF}
  .thumb{stroke:#222;stroke-width:.6}
  .badge{fill:#000000AA}
  .badgeText{fill:#fff;font-size:9px;font-weight:700}
  .fav{fill:#F44336;font-size:13px;font-weight:700}
  .txt{fill:#fff;font-size:13px}
  .headerText{fill:#fff;font-size:20px;font-weight:500}
  .small{fill:#E8EAED;font-size:12px}
  .muted{fill:#9E9E9E;font-size:12px}
  .bottomPill{fill:#000000D9}
  .navGlyph,.navText{fill:#8F8F8F}
  .navGlyphOn,.navTextOn{fill:#FFFFFF;font-weight:700}
  .navGlyph,.navGlyphOn{font-size:19px}
  .navText,.navTextOn{font-size:9px}
  .scrollThumb{fill:#FFFFFFCC}
  .scrollLabel{fill:#000000C7}
  .scrollLabelText{fill:#fff;font-size:13px}
  .marker{fill:#00BCD4}
  .markerText{fill:#001216;font-size:12px;font-weight:900}
  .docTitle{fill:#F8FAFC;font-size:25px;font-weight:800}
  .docSub{fill:#AAB2BD;font-size:13px}
  .legendTitle{fill:#F5F7FA;font-size:15px;font-weight:800}
  .legendBody{fill:#B9C2CE;font-size:12px}
  .catTitle{fill:#FFFFFF;font-size:13px}
  .catSub{fill:#A0A0A0;font-size:11px}
  .m3Card{fill:#1E1E1E}
  .cardTitle{fill:#FFFFFF;font-size:15px;font-weight:700}
  .cardSub{fill:#AAAAAA;font-size:11px}
  .buttonText{font-size:14px;font-weight:700}
  .inputBox{fill:#00000000;stroke:#80868B;stroke-width:1.2}
  .inputLabel{fill:#BDBDBD;font-size:12px}
  .inputText{fill:#FFFFFF;font-size:13px}
  .dialog{fill:#1A1A1A;stroke:#2C2C2C}
  .dialogTitle{fill:#fff;font-size:18px;font-weight:700}
  .dialogText{fill:#D5D5D5;font-size:13px}
  .brownCard{fill:#1D1A18;stroke:#4B4038}
  .brownField{fill:#28231F}
  .brownTitle{fill:#F4EFE8;font-size:18px;font-weight:700}
  .brownText{fill:#B8ADA2;font-size:13px}
  .brownAccent{fill:#D28A5E;font-size:13px;font-weight:700}
  .progressTrack{fill:#FFFFFF26}
  .progress{fill:#00BCD4}
  .line{stroke:#00BCD4;stroke-width:1.2;opacity:.65}
</style><rect x="54" y="38" width="430" height="900" class="device" rx="34"/><rect x="72" y="66" width="394" height="844" class="screen" rx="18" fill="#444444"/><circle cx="269.0" cy="56" r="4" class="camera"/><rect x="72" y="66" width="394" height="56" fill="#000000"/><text x="100" y="101" class="barIcon" fill="#FFFFFF" text-anchor="middle">≡</text><text x="130" y="102" class="barTitle" fill="#FFFFFF" text-anchor="start">すべて</text><rect x="72" y="122" width="394" height="56" fill="#444444" opacity="0.95"/><circle cx="354" cy="150" r="18" class="iconCircle"/><text x="354" y="156" class="iconLabel" fill="#FFFFFF" text-anchor="middle">F</text><circle cx="396" cy="150" r="18" class="iconCircle"/><text x="396" y="156" class="iconLabel" fill="#4CAF50" text-anchor="middle">P</text><circle cx="438" cy="150" r="18" class="iconCircle"/><text x="438" y="156" class="iconLabel" fill="#FFFFFF" text-anchor="middle">S</text><text x="88" y="192" class="headerText">2026年6月25日</text><rect x="82.0" y="208.0" width="87.5" height="87.5" class="thumb" rx="1" fill="url(#thumb0)"/><text x="92.0" y="289.5" class="fav">♥</text><rect x="170.5" y="208.0" width="87.5" height="87.5" class="thumb" rx="1" fill="url(#thumb1)"/><rect x="259.0" y="208.0" width="87.5" height="87.5" class="thumb" rx="1" fill="url(#thumb2)"/><rect x="304.5" y="277.5" width="38" height="15" class="badge" rx="2"/><text x="323.5" y="288.5" class="badgeText" text-anchor="middle">GIF</text><rect x="347.5" y="208.0" width="87.5" height="87.5" class="thumb" rx="1" fill="url(#thumb3)"/><rect x="82.0" y="296.5" width="87.5" height="87.5" class="thumb" rx="1" fill="url(#thumb4)"/><rect x="170.5" y="296.5" width="87.5" height="87.5" class="thumb" rx="1" fill="url(#thumb5)"/><rect x="216.0" y="366.0" width="38" height="15" class="badge" rx="2"/><text x="235.0" y="377.0" class="badgeText" text-anchor="middle">0:12</text><rect x="259.0" y="296.5" width="87.5" height="87.5" class="thumb" rx="1" fill="url(#thumb6)"/><text x="269.0" y="378.0" class="fav">♥</text><rect x="347.5" y="296.5" width="87.5" height="87.5" class="thumb" rx="1" fill="url(#thumb7)"/><rect x="82.0" y="385.0" width="87.5" height="87.5" class="thumb" rx="1" fill="url(#thumb0)"/><rect x="170.5" y="385.0" width="87.5" height="87.5" class="thumb" rx="1" fill="url(#thumb1)"/><rect x="259.0" y="385.0" width="87.5" height="87.5" class="thumb" rx="1" fill="url(#thumb2)"/><rect x="347.5" y="385.0" width="87.5" height="87.5" class="thumb" rx="1" fill="url(#thumb3)"/><rect x="393.0" y="454.5" width="38" height="15" class="badge" rx="2"/><text x="412.0" y="465.5" class="badgeText" text-anchor="middle">0:12</text><rect x="82.0" y="473.5" width="87.5" height="87.5" class="thumb" rx="1" fill="url(#thumb4)"/><text x="92.0" y="555.0" class="fav">♥</text><rect x="170.5" y="473.5" width="87.5" height="87.5" class="thumb" rx="1" fill="url(#thumb5)"/><rect x="216.0" y="543.0" width="38" height="15" class="badge" rx="2"/><text x="235.0" y="554.0" class="badgeText" text-anchor="middle">GIF</text><rect x="259.0" y="473.5" width="87.5" height="87.5" class="thumb" rx="1" fill="url(#thumb6)"/><rect x="347.5" y="473.5" width="87.5" height="87.5" class="thumb" rx="1" fill="url(#thumb7)"/><rect x="82.0" y="562.0" width="87.5" height="87.5" class="thumb" rx="1" fill="url(#thumb0)"/><rect x="170.5" y="562.0" width="87.5" height="87.5" class="thumb" rx="1" fill="url(#thumb1)"/><rect x="259.0" y="562.0" width="87.5" height="87.5" class="thumb" rx="1" fill="url(#thumb2)"/><text x="269.0" y="643.5" class="fav">♥</text><rect x="347.5" y="562.0" width="87.5" height="87.5" class="thumb" rx="1" fill="url(#thumb3)"/><rect x="82.0" y="650.5" width="87.5" height="87.5" class="thumb" rx="1" fill="url(#thumb4)"/><rect x="170.5" y="650.5" width="87.5" height="87.5" class="thumb" rx="1" fill="url(#thumb5)"/><rect x="259.0" y="650.5" width="87.5" height="87.5" class="thumb" rx="1" fill="url(#thumb6)"/><rect x="347.5" y="650.5" width="87.5" height="87.5" class="thumb" rx="1" fill="url(#thumb7)"/><rect x="456" y="204" width="4" height="520" class="scrollThumb" rx="2"/><rect x="342" y="416" width="106" height="30" class="scrollLabel" rx="6"/><text x="395" y="436" class="scrollLabelText" text-anchor="middle">2025年11月</text><rect x="80" y="830" width="378" height="64" class="bottomPill" rx="32"/><text x="117.8" y="855" class="navGlyphOn" text-anchor="middle">H</text><text x="117.8" y="878" class="navTextOn" text-anchor="middle">すべて</text><text x="193.39999999999998" y="855" class="navGlyph" text-anchor="middle">L</text><text x="193.39999999999998" y="878" class="navText" text-anchor="middle">フォルダ</text><text x="269.0" y="855" class="navGlyph" text-anchor="middle">♥</text><text x="269.0" y="878" class="navText" text-anchor="middle">マイリスト</text><text x="344.59999999999997" y="855" class="navGlyph" text-anchor="middle">B</text><text x="344.59999999999997" y="878" class="navText" text-anchor="middle">本</text><text x="420.2" y="855" class="navGlyph" text-anchor="middle">D</text><text x="420.2" y="878" class="navText" text-anchor="middle">ゴミ箱</text><circle cx="222" cy="94" r="11" class="marker"/><text x="222" y="98" class="markerText" text-anchor="middle">1</text><circle cx="393" cy="150" r="11" class="marker"/><text x="393" y="154" class="markerText" text-anchor="middle">2</text><circle cx="164" cy="210" r="11" class="marker"/><text x="164" y="214" class="markerText" text-anchor="middle">3</text><circle cx="408" cy="432" r="11" class="marker"/><text x="408" y="436" class="markerText" text-anchor="middle">4</text><circle cx="269.0" cy="862" r="11" class="marker"/><text x="269.0" y="866" class="markerText" text-anchor="middle">5</text><text x="532" y="68" class="docTitle">メディア一覧UIモック</text><text x="532" y="96" class="docSub">実装画面に近い詳細設計モック</text><rect x="532" y="118" width="320" height="1" fill="#30343A"/><circle cx="544" cy="148" r="11" class="marker"/><text x="544" y="152" class="markerText" text-anchor="middle">1</text><text x="566" y="144" class="legendTitle">黒ヘッダー</text><text x="566" y="168" class="legendBody">実装の title は「すべて」。左にドロワーメニューを置きます。</text><circle cx="544" cy="222" r="11" class="marker"/><text x="544" y="226" class="markerText" text-anchor="middle">2</text><text x="566" y="218" class="legendTitle">操作バー</text><text x="566" y="242" class="legendBody">フィルタ、年齢制限、並び替えアイコンだけを右寄せ表示します。</text><circle cx="544" cy="296" r="11" class="marker"/><text x="544" y="300" class="markerText" text-anchor="middle">3</text><text x="566" y="292" class="legendTitle">LazyVerticalGrid</text><text x="566" y="316" class="legendBody">日付ヘッダーと正方形サムネイルを同じグリッドに表示します。</text><circle cx="544" cy="370" r="11" class="marker"/><text x="544" y="374" class="markerText" text-anchor="middle">4</text><text x="566" y="366" class="legendTitle">スクロールバー</text><text x="566" y="390" class="legendBody">ドラッグ中のみ年月日ラベルをバー左に表示します。</text><circle cx="544" cy="444" r="11" class="marker"/><text x="544" y="448" class="markerText" text-anchor="middle">5</text><text x="566" y="440" class="legendTitle">ボトムナビ</text><text x="566" y="464" class="legendBody">実装文言は「すべて / フォルダ / マイリスト / 本 / ゴミ箱」です。</text></svg>
