<svg xmlns="http://www.w3.org/2000/svg" width="920" height="980" viewBox="0 0 920 980" role="img" aria-labelledby="title"><title id="title">メディアビューアUIモック</title><defs>
  <linearGradient id="thumb0" x1="0" y1="0" x2="1" y2="1"><stop stop-color="#6C8BFF"/><stop offset="1" stop-color="#15203D"/></linearGradient>
  <linearGradient id="thumb1" x1="0" y1="0" x2="1" y2="1"><stop stop-color="#3EB489"/><stop offset="1" stop-color="#14251D"/></linearGradient>
  <linearGradient id="thumb2" x1="0" y1="0" x2="1" y2="1"><stop stop-color="#D77A61"/><stop offset="1" stop-color="#301915"/></linearGradient>
  <linearGradient id="thumb3" x1="0" y1="0" x2="1" y2="1"><stop stop-color="#D7B95F"/><stop offset="1" stop-color="#2C2412"/></linearGradient>
  <linearGradient id="thumb4" x1="0" y1="0" x2="1" y2="1"><stop stop-color="#8F7CFF"/><stop offset="1" stop-color="#21193A"/></linearGradient>
  <linearGradient id="thumb5" x1="0" y1="0" x2="1" y2="1"><stop stop-color="#E56B9F"/><stop offset="1" stop-color="#351826"/></linearGradient>
  <linearGradient id="thumb6" x1="0" y1="0" x2="1" y2="1"><stop stop-color="#6EC6E8"/><stop offset="1" stop-color="#132836"/></linearGradient>
  <linearGradient id="thumb7" x1="0" y1="0" x2="1" y2="1"><stop stop-color="#92A76A"/><stop offset="1" stop-color="#1A2214"/></linearGradient>
</defs><style>
  svg{background:#101316;font-family:'Yu Gothic','Meiryo',system-ui,sans-serif}
  .device{fill:#07080A;stroke:#2B3038;stroke-width:3}
  .screen{stroke:#171A1F;stroke-width:1}
  .cameraDot{fill:#1E242C}
  .barTitle{font-size:20px;font-weight:500}
  .iconCircle{fill:#2D2D2D}
  .thumb{stroke:#222;stroke-width:.6}
  .badge{fill:#000000AA}
  .badgeText{fill:#fff;font-size:9px;font-weight:700}
  .txt{fill:#fff;font-size:13px}
  .headerText{fill:#fff;font-size:20px;font-weight:500}
  .small{fill:#E8EAED;font-size:12px}
  .muted{fill:#9E9E9E;font-size:12px}
  .bottomPill{fill:#000000D9}
  .navText{fill:#8F8F8F;font-size:9px}
  .navTextOn{fill:#FFFFFF;font-size:9px;font-weight:700}
  .scrollThumb{fill:#FFFFFFCC}
  .scrollTrack{fill:#FFFFFF40}
  .scrollLabel{fill:#000000C7}
  .scrollLabelText{fill:#fff;font-size:13px}
  .marker{fill:#00BCD4}
  .markerText{fill:#001216;font-size:12px;font-weight:900}
  .docTitle{fill:#F8FAFC;font-size:25px;font-weight:800}
  .docSub{fill:#AAB2BD;font-size:13px}
  .legendTitle{fill:#F5F7FA;font-size:15px;font-weight:800}
  .legendBody{fill:#B9C2CE;font-size:12px}
  .catTitle{fill:#FFFFFF;font-size:13px}
  .catSub{fill:#A0A0A0;font-size:11px}
  .m3Card{fill:#1E1E1E}
  .cardTitle{fill:#FFFFFF;font-size:15px;font-weight:700}
  .cardSub{fill:#AAAAAA;font-size:11px}
  .buttonText{font-size:14px;font-weight:700}
  .inputBox{fill:#00000000;stroke:#80868B;stroke-width:1.2}
  .inputLabel{fill:#BDBDBD;font-size:12px}
  .inputText{fill:#FFFFFF;font-size:13px}
  .dialog{fill:#1A1A1A;stroke:#2C2C2C}
  .dialogTitle{fill:#fff;font-size:18px;font-weight:700}
  .dialogText{fill:#D5D5D5;font-size:13px}
  .brownCard{fill:#1D1A18;stroke:#4B4038}
  .brownField{fill:#28231F}
  .brownTitle{fill:#F4EFE8;font-size:18px;font-weight:700}
  .brownText{fill:#B8ADA2;font-size:13px}
  .brownAccent{fill:#D28A5E;font-size:13px;font-weight:700}
  .progressTrack{fill:#FFFFFF26}
  .progress{fill:#00BCD4}
  .line{stroke:#00BCD4;stroke-width:1.2;opacity:.65}
  .chip{fill:#2D2D2D}
  .chipText{fill:#E8EAED;font-size:11px;font-weight:700}
</style><rect x="54" y="38" width="430" height="900" class="device" rx="34"/><rect x="72" y="66" width="394" height="844" class="screen" rx="18" fill="#000000"/><circle cx="269.0" cy="56" r="4" class="cameraDot"/><rect x="72" y="66" width="394" height="844" fill="#000000"/><rect x="90" y="154" width="358" height="590" class="thumb" rx="8" fill="url(#thumb4)"/><rect x="72" y="66" width="394" height="60" fill="#00000099"/><g transform="translate(88.00 84.00) scale(1.0000)"><line x1="6" y1="6" x2="18" y2="18" stroke="#FFFFFF" stroke-width="2" stroke-linecap="round"/><line x1="18" y1="6" x2="6" y2="18" stroke="#FFFFFF" stroke-width="2" stroke-linecap="round"/></g><text x="136" y="103" class="small">IMG_20260625_001.jpg</text><g transform="translate(425.00 85.00) scale(0.9167)"><circle cx="12" cy="5" r="1.8" fill="#FFFFFF"/><circle cx="12" cy="12" r="1.8" fill="#FFFFFF"/><circle cx="12" cy="19" r="1.8" fill="#FFFFFF"/></g><g transform="translate(383.00 85.00) scale(0.9167)"><path d="M5 12a7 7 0 1 0 2-5M5 5v6h6" fill="none" stroke="#FFFFFF" stroke-width="2" stroke-linecap="round" stroke-linejoin="round"/></g><g transform="translate(341.00 85.00) scale(0.9167)"><path d="M12 20s-7-4.5-9-9c-1.5-3.5 2.5-6.5 5.5-4.5 1.6 1 2.2 2.3 3.5 3.8 1.3-1.5 1.9-2.8 3.5-3.8 3-2 7 1 5.5 4.5-2 4.5-9 9-9 9z" fill="#F44336" stroke="none"/></g><rect x="72" y="818" width="394" height="92" fill="#000000D9"/><circle cx="126" cy="864" r="18" class="iconCircle"/><g transform="translate(116.50 854.50) scale(0.7917)"><path d="M5 7h14M10 7V5h4v2M7 7l1 14h8l1-14" fill="none" stroke="#F44336" stroke-width="2" stroke-linecap="round" stroke-linejoin="round"/><line x1="10" y1="11" x2="10" y2="18" stroke="#F44336" stroke-width="2" stroke-linecap="round"/><line x1="14" y1="11" x2="14" y2="18" stroke="#F44336" stroke-width="2" stroke-linecap="round"/></g><circle cx="198" cy="864" r="18" class="iconCircle"/><g transform="translate(188.50 854.50) scale(0.7917)"><path d="M3 7h7l2 3h9v10H3V7z" fill="none" stroke="#FFFFFF" stroke-width="2" stroke-linecap="round" stroke-linejoin="round"/><path d="M16 12l1 2.2 2.3.2-1.8 1.5.6 2.2-2.1-1.2-2 1.2.6-2.2-1.8-1.5 2.3-.2L16 12z" fill="none" stroke="#FFFFFF" stroke-width="2" stroke-linecap="round" stroke-linejoin="round"/></g><circle cx="270" cy="864" r="18" class="iconCircle"/><g transform="translate(260.50 854.50) scale(0.7917)"><path d="M4 11V5h6l10 10-6 6L4 11z" fill="none" stroke="#FFFFFF" stroke-width="2" stroke-linecap="round" stroke-linejoin="round"/><circle cx="8" cy="8" r="1.5" fill="#FFFFFF"/></g><circle cx="342" cy="864" r="18" class="iconCircle"/><g transform="translate(332.50 854.50) scale(0.7917)"><rect x="5" y="4" width="14" height="16" fill="none" stroke="#FFFFFF" stroke-width="2" stroke-linecap="round" stroke-linejoin="round"/><path d="M8 17h8M9 8h6M9 12h4" fill="none" stroke="#FFFFFF" stroke-width="2" stroke-linecap="round" stroke-linejoin="round"/></g><circle cx="414" cy="864" r="18" class="iconCircle"/><g transform="translate(404.50 854.50) scale(0.7917)"><path d="M5 8V5h3M16 5h3v3M19 16v3h-3M8 19H5v-3" fill="none" stroke="#FFFFFF" stroke-width="2" stroke-linecap="round" stroke-linejoin="round"/><rect x="8" y="8" width="8" height="8" fill="none" stroke="#FFFFFF" stroke-width="2" stroke-linecap="round" stroke-linejoin="round"/></g><circle cx="269.0" cy="448" r="11" class="marker"/><text x="269.0" y="452" class="markerText" text-anchor="middle">1</text><circle cx="184" cy="96" r="11" class="marker"/><text x="184" y="100" class="markerText" text-anchor="middle">2</text><circle cx="394" cy="96" r="11" class="marker"/><text x="394" y="100" class="markerText" text-anchor="middle">3</text><circle cx="292" cy="864" r="11" class="marker"/><text x="292" y="868" class="markerText" text-anchor="middle">4</text><text x="532" y="68" class="docTitle">メディアビューアUIモック</text><text x="532" y="96" class="docSub">実装画面に近い詳細設計モック</text><rect x="532" y="118" width="320" height="1" fill="#30343A"/><circle cx="544" cy="148" r="11" class="marker"/><text x="544" y="152" class="markerText" text-anchor="middle">1</text><text x="566" y="144" class="legendTitle">全画面表示</text><text x="566" y="168" class="legendBody">画像、GIF、動画を黒背景で大きく表示します。</text><circle cx="544" cy="222" r="11" class="marker"/><text x="544" y="226" class="markerText" text-anchor="middle">2</text><text x="566" y="218" class="legendTitle">上部操作</text><text x="566" y="242" class="legendBody">閉じる、ファイル名、回転、お気に入り、その他を重ねます。</text><circle cx="544" cy="296" r="11" class="marker"/><text x="544" y="300" class="markerText" text-anchor="middle">3</text><text x="566" y="292" class="legendTitle">対象操作</text><text x="566" y="316" class="legendBody">お気に入りやその他メニューは表示メディアに対して実行します。</text><circle cx="544" cy="370" r="11" class="marker"/><text x="544" y="374" class="markerText" text-anchor="middle">4</text><text x="566" y="366" class="legendTitle">下部メニュー</text><text x="566" y="390" class="legendBody">削除、フォルダ、タグ、壁紙、フレーム保存を開きます。</text></svg>
