<svg xmlns="http://www.w3.org/2000/svg" width="1420" height="760" viewBox="0 0 1420 760" role="img" aria-labelledby="title"><title id="title">メディアビューア 機能内画面遷移図</title><defs>
  <marker id="arrowHead" viewBox="0 0 10 10" refX="9" refY="5" markerWidth="7" markerHeight="7" orient="auto-start-reverse">
    <path d="M 0 0 L 10 5 L 0 10 z" fill="#73D7E8"/>
  </marker>
</defs><style>
  svg{background:#101316;font-family:'Yu Gothic','Meiryo',system-ui,sans-serif}
  .pageTitle{fill:#F8FAFC;font-size:28px;font-weight:800}
  .pageSub{fill:#AAB2BD;font-size:14px}
  .phone{fill:#07080A;stroke:#3D4551;stroke-width:2}
  .screenTitle{fill:#F8FAFC;font-size:12px;font-weight:800}
  .route{font-size:9px;font-weight:800}
  .miniMuted{fill:#D5DCE5;font-size:10px}
  .darkText{fill:#1D192B;font-size:11px;font-weight:800}
  .buttonText{fill:#fff;font-size:11px;font-weight:800}
  .dialog{fill:#2B2633;stroke:#B79CFF;stroke-width:1.5;stroke-dasharray:6 5}
  .popup{fill:#29323D;stroke:#D7B95F;stroke-width:1.4}
  .sheet{fill:#26302A;stroke:#4CAF50;stroke-width:1.4}
  .nodeTitle{fill:#F8FAFC;font-size:13px;font-weight:800}
  .dialogText{fill:#D5DCE5;font-size:11px}
  .arrow{fill:none;stroke:#73D7E8;stroke-width:2.1;marker-end:url(#arrowHead)}
  .arrowLabel{font-size:10px;font-weight:800}
  .txt{fill:#fff;font-size:12px}
</style><text x="46" y="52" class="pageTitle">メディアビューア 機能内画面遷移図</text><text x="46" y="80" class="pageSub">ビューア内部の操作バー、メニュー、Dialog、関連Panelの遷移</text><rect x="46" y="104" width="1328" height="1" fill="#303741"/><rect x="70" y="250" width="190" height="270" class="phone" rx="18"/><rect x="80" y="262" width="170" height="246" fill="#121212" rx="12"/><rect x="80" y="262" width="170" height="34" fill="#000000" rx="12"/><rect x="80" y="284" width="170" height="12" fill="#000000"/><text x="92" y="285" class="screenTitle">一覧</text><text x="242" y="285" class="route" fill="#00BCD4" text-anchor="end">home</text><text x="92" y="304" class="miniMuted">2026年6月25日</text><rect x="92" y="314" width="30" height="30" fill="#6C8BFF" rx="3" opacity="0.9"/><rect x="126" y="314" width="30" height="30" fill="#3EB489" rx="3" opacity="0.9"/><rect x="160" y="314" width="30" height="30" fill="#D77A61" rx="3" opacity="0.9"/><rect x="194" y="314" width="30" height="30" fill="#D7B95F" rx="3" opacity="0.9"/><rect x="92" y="348" width="30" height="30" fill="#8F7CFF" rx="3" opacity="0.9"/><rect x="126" y="348" width="30" height="30" fill="#E56B9F" rx="3" opacity="0.9"/><rect x="160" y="348" width="30" height="30" fill="#6EC6E8" rx="3" opacity="0.9"/><rect x="194" y="348" width="30" height="30" fill="#92A76A" rx="3" opacity="0.9"/><rect x="92" y="382" width="30" height="30" fill="#6C8BFF" rx="3" opacity="0.9"/><rect x="126" y="382" width="30" height="30" fill="#3EB489" rx="3" opacity="0.9"/><rect x="160" y="382" width="30" height="30" fill="#D77A61" rx="3" opacity="0.9"/><rect x="194" y="382" width="30" height="30" fill="#D7B95F" rx="3" opacity="0.9"/><rect x="92" y="416" width="30" height="30" fill="#8F7CFF" rx="3" opacity="0.9"/><rect x="126" y="416" width="30" height="30" fill="#E56B9F" rx="3" opacity="0.9"/><rect x="160" y="416" width="30" height="30" fill="#6EC6E8" rx="3" opacity="0.9"/><rect x="194" y="416" width="30" height="30" fill="#92A76A" rx="3" opacity="0.9"/><rect x="240" y="314" width="4" height="128" fill="#FFFFFF90" rx="2"/><rect x="330" y="250" width="190" height="270" class="phone" rx="18"/><rect x="340" y="262" width="170" height="246" fill="#121212" rx="12"/><rect x="340" y="262" width="170" height="34" fill="#000000" rx="12"/><rect x="340" y="284" width="170" height="12" fill="#000000"/><text x="352" y="285" class="screenTitle">ビューア</text><text x="502" y="285" class="route" fill="#00BCD4" text-anchor="end">in-screen</text><rect x="352" y="314" width="146" height="138" fill="#44516B" rx="8"/><rect x="340" y="444" width="170" height="52" fill="#000000CC" rx="8"/><text x="356" y="475" class="miniMuted">削除  タグ  その他</text><rect x="590" y="120" width="190" height="270" class="phone" rx="18"/><rect x="600" y="132" width="170" height="246" fill="#121212" rx="12"/><rect x="600" y="132" width="170" height="34" fill="#000000" rx="12"/><rect x="600" y="154" width="170" height="12" fill="#000000"/><text x="612" y="155" class="screenTitle">動画操作</text><text x="762" y="155" class="route" fill="#00BCD4" text-anchor="end">viewer</text><rect x="612" y="184" width="146" height="110" fill="#44516B" rx="8"/><rect x="612" y="310" width="146" height="4" fill="#FFFFFF30" rx="2"/><rect x="612" y="310" width="65.7" height="4" fill="#00BCD4" rx="2"/><text x="647" y="344" class="miniMuted">戻る  再生  進む</text><rect x="590" y="430" width="205" height="128" class="popup" rx="10"/><text x="602" y="457" class="nodeTitle" fill="#D7B95F">その他Menu</text><text x="604" y="485" class="dialogText">ascii2d検索</text><text x="604" y="508" class="dialogText">フレーム保存</text><text x="604" y="531" class="dialogText">タグ編集</text><rect x="850" y="380" width="205" height="120" class="dialog" rx="14"/><text x="864" y="408" class="nodeTitle" fill="#B79CFF">タグ編集Dialog</text><text x="866" y="438" class="dialogText">単体メディア</text><text x="866" y="462" class="dialogText">タグ/評価更新</text><rect x="850" y="560" width="205" height="115" class="dialog" rx="14"/><text x="864" y="588" class="nodeTitle" fill="#D28A5E">ascii2d Dialog</text><text x="866" y="618" class="dialogText">Web検索</text><text x="866" y="642" class="dialogText">結果確認</text><rect x="1110" y="330" width="210" height="120" class="sheet" rx="15"/><rect x="1178" y="342" width="74" height="4" fill="#FFFFFF50" rx="2"/><text x="1124" y="368" class="nodeTitle" fill="#4CAF50">関連Panel</text><text x="1128" y="396" class="dialogText">類似候補</text><text x="1128" y="419" class="dialogText">候補タップで表示</text><line x1="260" y1="365" x2="330" y2="365" class="arrow" stroke="#73D7E8"/><rect x="259.0" y="340.0" width="43" height="24" fill="#101316" stroke="#73D7E8" stroke-width="1" rx="12"/><text x="267.0" y="357.0" class="arrowLabel" fill="#73D7E8">タップ</text><line x1="520" y1="315" x2="590" y2="245" class="arrow" stroke="#73D7E8"/><rect x="519.0" y="255.0" width="70" height="24" fill="#101316" stroke="#73D7E8" stroke-width="1" rx="12"/><text x="527.0" y="272.0" class="arrowLabel" fill="#73D7E8">動画/GIF</text><line x1="520" y1="400" x2="590" y2="490" class="arrow" stroke="#73D7E8"/><rect x="519.0" y="420.0" width="43" height="24" fill="#101316" stroke="#73D7E8" stroke-width="1" rx="12"/><text x="527.0" y="437.0" class="arrowLabel" fill="#73D7E8">その他</text><line x1="795" y1="490" x2="850" y2="440" class="arrow" stroke="#73D7E8"/><rect x="786.5" y="440.0" width="34" height="24" fill="#101316" stroke="#73D7E8" stroke-width="1" rx="12"/><text x="794.5" y="457.0" class="arrowLabel" fill="#73D7E8">タグ</text><line x1="795" y1="520" x2="850" y2="610" class="arrow" stroke="#73D7E8"/><rect x="786.5" y="540.0" width="34" height="24" fill="#101316" stroke="#73D7E8" stroke-width="1" rx="12"/><text x="794.5" y="557.0" class="arrowLabel" fill="#73D7E8">検索</text><line x1="520" y1="390" x2="1110" y2="390" class="arrow" stroke="#73D7E8"/><rect x="779.0" y="365.0" width="34" height="24" fill="#101316" stroke="#73D7E8" stroke-width="1" rx="12"/><text x="787.0" y="382.0" class="arrowLabel" fill="#73D7E8">関連</text><path d="M1110 450 Q720.0 570 330 390" class="arrow" stroke="#73D7E8"/><rect x="684.0" y="395.0" width="52" height="24" fill="#101316" stroke="#73D7E8" stroke-width="1" rx="12"/><text x="692.0" y="412.0" class="arrowLabel" fill="#73D7E8">候補表示</text></svg>
