<svg xmlns="http://www.w3.org/2000/svg" width="920" height="980" viewBox="0 0 920 980" role="img" aria-labelledby="title"><title id="title">My ListカテゴリUIモック</title><defs>
  <linearGradient id="thumb0" x1="0" y1="0" x2="1" y2="1"><stop stop-color="#6C8BFF"/><stop offset="1" stop-color="#15203D"/></linearGradient>
  <linearGradient id="thumb1" x1="0" y1="0" x2="1" y2="1"><stop stop-color="#3EB489"/><stop offset="1" stop-color="#14251D"/></linearGradient>
  <linearGradient id="thumb2" x1="0" y1="0" x2="1" y2="1"><stop stop-color="#D77A61"/><stop offset="1" stop-color="#301915"/></linearGradient>
  <linearGradient id="thumb3" x1="0" y1="0" x2="1" y2="1"><stop stop-color="#D7B95F"/><stop offset="1" stop-color="#2C2412"/></linearGradient>
  <linearGradient id="thumb4" x1="0" y1="0" x2="1" y2="1"><stop stop-color="#8F7CFF"/><stop offset="1" stop-color="#21193A"/></linearGradient>
  <linearGradient id="thumb5" x1="0" y1="0" x2="1" y2="1"><stop stop-color="#E56B9F"/><stop offset="1" stop-color="#351826"/></linearGradient>
  <linearGradient id="thumb6" x1="0" y1="0" x2="1" y2="1"><stop stop-color="#6EC6E8"/><stop offset="1" stop-color="#132836"/></linearGradient>
  <linearGradient id="thumb7" x1="0" y1="0" x2="1" y2="1"><stop stop-color="#92A76A"/><stop offset="1" stop-color="#1A2214"/></linearGradient>
</defs><style>
  svg{background:#101316;font-family:'Yu Gothic','Meiryo',system-ui,sans-serif}
  .device{fill:#07080A;stroke:#2B3038;stroke-width:3}
  .screen{stroke:#171A1F;stroke-width:1}
  .cameraDot{fill:#1E242C}
  .barTitle{font-size:20px;font-weight:500}
  .iconCircle{fill:#2D2D2D}
  .thumb{stroke:#222;stroke-width:.6}
  .badge{fill:#000000AA}
  .badgeText{fill:#fff;font-size:9px;font-weight:700}
  .txt{fill:#fff;font-size:13px}
  .headerText{fill:#fff;font-size:20px;font-weight:500}
  .small{fill:#E8EAED;font-size:12px}
  .muted{fill:#9E9E9E;font-size:12px}
  .bottomPill{fill:#000000D9}
  .navText{fill:#8F8F8F;font-size:9px}
  .navTextOn{fill:#FFFFFF;font-size:9px;font-weight:700}
  .scrollThumb{fill:#FFFFFFCC}
  .scrollTrack{fill:#FFFFFF40}
  .scrollLabel{fill:#000000C7}
  .scrollLabelText{fill:#fff;font-size:13px}
  .marker{fill:#00BCD4}
  .markerText{fill:#001216;font-size:12px;font-weight:900}
  .docTitle{fill:#F8FAFC;font-size:25px;font-weight:800}
  .docSub{fill:#AAB2BD;font-size:13px}
  .legendTitle{fill:#F5F7FA;font-size:15px;font-weight:800}
  .legendBody{fill:#B9C2CE;font-size:12px}
  .catTitle{fill:#FFFFFF;font-size:13px}
  .catSub{fill:#A0A0A0;font-size:11px}
  .m3Card{fill:#1E1E1E}
  .cardTitle{fill:#FFFFFF;font-size:15px;font-weight:700}
  .cardSub{fill:#AAAAAA;font-size:11px}
  .buttonText{font-size:14px;font-weight:700}
  .inputBox{fill:#00000000;stroke:#80868B;stroke-width:1.2}
  .inputLabel{fill:#BDBDBD;font-size:12px}
  .inputText{fill:#FFFFFF;font-size:13px}
  .dialog{fill:#1A1A1A;stroke:#2C2C2C}
  .dialogTitle{fill:#fff;font-size:18px;font-weight:700}
  .dialogText{fill:#D5D5D5;font-size:13px}
  .brownCard{fill:#1D1A18;stroke:#4B4038}
  .brownField{fill:#28231F}
  .brownTitle{fill:#F4EFE8;font-size:18px;font-weight:700}
  .brownText{fill:#B8ADA2;font-size:13px}
  .brownAccent{fill:#D28A5E;font-size:13px;font-weight:700}
  .progressTrack{fill:#FFFFFF26}
  .progress{fill:#00BCD4}
  .line{stroke:#00BCD4;stroke-width:1.2;opacity:.65}
  .chip{fill:#2D2D2D}
  .chipText{fill:#E8EAED;font-size:11px;font-weight:700}
</style><rect x="54" y="38" width="430" height="900" class="device" rx="34"/><rect x="72" y="66" width="394" height="844" class="screen" rx="18" fill="#444444"/><circle cx="269.0" cy="56" r="4" class="cameraDot"/><rect x="72" y="66" width="394" height="56" fill="#000000"/><g transform="translate(88.00 82.00) scale(1.0000)"><line x1="4" y1="6" x2="20" y2="6" stroke="#FFFFFF" stroke-width="2" stroke-linecap="round"/><line x1="4" y1="12" x2="20" y2="12" stroke="#FFFFFF" stroke-width="2" stroke-linecap="round"/><line x1="4" y1="18" x2="20" y2="18" stroke="#FFFFFF" stroke-width="2" stroke-linecap="round"/></g><text x="130" y="102" class="barTitle" fill="#FFFFFF" text-anchor="start">マイリスト</text><g transform="translate(427.00 83.00) scale(0.9167)"><path d="M12 3l1.8 4.8L19 9.5l-5.2 1.7L12 16l-1.8-4.8L5 9.5l5.2-1.7L12 3z" fill="none" stroke="#FFFFFF" stroke-width="2" stroke-linecap="round" stroke-linejoin="round"/><path d="M5 15l.8 2.2L8 18l-2.2.8L5 21l-.8-2.2L2 18l2.2-.8L5 15z" fill="none" stroke="#FFFFFF" stroke-width="2" stroke-linecap="round" stroke-linejoin="round"/></g><g transform="translate(389.00 83.00) scale(0.9167)"><line x1="12" y1="5" x2="12" y2="19" stroke="#FFFFFF" stroke-width="2" stroke-linecap="round"/><line x1="5" y1="12" x2="19" y2="12" stroke="#FFFFFF" stroke-width="2" stroke-linecap="round"/></g><rect x="72" y="122" width="394" height="56" fill="#444444" opacity="0.95"/><circle cx="354" cy="150" r="18" class="iconCircle"/><g transform="translate(344.50 140.50) scale(0.7917)"><path d="M4 5h16l-6.5 7v5.5L10.5 19v-7L4 5z" fill="none" stroke="#9E9E9E" stroke-width="2" stroke-linecap="round" stroke-linejoin="round"/></g><circle cx="396" cy="150" r="18" class="iconCircle"/><g transform="translate(386.50 140.50) scale(0.7917)"><path d="M12 3l7 3v5c0 5-3 8.5-7 10-4-1.5-7-5-7-10V6l7-3z" fill="none" stroke="#4CAF50" stroke-width="2" stroke-linecap="round" stroke-linejoin="round"/></g><circle cx="438" cy="150" r="18" class="iconCircle"/><g transform="translate(428.50 140.50) scale(0.7917)"><path d="M7 5v14M7 5l-3 3M7 5l3 3" fill="none" stroke="#9E9E9E" stroke-width="2" stroke-linecap="round" stroke-linejoin="round"/><path d="M17 19V5M17 19l-3-3M17 19l3-3" fill="none" stroke="#9E9E9E" stroke-width="2" stroke-linecap="round" stroke-linejoin="round"/></g><rect x="88.0" y="204" width="115.33" height="62" fill="transparent"/><text x="92.0" y="226" class="catTitle">Favorites</text><text x="92.0" y="244" class="catSub">428 枚</text><rect x="211.33" y="204" width="115.33" height="62" fill="transparent"/><text x="215.33" y="226" class="catTitle">Untagged</text><text x="215.33" y="244" class="catSub">186 枚</text><rect x="334.67" y="204" width="115.33" height="62" fill="transparent"/><text x="338.67" y="226" class="catTitle">landscape</text><text x="338.67" y="244" class="catSub">94 枚</text><rect x="88.0" y="284" width="115.33" height="62" fill="transparent"/><text x="92.0" y="306" class="catTitle">portrait</text><text x="92.0" y="324" class="catSub">76 枚</text><rect x="211.33" y="284" width="115.33" height="62" fill="transparent"/><text x="215.33" y="306" class="catTitle">blue_sky</text><text x="215.33" y="324" class="catSub">51 枚</text><rect x="334.67" y="284" width="115.33" height="62" fill="transparent"/><text x="338.67" y="306" class="catTitle">AI未分析</text><text x="338.67" y="324" class="catSub">324 枚</text><rect x="80" y="830" width="378" height="64" class="bottomPill" rx="32"/><g transform="translate(107.80 843.00) scale(0.8333)"><path d="M4 11l8-7 8 7v9h-5v-6H9v6H4v-9z" fill="none" stroke="#8F8F8F" stroke-width="2" stroke-linecap="round" stroke-linejoin="round"/></g><text x="117.8" y="878" class="navText" text-anchor="middle">すべて</text><g transform="translate(183.40 843.00) scale(0.8333)"><line x1="8" y1="6" x2="20" y2="6" stroke="#8F8F8F" stroke-width="2" stroke-linecap="round"/><line x1="8" y1="12" x2="20" y2="12" stroke="#8F8F8F" stroke-width="2" stroke-linecap="round"/><line x1="8" y1="18" x2="20" y2="18" stroke="#8F8F8F" stroke-width="2" stroke-linecap="round"/><circle cx="4" cy="6" r="1.2" fill="#8F8F8F"/><circle cx="4" cy="12" r="1.2" fill="#8F8F8F"/><circle cx="4" cy="18" r="1.2" fill="#8F8F8F"/></g><text x="193.4" y="878" class="navText" text-anchor="middle">フォルダ</text><g transform="translate(259.00 843.00) scale(0.8333)"><path d="M12 20s-7-4.5-9-9c-1.5-3.5 2.5-6.5 5.5-4.5 1.6 1 2.2 2.3 3.5 3.8 1.3-1.5 1.9-2.8 3.5-3.8 3-2 7 1 5.5 4.5-2 4.5-9 9-9 9z" fill="#FFFFFF" stroke="none"/></g><text x="269.0" y="878" class="navTextOn" text-anchor="middle">マイリスト</text><g transform="translate(334.60 843.00) scale(0.8333)"><path d="M5 4h6a4 4 0 0 1 4 4v12H9a4 4 0 0 0-4 4V4z" fill="none" stroke="#8F8F8F" stroke-width="2" stroke-linecap="round" stroke-linejoin="round"/><path d="M15 4h4v16h-4" fill="none" stroke="#8F8F8F" stroke-width="2" stroke-linecap="round" stroke-linejoin="round"/></g><text x="344.6" y="878" class="navText" text-anchor="middle">本</text><g transform="translate(410.20 843.00) scale(0.8333)"><path d="M5 7h14M10 7V5h4v2M7 7l1 14h8l1-14" fill="none" stroke="#8F8F8F" stroke-width="2" stroke-linecap="round" stroke-linejoin="round"/><line x1="10" y1="11" x2="10" y2="18" stroke="#8F8F8F" stroke-width="2" stroke-linecap="round"/><line x1="14" y1="11" x2="14" y2="18" stroke="#8F8F8F" stroke-width="2" stroke-linecap="round"/></g><text x="420.2" y="878" class="navText" text-anchor="middle">ゴミ箱</text><circle cx="190" cy="94" r="11" class="marker"/><text x="190" y="98" class="markerText" text-anchor="middle">1</text><circle cx="400" cy="94" r="11" class="marker"/><text x="400" y="98" class="markerText" text-anchor="middle">2</text><circle cx="140" cy="226" r="11" class="marker"/><text x="140" y="230" class="markerText" text-anchor="middle">3</text><circle cx="269.0" cy="862" r="11" class="marker"/><text x="269.0" y="866" class="markerText" text-anchor="middle">4</text><text x="532" y="68" class="docTitle">My ListカテゴリUIモック</text><text x="532" y="96" class="docSub">実装画面に近い詳細設計モック</text><rect x="532" y="118" width="320" height="1" fill="#30343A"/><circle cx="544" cy="148" r="11" class="marker"/><text x="544" y="152" class="markerText" text-anchor="middle">1</text><text x="566" y="144" class="legendTitle">CategoryScreen</text><text x="566" y="168" class="legendBody">My Listはカテゴリ一覧画面として表示します。</text><circle cx="544" cy="222" r="11" class="marker"/><text x="544" y="226" class="markerText" text-anchor="middle">2</text><text x="566" y="218" class="legendTitle">追加/AI分析</text><text x="566" y="242" class="legendBody">タグ作成とAI分析を右上のアイコンボタンで開きます。</text><circle cx="544" cy="296" r="11" class="marker"/><text x="544" y="300" class="markerText" text-anchor="middle">3</text><text x="566" y="292" class="legendTitle">3列カテゴリ</text><text x="566" y="316" class="legendBody">カテゴリ名と件数を軽いグリッドで並べます。</text><circle cx="544" cy="370" r="11" class="marker"/><text x="544" y="374" class="markerText" text-anchor="middle">4</text><text x="566" y="366" class="legendTitle">ボトムナビ</text><text x="566" y="390" class="legendBody">マイリストタブが選択状態になります。</text></svg>
