<svg xmlns="http://www.w3.org/2000/svg" width="1420" height="760" viewBox="0 0 1420 760" role="img" aria-labelledby="title"><title id="title">My List・AI分析 機能内画面遷移図</title><defs>
  <marker id="arrowHead" viewBox="0 0 10 10" refX="9" refY="5" markerWidth="7" markerHeight="7" orient="auto-start-reverse">
    <path d="M 0 0 L 10 5 L 0 10 z" fill="#73D7E8"/>
  </marker>
</defs><style>
  svg{background:#101316;font-family:'Yu Gothic','Meiryo',system-ui,sans-serif}
  .pageTitle{fill:#F8FAFC;font-size:28px;font-weight:800}
  .pageSub{fill:#AAB2BD;font-size:14px}
  .phone{fill:#07080A;stroke:#3D4551;stroke-width:2}
  .screenTitle{fill:#F8FAFC;font-size:12px;font-weight:800}
  .route{font-size:9px;font-weight:800}
  .miniMuted{fill:#D5DCE5;font-size:10px}
  .darkText{fill:#1D192B;font-size:11px;font-weight:800}
  .buttonText{fill:#fff;font-size:11px;font-weight:800}
  .dialog{fill:#2B2633;stroke:#B79CFF;stroke-width:1.5;stroke-dasharray:6 5}
  .popup{fill:#29323D;stroke:#D7B95F;stroke-width:1.4}
  .sheet{fill:#26302A;stroke:#4CAF50;stroke-width:1.4}
  .nodeTitle{fill:#F8FAFC;font-size:13px;font-weight:800}
  .dialogText{fill:#D5DCE5;font-size:11px}
  .arrow{fill:none;stroke:#73D7E8;stroke-width:2.1;marker-end:url(#arrowHead)}
  .arrowLabel{font-size:10px;font-weight:800}
  .txt{fill:#fff;font-size:12px}
</style><text x="46" y="52" class="pageTitle">My List・AI分析 機能内画面遷移図</text><text x="46" y="80" class="pageSub">カテゴリ閲覧とAI分析Dialogから進捗画面へ進む流れ</text><rect x="46" y="104" width="1328" height="1" fill="#303741"/><rect x="70" y="210" width="190" height="270" class="phone" rx="18"/><rect x="80" y="222" width="170" height="246" fill="#121212" rx="12"/><rect x="80" y="222" width="170" height="34" fill="#000000" rx="12"/><rect x="80" y="244" width="170" height="12" fill="#000000"/><text x="92" y="245" class="screenTitle">My List</text><text x="242" y="245" class="route" fill="#00BCD4" text-anchor="end">mylist</text><rect x="92" y="274" width="146" height="26" fill="#FFFFFF14" rx="6"/><text x="102" y="292" class="miniMuted">Favorites</text><rect x="92" y="312" width="146" height="26" fill="#FFFFFF14" rx="6"/><text x="102" y="330" class="miniMuted">Untagged</text><rect x="92" y="350" width="146" height="26" fill="#FFFFFF14" rx="6"/><text x="102" y="368" class="miniMuted">AI未分析</text><rect x="92" y="388" width="146" height="26" fill="#FFFFFF14" rx="6"/><text x="102" y="406" class="miniMuted">tag</text><rect x="330" y="210" width="190" height="270" class="phone" rx="18"/><rect x="340" y="222" width="170" height="246" fill="#121212" rx="12"/><rect x="340" y="222" width="170" height="34" fill="#000000" rx="12"/><rect x="340" y="244" width="170" height="12" fill="#000000"/><text x="352" y="245" class="screenTitle">カテゴリ一覧</text><text x="502" y="245" class="route" fill="#00BCD4" text-anchor="end">mylist/{tag}</text><text x="352" y="264" class="miniMuted">2026年6月25日</text><rect x="352" y="274" width="30" height="30" fill="#6C8BFF" rx="3" opacity="0.9"/><rect x="386" y="274" width="30" height="30" fill="#3EB489" rx="3" opacity="0.9"/><rect x="420" y="274" width="30" height="30" fill="#D77A61" rx="3" opacity="0.9"/><rect x="454" y="274" width="30" height="30" fill="#D7B95F" rx="3" opacity="0.9"/><rect x="352" y="308" width="30" height="30" fill="#8F7CFF" rx="3" opacity="0.9"/><rect x="386" y="308" width="30" height="30" fill="#E56B9F" rx="3" opacity="0.9"/><rect x="420" y="308" width="30" height="30" fill="#6EC6E8" rx="3" opacity="0.9"/><rect x="454" y="308" width="30" height="30" fill="#92A76A" rx="3" opacity="0.9"/><rect x="352" y="342" width="30" height="30" fill="#6C8BFF" rx="3" opacity="0.9"/><rect x="386" y="342" width="30" height="30" fill="#3EB489" rx="3" opacity="0.9"/><rect x="420" y="342" width="30" height="30" fill="#D77A61" rx="3" opacity="0.9"/><rect x="454" y="342" width="30" height="30" fill="#D7B95F" rx="3" opacity="0.9"/><rect x="352" y="376" width="30" height="30" fill="#8F7CFF" rx="3" opacity="0.9"/><rect x="386" y="376" width="30" height="30" fill="#E56B9F" rx="3" opacity="0.9"/><rect x="420" y="376" width="30" height="30" fill="#6EC6E8" rx="3" opacity="0.9"/><rect x="454" y="376" width="30" height="30" fill="#92A76A" rx="3" opacity="0.9"/><rect x="500" y="274" width="4" height="128" fill="#FFFFFF90" rx="2"/><rect x="330" y="520" width="210" height="135" class="dialog" rx="14"/><text x="344" y="548" class="nodeTitle" fill="#B79CFF">AI分析Dialog</text><text x="346" y="578" class="dialogText">分析種別</text><text x="346" y="602" class="dialogText">期間選択</text><text x="346" y="626" class="dialogText">開始</text><rect x="590" y="520" width="190" height="110" class="dialog" rx="14"/><text x="604" y="548" class="nodeTitle" fill="#D28A5E">DatePicker</text><text x="606" y="578" class="dialogText">任意期間</text><text x="606" y="602" class="dialogText">確定</text><rect x="850" y="430" width="190" height="270" class="phone" rx="18"/><rect x="860" y="442" width="170" height="246" fill="#121212" rx="12"/><rect x="860" y="442" width="170" height="34" fill="#000000" rx="12"/><rect x="860" y="464" width="170" height="12" fill="#000000"/><text x="872" y="465" class="screenTitle">分析進捗</text><text x="1022" y="465" class="route" fill="#4CAF50" text-anchor="end">analysis</text><rect x="872" y="554" width="146" height="86" fill="#000000D9" rx="9"/><text x="884" y="584" class="miniMuted">サムネイル生成</text><rect x="884" y="602" width="122" height="5" fill="#FFFFFF30" rx="2"/><rect x="884" y="602" width="54.9" height="5" fill="#00BCD4" rx="2"/><rect x="1110" y="210" width="190" height="270" class="phone" rx="18"/><rect x="1120" y="222" width="170" height="246" fill="#121212" rx="12"/><rect x="1120" y="222" width="170" height="34" fill="#000000" rx="12"/><rect x="1120" y="244" width="170" height="12" fill="#000000"/><text x="1132" y="245" class="screenTitle">ビューア</text><text x="1282" y="245" class="route" fill="#00BCD4" text-anchor="end">in-screen</text><rect x="1132" y="274" width="146" height="138" fill="#44516B" rx="8"/><rect x="1120" y="404" width="170" height="52" fill="#000000CC" rx="8"/><text x="1136" y="435" class="miniMuted">削除  タグ  その他</text><line x1="260" y1="325" x2="330" y2="325" class="arrow" stroke="#73D7E8"/><rect x="259.0" y="300.0" width="52" height="24" fill="#101316" stroke="#73D7E8" stroke-width="1" rx="12"/><text x="267.0" y="317.0" class="arrowLabel" fill="#73D7E8">カテゴリ</text><line x1="520" y1="325" x2="1110" y2="325" class="arrow" stroke="#73D7E8"/><rect x="779.0" y="300.0" width="43" height="24" fill="#101316" stroke="#73D7E8" stroke-width="1" rx="12"/><text x="787.0" y="317.0" class="arrowLabel" fill="#73D7E8">タップ</text><line x1="165" y1="480" x2="330" y2="570" class="arrow" stroke="#73D7E8"/><rect x="211.5" y="500.0" width="61" height="24" fill="#101316" stroke="#73D7E8" stroke-width="1" rx="12"/><text x="219.5" y="517.0" class="arrowLabel" fill="#73D7E8">AIボタン</text><line x1="540" y1="575" x2="590" y2="575" class="arrow" stroke="#73D7E8"/><rect x="529.0" y="550.0" width="52" height="24" fill="#101316" stroke="#73D7E8" stroke-width="1" rx="12"/><text x="537.0" y="567.0" class="arrowLabel" fill="#73D7E8">任意期間</text><line x1="540" y1="600" x2="850" y2="545" class="arrow" stroke="#73D7E8"/><rect x="659.0" y="547.5" width="34" height="24" fill="#101316" stroke="#73D7E8" stroke-width="1" rx="12"/><text x="667.0" y="564.5" class="arrowLabel" fill="#73D7E8">開始</text><path d="M950 430 Q560.0 270 170 250" class="arrow" stroke="#4CAF50"/><rect x="524.0" y="315.0" width="61" height="24" fill="#101316" stroke="#4CAF50" stroke-width="1" rx="12"/><text x="532.0" y="332.0" class="arrowLabel" fill="#4CAF50">完了/中断</text></svg>
