<svg xmlns="http://www.w3.org/2000/svg" width="920" height="980" viewBox="0 0 920 980" role="img" aria-labelledby="title"><title id="title">フォルダ選択モードUIモック</title><defs>
  <linearGradient id="thumb0" x1="0" y1="0" x2="1" y2="1"><stop stop-color="#6C8BFF"/><stop offset="1" stop-color="#15203D"/></linearGradient>
  <linearGradient id="thumb1" x1="0" y1="0" x2="1" y2="1"><stop stop-color="#3EB489"/><stop offset="1" stop-color="#14251D"/></linearGradient>
  <linearGradient id="thumb2" x1="0" y1="0" x2="1" y2="1"><stop stop-color="#D77A61"/><stop offset="1" stop-color="#301915"/></linearGradient>
  <linearGradient id="thumb3" x1="0" y1="0" x2="1" y2="1"><stop stop-color="#D7B95F"/><stop offset="1" stop-color="#2C2412"/></linearGradient>
  <linearGradient id="thumb4" x1="0" y1="0" x2="1" y2="1"><stop stop-color="#8F7CFF"/><stop offset="1" stop-color="#21193A"/></linearGradient>
  <linearGradient id="thumb5" x1="0" y1="0" x2="1" y2="1"><stop stop-color="#E56B9F"/><stop offset="1" stop-color="#351826"/></linearGradient>
  <linearGradient id="thumb6" x1="0" y1="0" x2="1" y2="1"><stop stop-color="#6EC6E8"/><stop offset="1" stop-color="#132836"/></linearGradient>
  <linearGradient id="thumb7" x1="0" y1="0" x2="1" y2="1"><stop stop-color="#92A76A"/><stop offset="1" stop-color="#1A2214"/></linearGradient>
</defs><style>
  svg{background:#101316;font-family:'Yu Gothic','Meiryo',system-ui,sans-serif}
  .device{fill:#07080A;stroke:#2B3038;stroke-width:3}
  .screen{stroke:#171A1F;stroke-width:1}
  .cameraDot{fill:#1E242C}
  .barTitle{font-size:20px;font-weight:500}
  .iconCircle{fill:#2D2D2D}
  .thumb{stroke:#222;stroke-width:.6}
  .badge{fill:#000000AA}
  .badgeText{fill:#fff;font-size:9px;font-weight:700}
  .txt{fill:#fff;font-size:13px}
  .headerText{fill:#fff;font-size:20px;font-weight:500}
  .small{fill:#E8EAED;font-size:12px}
  .muted{fill:#9E9E9E;font-size:12px}
  .bottomPill{fill:#000000D9}
  .navText{fill:#8F8F8F;font-size:9px}
  .navTextOn{fill:#FFFFFF;font-size:9px;font-weight:700}
  .scrollThumb{fill:#FFFFFFCC}
  .scrollTrack{fill:#FFFFFF40}
  .scrollLabel{fill:#000000C7}
  .scrollLabelText{fill:#fff;font-size:13px}
  .marker{fill:#00BCD4}
  .markerText{fill:#001216;font-size:12px;font-weight:900}
  .docTitle{fill:#F8FAFC;font-size:25px;font-weight:800}
  .docSub{fill:#AAB2BD;font-size:13px}
  .legendTitle{fill:#F5F7FA;font-size:15px;font-weight:800}
  .legendBody{fill:#B9C2CE;font-size:12px}
  .catTitle{fill:#FFFFFF;font-size:13px}
  .catSub{fill:#A0A0A0;font-size:11px}
  .m3Card{fill:#1E1E1E}
  .cardTitle{fill:#FFFFFF;font-size:15px;font-weight:700}
  .cardSub{fill:#AAAAAA;font-size:11px}
  .buttonText{font-size:14px;font-weight:700}
  .inputBox{fill:#00000000;stroke:#80868B;stroke-width:1.2}
  .inputLabel{fill:#BDBDBD;font-size:12px}
  .inputText{fill:#FFFFFF;font-size:13px}
  .dialog{fill:#1A1A1A;stroke:#2C2C2C}
  .dialogTitle{fill:#fff;font-size:18px;font-weight:700}
  .dialogText{fill:#D5D5D5;font-size:13px}
  .brownCard{fill:#1D1A18;stroke:#4B4038}
  .brownField{fill:#28231F}
  .brownTitle{fill:#F4EFE8;font-size:18px;font-weight:700}
  .brownText{fill:#B8ADA2;font-size:13px}
  .brownAccent{fill:#D28A5E;font-size:13px;font-weight:700}
  .progressTrack{fill:#FFFFFF26}
  .progress{fill:#00BCD4}
  .line{stroke:#00BCD4;stroke-width:1.2;opacity:.65}
  .chip{fill:#2D2D2D}
  .chipText{fill:#E8EAED;font-size:11px;font-weight:700}
</style><rect x="54" y="38" width="430" height="900" class="device" rx="34"/><rect x="72" y="66" width="394" height="844" class="screen" rx="18" fill="#444444"/><circle cx="269.0" cy="56" r="4" class="cameraDot"/><rect x="72" y="66" width="394" height="56" fill="#000000"/><g transform="translate(88.00 82.00) scale(1.0000)"><line x1="4" y1="6" x2="20" y2="6" stroke="#FFFFFF" stroke-width="2" stroke-linecap="round"/><line x1="4" y1="12" x2="20" y2="12" stroke="#FFFFFF" stroke-width="2" stroke-linecap="round"/><line x1="4" y1="18" x2="20" y2="18" stroke="#FFFFFF" stroke-width="2" stroke-linecap="round"/></g><text x="130" y="102" class="barTitle" fill="#FFFFFF" text-anchor="start">フォルダ</text><rect x="82.0" y="216.0" width="87.5" height="87.5" class="thumb" rx="1" fill="url(#thumb0)"/><g transform="translate(86.00 286.50) scale(0.5833)"><path d="M12 20s-7-4.5-9-9c-1.5-3.5 2.5-6.5 5.5-4.5 1.6 1 2.2 2.3 3.5 3.8 1.3-1.5 1.9-2.8 3.5-3.8 3-2 7 1 5.5 4.5-2 4.5-9 9-9 9z" fill="#F44336" stroke="none"/></g><rect x="170.5" y="216.0" width="87.5" height="87.5" class="thumb" rx="1" fill="url(#thumb1)"/><rect x="259.0" y="216.0" width="87.5" height="87.5" class="thumb" rx="1" fill="url(#thumb2)"/><rect x="304.5" y="285.5" width="38" height="15" class="badge" rx="2"/><text x="323.5" y="296.5" class="badgeText" text-anchor="middle">GIF</text><rect x="347.5" y="216.0" width="87.5" height="87.5" class="thumb" rx="1" fill="url(#thumb3)"/><rect x="82.0" y="304.5" width="87.5" height="87.5" class="thumb" rx="1" fill="url(#thumb4)"/><rect x="170.5" y="304.5" width="87.5" height="87.5" class="thumb" rx="1" fill="url(#thumb5)"/><rect x="216.0" y="374.0" width="38" height="15" class="badge" rx="2"/><text x="235.0" y="385.0" class="badgeText" text-anchor="middle">0:12</text><rect x="259.0" y="304.5" width="87.5" height="87.5" class="thumb" rx="1" fill="url(#thumb6)"/><g transform="translate(263.00 375.00) scale(0.5833)"><path d="M12 20s-7-4.5-9-9c-1.5-3.5 2.5-6.5 5.5-4.5 1.6 1 2.2 2.3 3.5 3.8 1.3-1.5 1.9-2.8 3.5-3.8 3-2 7 1 5.5 4.5-2 4.5-9 9-9 9z" fill="#F44336" stroke="none"/></g><rect x="347.5" y="304.5" width="87.5" height="87.5" class="thumb" rx="1" fill="url(#thumb7)"/><rect x="82.0" y="393.0" width="87.5" height="87.5" class="thumb" rx="1" fill="url(#thumb0)"/><rect x="170.5" y="393.0" width="87.5" height="87.5" class="thumb" rx="1" fill="url(#thumb1)"/><rect x="259.0" y="393.0" width="87.5" height="87.5" class="thumb" rx="1" fill="url(#thumb2)"/><rect x="347.5" y="393.0" width="87.5" height="87.5" class="thumb" rx="1" fill="url(#thumb3)"/><rect x="393.0" y="462.5" width="38" height="15" class="badge" rx="2"/><text x="412.0" y="473.5" class="badgeText" text-anchor="middle">0:12</text><rect x="82.0" y="481.5" width="87.5" height="87.5" class="thumb" rx="1" fill="url(#thumb4)"/><g transform="translate(86.00 552.00) scale(0.5833)"><path d="M12 20s-7-4.5-9-9c-1.5-3.5 2.5-6.5 5.5-4.5 1.6 1 2.2 2.3 3.5 3.8 1.3-1.5 1.9-2.8 3.5-3.8 3-2 7 1 5.5 4.5-2 4.5-9 9-9 9z" fill="#F44336" stroke="none"/></g><rect x="170.5" y="481.5" width="87.5" height="87.5" class="thumb" rx="1" fill="url(#thumb5)"/><rect x="216.0" y="551.0" width="38" height="15" class="badge" rx="2"/><text x="235.0" y="562.0" class="badgeText" text-anchor="middle">GIF</text><rect x="259.0" y="481.5" width="87.5" height="87.5" class="thumb" rx="1" fill="url(#thumb6)"/><rect x="347.5" y="481.5" width="87.5" height="87.5" class="thumb" rx="1" fill="url(#thumb7)"/><rect x="72" y="586" width="394" height="56" fill="#D0BCFF"/><g transform="translate(88.00 602.00) scale(1.0000)"><line x1="6" y1="6" x2="18" y2="18" stroke="#1D192B" stroke-width="2" stroke-linecap="round"/><line x1="18" y1="6" x2="6" y2="18" stroke="#1D192B" stroke-width="2" stroke-linecap="round"/></g><text x="134" y="620" class="cardTitle" fill="#1D192B">8 件選択中</text><g transform="translate(385.00 603.00) scale(0.9167)"><path d="M12 20s-7-4.5-9-9c-1.5-3.5 2.5-6.5 5.5-4.5 1.6 1 2.2 2.3 3.5 3.8 1.3-1.5 1.9-2.8 3.5-3.8 3-2 7 1 5.5 4.5-2 4.5-9 9-9 9z" fill="#B3261E" stroke="none"/></g><g transform="translate(427.00 603.00) scale(0.9167)"><circle cx="12" cy="5" r="1.8" fill="#1D192B"/><circle cx="12" cy="12" r="1.8" fill="#1D192B"/><circle cx="12" cy="19" r="1.8" fill="#1D192B"/></g><rect x="194" y="658" width="312" height="132" class="dialog" rx="8"/><g transform="translate(211.00 675.00) scale(0.7500)"><path d="M5 7h14M10 7V5h4v2M7 7l1 14h8l1-14" fill="none" stroke="#FFFFFF" stroke-width="2" stroke-linecap="round" stroke-linejoin="round"/><line x1="10" y1="11" x2="10" y2="18" stroke="#FFFFFF" stroke-width="2" stroke-linecap="round"/><line x1="14" y1="11" x2="14" y2="18" stroke="#FFFFFF" stroke-width="2" stroke-linecap="round"/></g><text x="248" y="688" class="dialogText">ゴミ箱へ</text><g transform="translate(211.00 711.00) scale(0.7500)"><path d="M3 7h7l2 3h9v10H3V7z" fill="none" stroke="#FFFFFF" stroke-width="2" stroke-linecap="round" stroke-linejoin="round"/></g><text x="248" y="724" class="dialogText">フォルダ移動</text><g transform="translate(211.00 747.00) scale(0.7500)"><path d="M4 17.5V21h3.5L18.5 10 15 6.5 4 17.5zM14 7l3 3" fill="none" stroke="#FFFFFF" stroke-width="2" stroke-linecap="round" stroke-linejoin="round"/></g><text x="248" y="760" class="dialogText">一括タグ・評価編集</text><circle cx="207" cy="614" r="11" class="marker"/><text x="207" y="618" class="markerText" text-anchor="middle">1</text><circle cx="438" cy="614" r="11" class="marker"/><text x="438" y="618" class="markerText" text-anchor="middle">2</text><circle cx="298" cy="723" r="11" class="marker"/><text x="298" y="727" class="markerText" text-anchor="middle">3</text><text x="532" y="68" class="docTitle">フォルダ選択モードUIモック</text><text x="532" y="96" class="docSub">実装画面に近い詳細設計モック</text><rect x="532" y="118" width="320" height="1" fill="#30343A"/><circle cx="544" cy="148" r="11" class="marker"/><text x="544" y="152" class="markerText" text-anchor="middle">1</text><text x="566" y="144" class="legendTitle">選択バー</text><text x="566" y="168" class="legendBody">フォルダ内でも同じ選択バーで件数を表示します。</text><circle cx="544" cy="222" r="11" class="marker"/><text x="544" y="226" class="markerText" text-anchor="middle">2</text><text x="566" y="218" class="legendTitle">その他メニュー</text><text x="566" y="242" class="legendBody">削除、移動、一括編集のメニューを開きます。</text><circle cx="544" cy="296" r="11" class="marker"/><text x="544" y="300" class="markerText" text-anchor="middle">3</text><text x="566" y="292" class="legendTitle">一括操作</text><text x="566" y="316" class="legendBody">選択メディアに対して整理操作をまとめて実行します。</text></svg>
