<svg xmlns="http://www.w3.org/2000/svg" width="1420" height="760" viewBox="0 0 1420 760" role="img" aria-labelledby="title"><title id="title">フォルダ・ゴミ箱・一括編集 機能内画面遷移図</title><defs>
  <marker id="arrowHead" viewBox="0 0 10 10" refX="9" refY="5" markerWidth="7" markerHeight="7" orient="auto-start-reverse">
    <path d="M 0 0 L 10 5 L 0 10 z" fill="#73D7E8"/>
  </marker>
</defs><style>
  svg{background:#101316;font-family:'Yu Gothic','Meiryo',system-ui,sans-serif}
  .pageTitle{fill:#F8FAFC;font-size:28px;font-weight:800}
  .pageSub{fill:#AAB2BD;font-size:14px}
  .phone{fill:#07080A;stroke:#3D4551;stroke-width:2}
  .screenTitle{fill:#F8FAFC;font-size:12px;font-weight:800}
  .route{font-size:9px;font-weight:800}
  .miniMuted{fill:#D5DCE5;font-size:10px}
  .darkText{fill:#1D192B;font-size:11px;font-weight:800}
  .buttonText{fill:#fff;font-size:11px;font-weight:800}
  .dialog{fill:#2B2633;stroke:#B79CFF;stroke-width:1.5;stroke-dasharray:6 5}
  .popup{fill:#29323D;stroke:#D7B95F;stroke-width:1.4}
  .sheet{fill:#26302A;stroke:#4CAF50;stroke-width:1.4}
  .nodeTitle{fill:#F8FAFC;font-size:13px;font-weight:800}
  .dialogText{fill:#D5DCE5;font-size:11px}
  .arrow{fill:none;stroke:#73D7E8;stroke-width:2.1;marker-end:url(#arrowHead)}
  .arrowLabel{font-size:10px;font-weight:800}
  .txt{fill:#fff;font-size:12px}
</style><text x="46" y="52" class="pageTitle">フォルダ・ゴミ箱・一括編集 機能内画面遷移図</text><text x="46" y="80" class="pageSub">フォルダ一覧から一括操作、ゴミ箱、復元までの流れ</text><rect x="46" y="104" width="1328" height="1" fill="#303741"/><rect x="70" y="190" width="190" height="270" class="phone" rx="18"/><rect x="80" y="202" width="170" height="246" fill="#121212" rx="12"/><rect x="80" y="202" width="170" height="34" fill="#000000" rx="12"/><rect x="80" y="224" width="170" height="12" fill="#000000"/><text x="92" y="225" class="screenTitle">フォルダ一覧</text><text x="242" y="225" class="route" fill="#00BCD4" text-anchor="end">folders</text><rect x="92" y="254" width="42" height="42" fill="#6C8BFF" rx="3" opacity="0.9"/><rect x="140" y="254" width="42" height="42" fill="#3EB489" rx="3" opacity="0.9"/><rect x="188" y="254" width="42" height="42" fill="#D77A61" rx="3" opacity="0.9"/><rect x="92" y="302" width="42" height="42" fill="#D7B95F" rx="3" opacity="0.9"/><rect x="140" y="302" width="42" height="42" fill="#8F7CFF" rx="3" opacity="0.9"/><rect x="188" y="302" width="42" height="42" fill="#E56B9F" rx="3" opacity="0.9"/><text x="92" y="366" class="miniMuted">Camera / Download</text><rect x="70" y="510" width="210" height="115" class="dialog" rx="14"/><text x="84" y="538" class="nodeTitle" fill="#B79CFF">フォルダ作成Dialog</text><text x="86" y="568" class="dialogText">フォルダ名</text><text x="86" y="592" class="dialogText">作成/キャンセル</text><rect x="330" y="210" width="205" height="128" class="popup" rx="10"/><text x="342" y="237" class="nodeTitle" fill="#D7B95F">フォルダMenu</text><text x="344" y="265" class="dialogText">サムネイル設定</text><text x="344" y="288" class="dialogText">順序/情報</text><text x="344" y="311" class="dialogText">閉じる</text><rect x="590" y="190" width="190" height="270" class="phone" rx="18"/><rect x="600" y="202" width="170" height="246" fill="#121212" rx="12"/><rect x="600" y="202" width="170" height="34" fill="#000000" rx="12"/><rect x="600" y="224" width="170" height="12" fill="#000000"/><text x="612" y="225" class="screenTitle">フォルダ内Grid</text><text x="762" y="225" class="route" fill="#00BCD4" text-anchor="end">folders</text><text x="612" y="244" class="miniMuted">2026年6月25日</text><rect x="612" y="254" width="30" height="30" fill="#6C8BFF" rx="3" opacity="0.9"/><rect x="646" y="254" width="30" height="30" fill="#3EB489" rx="3" opacity="0.9"/><rect x="680" y="254" width="30" height="30" fill="#D77A61" rx="3" opacity="0.9"/><rect x="714" y="254" width="30" height="30" fill="#D7B95F" rx="3" opacity="0.9"/><rect x="612" y="288" width="30" height="30" fill="#8F7CFF" rx="3" opacity="0.9"/><rect x="646" y="288" width="30" height="30" fill="#E56B9F" rx="3" opacity="0.9"/><rect x="680" y="288" width="30" height="30" fill="#6EC6E8" rx="3" opacity="0.9"/><rect x="714" y="288" width="30" height="30" fill="#92A76A" rx="3" opacity="0.9"/><rect x="612" y="322" width="30" height="30" fill="#6C8BFF" rx="3" opacity="0.9"/><rect x="646" y="322" width="30" height="30" fill="#3EB489" rx="3" opacity="0.9"/><rect x="680" y="322" width="30" height="30" fill="#D77A61" rx="3" opacity="0.9"/><rect x="714" y="322" width="30" height="30" fill="#D7B95F" rx="3" opacity="0.9"/><rect x="612" y="356" width="30" height="30" fill="#8F7CFF" rx="3" opacity="0.9"/><rect x="646" y="356" width="30" height="30" fill="#E56B9F" rx="3" opacity="0.9"/><rect x="680" y="356" width="30" height="30" fill="#6EC6E8" rx="3" opacity="0.9"/><rect x="714" y="356" width="30" height="30" fill="#92A76A" rx="3" opacity="0.9"/><rect x="760" y="254" width="4" height="128" fill="#FFFFFF90" rx="2"/><rect x="850" y="190" width="190" height="270" class="phone" rx="18"/><rect x="860" y="202" width="170" height="246" fill="#121212" rx="12"/><rect x="860" y="202" width="170" height="34" fill="#000000" rx="12"/><rect x="860" y="224" width="170" height="12" fill="#000000"/><text x="872" y="225" class="screenTitle">選択モード</text><text x="1022" y="225" class="route" fill="#B79CFF" text-anchor="end">selection</text><rect x="872" y="254" width="30" height="30" fill="#6C8BFF" rx="3" opacity="0.9"/><rect x="906" y="254" width="30" height="30" fill="#3EB489" rx="3" opacity="0.9"/><rect x="940" y="254" width="30" height="30" fill="#D77A61" rx="3" opacity="0.9"/><rect x="974" y="254" width="30" height="30" fill="#D7B95F" rx="3" opacity="0.9"/><rect x="872" y="288" width="30" height="30" fill="#8F7CFF" rx="3" opacity="0.9"/><rect x="906" y="288" width="30" height="30" fill="#E56B9F" rx="3" opacity="0.9"/><rect x="940" y="288" width="30" height="30" fill="#6EC6E8" rx="3" opacity="0.9"/><rect x="974" y="288" width="30" height="30" fill="#92A76A" rx="3" opacity="0.9"/><rect x="872" y="322" width="30" height="30" fill="#6C8BFF" rx="3" opacity="0.9"/><rect x="906" y="322" width="30" height="30" fill="#3EB489" rx="3" opacity="0.9"/><rect x="940" y="322" width="30" height="30" fill="#D77A61" rx="3" opacity="0.9"/><rect x="974" y="322" width="30" height="30" fill="#D7B95F" rx="3" opacity="0.9"/><rect x="860" y="392" width="170" height="38" fill="#D0BCFF" rx="4"/><text x="876" y="416" class="darkText">8件選択中</text><rect x="1110" y="195" width="205" height="128" class="popup" rx="10"/><text x="1122" y="222" class="nodeTitle" fill="#D7B95F">一括Menu</text><text x="1124" y="250" class="dialogText">編集</text><text x="1124" y="273" class="dialogText">フォルダ移動</text><text x="1124" y="296" class="dialogText">ゴミ箱へ</text><rect x="850" y="510" width="205" height="115" class="dialog" rx="14"/><text x="864" y="538" class="nodeTitle" fill="#B79CFF">一括編集Dialog</text><text x="866" y="568" class="dialogText">タグ/年齢制限</text><text x="866" y="592" class="dialogText">保存</text><rect x="1110" y="500" width="190" height="270" class="phone" rx="18"/><rect x="1120" y="512" width="170" height="246" fill="#121212" rx="12"/><rect x="1120" y="512" width="170" height="34" fill="#000000" rx="12"/><rect x="1120" y="534" width="170" height="12" fill="#000000"/><text x="1132" y="535" class="screenTitle">ゴミ箱</text><text x="1282" y="535" class="route" fill="#F44336" text-anchor="end">trash</text><text x="1132" y="554" class="miniMuted">2026年6月25日</text><rect x="1132" y="564" width="30" height="30" fill="#6C8BFF" rx="3" opacity="0.9"/><rect x="1166" y="564" width="30" height="30" fill="#3EB489" rx="3" opacity="0.9"/><rect x="1200" y="564" width="30" height="30" fill="#D77A61" rx="3" opacity="0.9"/><rect x="1234" y="564" width="30" height="30" fill="#D7B95F" rx="3" opacity="0.9"/><rect x="1132" y="598" width="30" height="30" fill="#8F7CFF" rx="3" opacity="0.9"/><rect x="1166" y="598" width="30" height="30" fill="#E56B9F" rx="3" opacity="0.9"/><rect x="1200" y="598" width="30" height="30" fill="#6EC6E8" rx="3" opacity="0.9"/><rect x="1234" y="598" width="30" height="30" fill="#92A76A" rx="3" opacity="0.9"/><rect x="1132" y="632" width="30" height="30" fill="#6C8BFF" rx="3" opacity="0.9"/><rect x="1166" y="632" width="30" height="30" fill="#3EB489" rx="3" opacity="0.9"/><rect x="1200" y="632" width="30" height="30" fill="#D77A61" rx="3" opacity="0.9"/><rect x="1234" y="632" width="30" height="30" fill="#D7B95F" rx="3" opacity="0.9"/><rect x="1132" y="666" width="30" height="30" fill="#8F7CFF" rx="3" opacity="0.9"/><rect x="1166" y="666" width="30" height="30" fill="#E56B9F" rx="3" opacity="0.9"/><rect x="1200" y="666" width="30" height="30" fill="#6EC6E8" rx="3" opacity="0.9"/><rect x="1234" y="666" width="30" height="30" fill="#92A76A" rx="3" opacity="0.9"/><rect x="1280" y="564" width="4" height="128" fill="#FFFFFF90" rx="2"/><line x1="260" y1="305" x2="590" y2="305" class="arrow" stroke="#73D7E8"/><rect x="389.0" y="280.0" width="79" height="24" fill="#101316" stroke="#73D7E8" stroke-width="1" rx="12"/><text x="397.0" y="297.0" class="arrowLabel" fill="#73D7E8">フォルダを開く</text><line x1="165" y1="460" x2="165" y2="510" class="arrow" stroke="#73D7E8"/><rect x="129.0" y="460.0" width="34" height="24" fill="#101316" stroke="#73D7E8" stroke-width="1" rx="12"/><text x="137.0" y="477.0" class="arrowLabel" fill="#73D7E8">追加</text><line x1="260" y1="260" x2="330" y2="260" class="arrow" stroke="#73D7E8"/><rect x="259.0" y="235.0" width="43" height="24" fill="#101316" stroke="#73D7E8" stroke-width="1" rx="12"/><text x="267.0" y="252.0" class="arrowLabel" fill="#73D7E8">長押し</text><line x1="780" y1="305" x2="850" y2="305" class="arrow" stroke="#73D7E8"/><rect x="779.0" y="280.0" width="61" height="24" fill="#101316" stroke="#73D7E8" stroke-width="1" rx="12"/><text x="787.0" y="297.0" class="arrowLabel" fill="#73D7E8">長押し選択</text><line x1="1040" y1="305" x2="1110" y2="260" class="arrow" stroke="#73D7E8"/><rect x="1039.0" y="257.5" width="43" height="24" fill="#101316" stroke="#73D7E8" stroke-width="1" rx="12"/><text x="1047.0" y="274.5" class="arrowLabel" fill="#73D7E8">その他</text><line x1="1210" y1="330" x2="955" y2="510" class="arrow" stroke="#73D7E8"/><rect x="1046.5" y="395.0" width="34" height="24" fill="#101316" stroke="#73D7E8" stroke-width="1" rx="12"/><text x="1054.5" y="412.0" class="arrowLabel" fill="#73D7E8">編集</text><line x1="1210" y1="330" x2="1110" y2="565" class="arrow" stroke="#73D7E8"/><rect x="1124.0" y="422.5" width="34" height="24" fill="#101316" stroke="#73D7E8" stroke-width="1" rx="12"/><text x="1132.0" y="439.5" class="arrowLabel" fill="#73D7E8">削除</text><path d="M1110 610 Q850.0 730 590 360" class="arrow" stroke="#4CAF50"/><rect x="814.0" y="460.0" width="34" height="24" fill="#101316" stroke="#4CAF50" stroke-width="1" rx="12"/><text x="822.0" y="477.0" class="arrowLabel" fill="#4CAF50">復元</text></svg>
