<svg xmlns="http://www.w3.org/2000/svg" width="920" height="980" viewBox="0 0 920 980" role="img" aria-labelledby="title"><title id="title">フォルダ・ゴミ箱・一括編集UIモック</title><defs>
  <linearGradient id="thumb0" x1="0" y1="0" x2="1" y2="1"><stop stop-color="#6C8BFF"/><stop offset="1" stop-color="#15203D"/></linearGradient>
  <linearGradient id="thumb1" x1="0" y1="0" x2="1" y2="1"><stop stop-color="#3EB489"/><stop offset="1" stop-color="#14251D"/></linearGradient>
  <linearGradient id="thumb2" x1="0" y1="0" x2="1" y2="1"><stop stop-color="#D77A61"/><stop offset="1" stop-color="#301915"/></linearGradient>
  <linearGradient id="thumb3" x1="0" y1="0" x2="1" y2="1"><stop stop-color="#D7B95F"/><stop offset="1" stop-color="#2C2412"/></linearGradient>
  <linearGradient id="thumb4" x1="0" y1="0" x2="1" y2="1"><stop stop-color="#8F7CFF"/><stop offset="1" stop-color="#21193A"/></linearGradient>
  <linearGradient id="thumb5" x1="0" y1="0" x2="1" y2="1"><stop stop-color="#E56B9F"/><stop offset="1" stop-color="#351826"/></linearGradient>
  <linearGradient id="thumb6" x1="0" y1="0" x2="1" y2="1"><stop stop-color="#6EC6E8"/><stop offset="1" stop-color="#132836"/></linearGradient>
  <linearGradient id="thumb7" x1="0" y1="0" x2="1" y2="1"><stop stop-color="#92A76A"/><stop offset="1" stop-color="#1A2214"/></linearGradient>
</defs><style>
  svg{background:#101316;font-family:'Yu Gothic','Meiryo',system-ui,sans-serif}
  .device{fill:#07080A;stroke:#2B3038;stroke-width:3}
  .screen{stroke:#171A1F;stroke-width:1}
  .camera{fill:#1E242C}
  .barTitle{font-size:20px;font-weight:500}
  .barIcon{font-size:25px;font-weight:600}
  .barIconSmall{font-size:18px;font-weight:600}
  .iconCircle{fill:#2D2D2D}
  .iconLabel{font-size:14px;font-weight:700;fill:#FFFFFF}
  .thumb{stroke:#222;stroke-width:.6}
  .badge{fill:#000000AA}
  .badgeText{fill:#fff;font-size:9px;font-weight:700}
  .fav{fill:#F44336;font-size:13px;font-weight:700}
  .txt{fill:#fff;font-size:13px}
  .headerText{fill:#fff;font-size:20px;font-weight:500}
  .small{fill:#E8EAED;font-size:12px}
  .muted{fill:#9E9E9E;font-size:12px}
  .bottomPill{fill:#000000D9}
  .navGlyph,.navText{fill:#8F8F8F}
  .navGlyphOn,.navTextOn{fill:#FFFFFF;font-weight:700}
  .navGlyph,.navGlyphOn{font-size:19px}
  .navText,.navTextOn{font-size:9px}
  .scrollThumb{fill:#FFFFFFCC}
  .scrollLabel{fill:#000000C7}
  .scrollLabelText{fill:#fff;font-size:13px}
  .marker{fill:#00BCD4}
  .markerText{fill:#001216;font-size:12px;font-weight:900}
  .docTitle{fill:#F8FAFC;font-size:25px;font-weight:800}
  .docSub{fill:#AAB2BD;font-size:13px}
  .legendTitle{fill:#F5F7FA;font-size:15px;font-weight:800}
  .legendBody{fill:#B9C2CE;font-size:12px}
  .catTitle{fill:#FFFFFF;font-size:13px}
  .catSub{fill:#A0A0A0;font-size:11px}
  .m3Card{fill:#1E1E1E}
  .cardTitle{fill:#FFFFFF;font-size:15px;font-weight:700}
  .cardSub{fill:#AAAAAA;font-size:11px}
  .buttonText{font-size:14px;font-weight:700}
  .inputBox{fill:#00000000;stroke:#80868B;stroke-width:1.2}
  .inputLabel{fill:#BDBDBD;font-size:12px}
  .inputText{fill:#FFFFFF;font-size:13px}
  .dialog{fill:#1A1A1A;stroke:#2C2C2C}
  .dialogTitle{fill:#fff;font-size:18px;font-weight:700}
  .dialogText{fill:#D5D5D5;font-size:13px}
  .brownCard{fill:#1D1A18;stroke:#4B4038}
  .brownField{fill:#28231F}
  .brownTitle{fill:#F4EFE8;font-size:18px;font-weight:700}
  .brownText{fill:#B8ADA2;font-size:13px}
  .brownAccent{fill:#D28A5E;font-size:13px;font-weight:700}
  .progressTrack{fill:#FFFFFF26}
  .progress{fill:#00BCD4}
  .line{stroke:#00BCD4;stroke-width:1.2;opacity:.65}
</style><rect x="54" y="38" width="430" height="900" class="device" rx="34"/><rect x="72" y="66" width="394" height="844" class="screen" rx="18" fill="#444444"/><circle cx="269.0" cy="56" r="4" class="camera"/><rect x="72" y="66" width="394" height="56" fill="#000000"/><text x="100" y="101" class="barIcon" fill="#FFFFFF" text-anchor="middle">≡</text><text x="130" y="102" class="barTitle" fill="#FFFFFF" text-anchor="start">フォルダ</text><text x="438" y="101" class="barIconSmall" fill="#FFFFFF" text-anchor="middle">＋</text><rect x="72" y="122" width="394" height="56" fill="#444444" opacity="0.95"/><circle cx="354" cy="150" r="18" class="iconCircle"/><text x="354" y="156" class="iconLabel" fill="#9E9E9E" text-anchor="middle">F</text><circle cx="396" cy="150" r="18" class="iconCircle"/><text x="396" y="156" class="iconLabel" fill="#4CAF50" text-anchor="middle">P</text><circle cx="438" cy="150" r="18" class="iconCircle"/><text x="438" y="156" class="iconLabel" fill="#9E9E9E" text-anchor="middle">S</text><rect x="84.0" y="204" width="84.5" height="134" fill="transparent"/><rect x="84.0" y="204" width="84.5" height="84.5" class="thumb" rx="8" fill="url(#thumb0)"/><text x="94.0" y="282.5" class="fav">♥</text><text x="88.0" y="305.5" class="catTitle">Camera</text><text x="88.0" y="323.5" class="catSub">142 枚</text><rect x="178.5" y="204" width="84.5" height="134" fill="transparent"/><rect x="178.5" y="204" width="84.5" height="84.5" class="thumb" rx="8" fill="url(#thumb1)"/><text x="182.5" y="305.5" class="catTitle">Download</text><text x="182.5" y="323.5" class="catSub">283 枚</text><rect x="273.0" y="204" width="84.5" height="134" fill="transparent"/><rect x="273.0" y="204" width="84.5" height="84.5" class="thumb" rx="8" fill="url(#thumb2)"/><text x="277.0" y="305.5" class="catTitle">X_Downloads</text><text x="277.0" y="323.5" class="catSub">71 枚</text><rect x="367.5" y="204" width="84.5" height="134" fill="transparent"/><rect x="367.5" y="204" width="84.5" height="84.5" class="thumb" rx="8" fill="url(#thumb3)"/><text x="371.5" y="305.5" class="catTitle">References</text><text x="371.5" y="323.5" class="catSub">36 枚</text><rect x="84.0" y="332" width="84.5" height="134" fill="transparent"/><rect x="84.0" y="332" width="84.5" height="84.5" class="thumb" rx="8" fill="url(#thumb4)"/><text x="88.0" y="433.5" class="catTitle">Screenshots</text><text x="88.0" y="451.5" class="catSub">204 枚</text><rect x="178.5" y="332" width="84.5" height="134" fill="transparent"/><rect x="178.5" y="332" width="84.5" height="84.5" class="thumb" rx="8" fill="url(#thumb5)"/><text x="182.5" y="433.5" class="catTitle">Wallpapers</text><text x="182.5" y="451.5" class="catSub">58 枚</text><rect x="273.0" y="332" width="84.5" height="134" fill="transparent"/><rect x="273.0" y="332" width="84.5" height="84.5" class="thumb" rx="8" fill="url(#thumb6)"/><text x="283.0" y="410.5" class="fav">♥</text><text x="277.0" y="433.5" class="catTitle">Manga</text><text x="277.0" y="451.5" class="catSub">19 枚</text><rect x="367.5" y="332" width="84.5" height="134" fill="transparent"/><rect x="367.5" y="332" width="84.5" height="84.5" class="thumb" rx="8" fill="url(#thumb7)"/><text x="371.5" y="433.5" class="catTitle">AI</text><text x="371.5" y="451.5" class="catSub">93 枚</text><rect x="72" y="476" width="394" height="56" fill="#D0BCFF"/><text x="100" y="511" class="barIcon" fill="#1D192B" text-anchor="middle">×</text><text x="134" y="510" class="cardTitle" fill="#1D192B">8 件選択中</text><text x="396" y="510" class="barIconSmall" fill="#1D192B" text-anchor="middle">♥  ⋮</text><rect x="100" y="566" width="338" height="116" class="m3Card" rx="8"/><text x="120" y="598" class="cardTitle">ゴミ箱</text><text x="120" y="622" class="cardSub">復元 / 完全に削除は TrashScreen の上部ボタンで実行</text><rect x="120" y="638" width="86" height="42" fill="#00BCD4" rx="21"/><text x="163.0" y="665" class="buttonText" fill="#001216" text-anchor="middle">復元</text><rect x="218" y="638" width="118" height="42" fill="#B3261E" rx="21"/><text x="277.0" y="665" class="buttonText" fill="#FFFFFF" text-anchor="middle">完全に削除</text><rect x="80" y="830" width="378" height="64" class="bottomPill" rx="32"/><text x="117.8" y="855" class="navGlyph" text-anchor="middle">H</text><text x="117.8" y="878" class="navText" text-anchor="middle">すべて</text><text x="193.39999999999998" y="855" class="navGlyphOn" text-anchor="middle">L</text><text x="193.39999999999998" y="878" class="navTextOn" text-anchor="middle">フォルダ</text><text x="269.0" y="855" class="navGlyph" text-anchor="middle">♥</text><text x="269.0" y="878" class="navText" text-anchor="middle">マイリスト</text><text x="344.59999999999997" y="855" class="navGlyph" text-anchor="middle">B</text><text x="344.59999999999997" y="878" class="navText" text-anchor="middle">本</text><text x="420.2" y="855" class="navGlyph" text-anchor="middle">D</text><text x="420.2" y="878" class="navText" text-anchor="middle">ゴミ箱</text><circle cx="188" cy="94" r="11" class="marker"/><text x="188" y="98" class="markerText" text-anchor="middle">1</text><circle cx="412" cy="94" r="11" class="marker"/><text x="412" y="98" class="markerText" text-anchor="middle">2</text><circle cx="136" cy="256" r="11" class="marker"/><text x="136" y="260" class="markerText" text-anchor="middle">3</text><circle cx="217" cy="504" r="11" class="marker"/><text x="217" y="508" class="markerText" text-anchor="middle">4</text><circle cx="140" cy="598" r="11" class="marker"/><text x="140" y="602" class="markerText" text-anchor="middle">5</text><text x="532" y="68" class="docTitle">フォルダ・ゴミ箱・一括編集UIモック</text><text x="532" y="96" class="docSub">実装画面に近い詳細設計モック</text><rect x="532" y="118" width="320" height="1" fill="#30343A"/><circle cx="544" cy="148" r="11" class="marker"/><text x="544" y="152" class="markerText" text-anchor="middle">1</text><text x="566" y="144" class="legendTitle">フォルダ画面</text><text x="566" y="168" class="legendBody">CategoryScreen を使い、黒ヘッダーとDarkGray操作バーを表示します。</text><circle cx="544" cy="222" r="11" class="marker"/><text x="544" y="226" class="markerText" text-anchor="middle">2</text><text x="566" y="218" class="legendTitle">作成ボタン</text><text x="566" y="242" class="legendBody">フォルダ一覧では右上にフォルダ作成 IconButton を表示します。</text><circle cx="544" cy="296" r="11" class="marker"/><text x="544" y="300" class="markerText" text-anchor="middle">3</text><text x="566" y="292" class="legendTitle">4列カテゴリ</text><text x="566" y="316" class="legendBody">フォルダは代表サムネイル、名称、件数を4列グリッドで表示します。</text><circle cx="544" cy="370" r="11" class="marker"/><text x="544" y="374" class="markerText" text-anchor="middle">4</text><text x="566" y="366" class="legendTitle">選択モード</text><text x="566" y="390" class="legendBody">長押し後は選択バーに件数、お気に入り、その他メニューを表示します。</text><circle cx="544" cy="444" r="11" class="marker"/><text x="544" y="448" class="markerText" text-anchor="middle">5</text><text x="566" y="440" class="legendTitle">TrashScreen</text><text x="566" y="464" class="legendBody">ゴミ箱は別画面で復元と完全削除ボタンを持ちます。</text></svg>
