<svg xmlns="http://www.w3.org/2000/svg" width="1420" height="760" viewBox="0 0 1420 760" role="img" aria-labelledby="title"><title id="title">X / Twitter ダウンロード 機能内画面遷移図</title><defs>
  <marker id="arrowHead" viewBox="0 0 10 10" refX="9" refY="5" markerWidth="7" markerHeight="7" orient="auto-start-reverse">
    <path d="M 0 0 L 10 5 L 0 10 z" fill="#73D7E8"/>
  </marker>
</defs><style>
  svg{background:#101316;font-family:'Yu Gothic','Meiryo',system-ui,sans-serif}
  .pageTitle{fill:#F8FAFC;font-size:28px;font-weight:800}
  .pageSub{fill:#AAB2BD;font-size:14px}
  .phone{fill:#07080A;stroke:#3D4551;stroke-width:2}
  .screenTitle{fill:#F8FAFC;font-size:12px;font-weight:800}
  .route{font-size:9px;font-weight:800}
  .miniMuted{fill:#D5DCE5;font-size:10px}
  .darkText{fill:#1D192B;font-size:11px;font-weight:800}
  .buttonText{fill:#fff;font-size:11px;font-weight:800}
  .dialog{fill:#2B2633;stroke:#B79CFF;stroke-width:1.5;stroke-dasharray:6 5}
  .popup{fill:#29323D;stroke:#D7B95F;stroke-width:1.4}
  .sheet{fill:#26302A;stroke:#4CAF50;stroke-width:1.4}
  .nodeTitle{fill:#F8FAFC;font-size:13px;font-weight:800}
  .dialogText{fill:#D5DCE5;font-size:11px}
  .arrow{fill:none;stroke:#73D7E8;stroke-width:2.1;marker-end:url(#arrowHead)}
  .arrowLabel{font-size:10px;font-weight:800}
  .txt{fill:#fff;font-size:12px}
</style><text x="46" y="52" class="pageTitle">X / Twitter ダウンロード 機能内画面遷移図</text><text x="46" y="80" class="pageSub">URL入力、品質選択Dialog、保存履歴、プレビューの流れ</text><rect x="46" y="104" width="1328" height="1" fill="#303741"/><rect x="70" y="220" width="190" height="270" class="phone" rx="18"/><rect x="80" y="232" width="170" height="246" fill="#121212" rx="12"/><rect x="80" y="232" width="170" height="34" fill="#000000" rx="12"/><rect x="80" y="254" width="170" height="12" fill="#000000"/><text x="92" y="255" class="screenTitle">外部共有/URL</text><text x="242" y="255" class="route" fill="#D28A5E" text-anchor="end">intent</text><rect x="92" y="284" width="146" height="38" fill="#00000000" stroke="#80868B" rx="5"/><text x="100" y="309" class="miniMuted">https://x.com/...</text><rect x="92" y="342" width="146" height="34" fill="#1DA1F2" rx="17"/><text x="114" y="364" class="buttonText">Show options</text><rect x="92" y="396" width="146" height="54" fill="#FFFFFF12" rx="6"/><rect x="330" y="220" width="190" height="270" class="phone" rx="18"/><rect x="340" y="232" width="170" height="246" fill="#121212" rx="12"/><rect x="340" y="232" width="170" height="34" fill="#000000" rx="12"/><rect x="340" y="254" width="170" height="12" fill="#000000"/><text x="352" y="255" class="screenTitle">Video Downloader</text><text x="502" y="255" class="route" fill="#1DA1F2" text-anchor="end">video_dl</text><rect x="352" y="284" width="146" height="38" fill="#00000000" stroke="#80868B" rx="5"/><text x="360" y="309" class="miniMuted">https://x.com/...</text><rect x="352" y="342" width="146" height="34" fill="#1DA1F2" rx="17"/><text x="374" y="364" class="buttonText">Show options</text><rect x="352" y="396" width="146" height="54" fill="#FFFFFF12" rx="6"/><rect x="590" y="230" width="220" height="135" class="dialog" rx="14"/><text x="604" y="258" class="nodeTitle" fill="#D28A5E">Download settings</text><text x="606" y="288" class="dialogText">品質選択</text><text x="606" y="312" class="dialogText">GIF保存</text><text x="606" y="336" class="dialogText">Start/HOME</text><rect x="850" y="220" width="190" height="270" class="phone" rx="18"/><rect x="860" y="232" width="170" height="246" fill="#121212" rx="12"/><rect x="860" y="232" width="170" height="34" fill="#000000" rx="12"/><rect x="860" y="254" width="170" height="12" fill="#000000"/><text x="872" y="255" class="screenTitle">保存履歴</text><text x="1022" y="255" class="route" fill="#4CAF50" text-anchor="end">history</text><rect x="872" y="284" width="146" height="38" fill="#00000000" stroke="#80868B" rx="5"/><text x="880" y="309" class="miniMuted">https://x.com/...</text><rect x="872" y="342" width="146" height="34" fill="#1DA1F2" rx="17"/><text x="894" y="364" class="buttonText">Show options</text><rect x="872" y="396" width="146" height="54" fill="#FFFFFF12" rx="6"/><rect x="1110" y="220" width="190" height="270" class="phone" rx="18"/><rect x="1120" y="232" width="170" height="246" fill="#121212" rx="12"/><rect x="1120" y="232" width="170" height="34" fill="#000000" rx="12"/><rect x="1120" y="254" width="170" height="12" fill="#000000"/><text x="1132" y="255" class="screenTitle">プレビュー</text><text x="1282" y="255" class="route" fill="#00BCD4" text-anchor="end">viewer</text><rect x="1132" y="284" width="146" height="138" fill="#44516B" rx="8"/><rect x="1120" y="414" width="170" height="52" fill="#000000CC" rx="8"/><text x="1136" y="445" class="miniMuted">削除  タグ  その他</text><rect x="590" y="520" width="190" height="270" class="phone" rx="18"/><rect x="600" y="532" width="170" height="246" fill="#121212" rx="12"/><rect x="600" y="532" width="170" height="34" fill="#000000" rx="12"/><rect x="600" y="554" width="170" height="12" fill="#000000"/><text x="612" y="555" class="screenTitle">ホーム</text><text x="762" y="555" class="route" fill="#00BCD4" text-anchor="end">home</text><text x="612" y="574" class="miniMuted">2026年6月25日</text><rect x="612" y="584" width="30" height="30" fill="#6C8BFF" rx="3" opacity="0.9"/><rect x="646" y="584" width="30" height="30" fill="#3EB489" rx="3" opacity="0.9"/><rect x="680" y="584" width="30" height="30" fill="#D77A61" rx="3" opacity="0.9"/><rect x="714" y="584" width="30" height="30" fill="#D7B95F" rx="3" opacity="0.9"/><rect x="612" y="618" width="30" height="30" fill="#8F7CFF" rx="3" opacity="0.9"/><rect x="646" y="618" width="30" height="30" fill="#E56B9F" rx="3" opacity="0.9"/><rect x="680" y="618" width="30" height="30" fill="#6EC6E8" rx="3" opacity="0.9"/><rect x="714" y="618" width="30" height="30" fill="#92A76A" rx="3" opacity="0.9"/><rect x="612" y="652" width="30" height="30" fill="#6C8BFF" rx="3" opacity="0.9"/><rect x="646" y="652" width="30" height="30" fill="#3EB489" rx="3" opacity="0.9"/><rect x="680" y="652" width="30" height="30" fill="#D77A61" rx="3" opacity="0.9"/><rect x="714" y="652" width="30" height="30" fill="#D7B95F" rx="3" opacity="0.9"/><rect x="612" y="686" width="30" height="30" fill="#8F7CFF" rx="3" opacity="0.9"/><rect x="646" y="686" width="30" height="30" fill="#E56B9F" rx="3" opacity="0.9"/><rect x="680" y="686" width="30" height="30" fill="#6EC6E8" rx="3" opacity="0.9"/><rect x="714" y="686" width="30" height="30" fill="#92A76A" rx="3" opacity="0.9"/><rect x="760" y="584" width="4" height="128" fill="#FFFFFF90" rx="2"/><line x1="260" y1="335" x2="330" y2="335" class="arrow" stroke="#73D7E8"/><rect x="259.0" y="310.0" width="61" height="24" fill="#101316" stroke="#73D7E8" stroke-width="1" rx="12"/><text x="267.0" y="327.0" class="arrowLabel" fill="#73D7E8">共有/貼付</text><line x1="520" y1="335" x2="590" y2="300" class="arrow" stroke="#73D7E8"/><rect x="519.0" y="292.5" width="52" height="24" fill="#101316" stroke="#73D7E8" stroke-width="1" rx="12"/><text x="527.0" y="309.5" class="arrowLabel" fill="#73D7E8">候補解決</text><line x1="810" y1="300" x2="850" y2="335" class="arrow" stroke="#73D7E8"/><rect x="794.0" y="292.5" width="34" height="24" fill="#101316" stroke="#73D7E8" stroke-width="1" rx="12"/><text x="802.0" y="309.5" class="arrowLabel" fill="#73D7E8">保存</text><line x1="1040" y1="335" x2="1110" y2="335" class="arrow" stroke="#73D7E8"/><rect x="1039.0" y="310.0" width="61" height="24" fill="#101316" stroke="#73D7E8" stroke-width="1" rx="12"/><text x="1047.0" y="327.0" class="arrowLabel" fill="#73D7E8">履歴タップ</text><line x1="700" y1="365" x2="700" y2="520" class="arrow" stroke="#4CAF50"/><rect x="664.0" y="417.5" width="52" height="24" fill="#101316" stroke="#4CAF50" stroke-width="1" rx="12"/><text x="672.0" y="434.5" class="arrowLabel" fill="#4CAF50">HOME</text><path d="M1210 490 Q820.0 650 430 395" class="arrow" stroke="#73D7E8"/><rect x="784.0" y="417.5" width="43" height="24" fill="#101316" stroke="#73D7E8" stroke-width="1" rx="12"/><text x="792.0" y="434.5" class="arrowLabel" fill="#73D7E8">閉じる</text></svg>
