<svg xmlns="http://www.w3.org/2000/svg" width="920" height="980" viewBox="0 0 920 980" role="img" aria-labelledby="title"><title id="title">XダウンロードUIモック</title><defs>
  <linearGradient id="thumb0" x1="0" y1="0" x2="1" y2="1"><stop stop-color="#6C8BFF"/><stop offset="1" stop-color="#15203D"/></linearGradient>
  <linearGradient id="thumb1" x1="0" y1="0" x2="1" y2="1"><stop stop-color="#3EB489"/><stop offset="1" stop-color="#14251D"/></linearGradient>
  <linearGradient id="thumb2" x1="0" y1="0" x2="1" y2="1"><stop stop-color="#D77A61"/><stop offset="1" stop-color="#301915"/></linearGradient>
  <linearGradient id="thumb3" x1="0" y1="0" x2="1" y2="1"><stop stop-color="#D7B95F"/><stop offset="1" stop-color="#2C2412"/></linearGradient>
  <linearGradient id="thumb4" x1="0" y1="0" x2="1" y2="1"><stop stop-color="#8F7CFF"/><stop offset="1" stop-color="#21193A"/></linearGradient>
  <linearGradient id="thumb5" x1="0" y1="0" x2="1" y2="1"><stop stop-color="#E56B9F"/><stop offset="1" stop-color="#351826"/></linearGradient>
  <linearGradient id="thumb6" x1="0" y1="0" x2="1" y2="1"><stop stop-color="#6EC6E8"/><stop offset="1" stop-color="#132836"/></linearGradient>
  <linearGradient id="thumb7" x1="0" y1="0" x2="1" y2="1"><stop stop-color="#92A76A"/><stop offset="1" stop-color="#1A2214"/></linearGradient>
</defs><style>
  svg{background:#101316;font-family:'Yu Gothic','Meiryo',system-ui,sans-serif}
  .device{fill:#07080A;stroke:#2B3038;stroke-width:3}
  .screen{stroke:#171A1F;stroke-width:1}
  .cameraDot{fill:#1E242C}
  .barTitle{font-size:20px;font-weight:500}
  .iconCircle{fill:#2D2D2D}
  .thumb{stroke:#222;stroke-width:.6}
  .badge{fill:#000000AA}
  .badgeText{fill:#fff;font-size:9px;font-weight:700}
  .txt{fill:#fff;font-size:13px}
  .headerText{fill:#fff;font-size:20px;font-weight:500}
  .small{fill:#E8EAED;font-size:12px}
  .muted{fill:#9E9E9E;font-size:12px}
  .bottomPill{fill:#000000D9}
  .navText{fill:#8F8F8F;font-size:9px}
  .navTextOn{fill:#FFFFFF;font-size:9px;font-weight:700}
  .scrollThumb{fill:#FFFFFFCC}
  .scrollTrack{fill:#FFFFFF40}
  .scrollLabel{fill:#000000C7}
  .scrollLabelText{fill:#fff;font-size:13px}
  .marker{fill:#00BCD4}
  .markerText{fill:#001216;font-size:12px;font-weight:900}
  .docTitle{fill:#F8FAFC;font-size:25px;font-weight:800}
  .docSub{fill:#AAB2BD;font-size:13px}
  .legendTitle{fill:#F5F7FA;font-size:15px;font-weight:800}
  .legendBody{fill:#B9C2CE;font-size:12px}
  .catTitle{fill:#FFFFFF;font-size:13px}
  .catSub{fill:#A0A0A0;font-size:11px}
  .m3Card{fill:#1E1E1E}
  .cardTitle{fill:#FFFFFF;font-size:15px;font-weight:700}
  .cardSub{fill:#AAAAAA;font-size:11px}
  .buttonText{font-size:14px;font-weight:700}
  .inputBox{fill:#00000000;stroke:#80868B;stroke-width:1.2}
  .inputLabel{fill:#BDBDBD;font-size:12px}
  .inputText{fill:#FFFFFF;font-size:13px}
  .dialog{fill:#1A1A1A;stroke:#2C2C2C}
  .dialogTitle{fill:#fff;font-size:18px;font-weight:700}
  .dialogText{fill:#D5D5D5;font-size:13px}
  .brownCard{fill:#1D1A18;stroke:#4B4038}
  .brownField{fill:#28231F}
  .brownTitle{fill:#F4EFE8;font-size:18px;font-weight:700}
  .brownText{fill:#B8ADA2;font-size:13px}
  .brownAccent{fill:#D28A5E;font-size:13px;font-weight:700}
  .progressTrack{fill:#FFFFFF26}
  .progress{fill:#00BCD4}
  .line{stroke:#00BCD4;stroke-width:1.2;opacity:.65}
  .chip{fill:#2D2D2D}
  .chipText{fill:#E8EAED;font-size:11px;font-weight:700}
</style><rect x="54" y="38" width="430" height="900" class="device" rx="34"/><rect x="72" y="66" width="394" height="844" class="screen" rx="18" fill="#000000"/><circle cx="269.0" cy="56" r="4" class="cameraDot"/><rect x="72" y="66" width="394" height="56" fill="#000000"/><g transform="translate(88.00 82.00) scale(1.0000)"><line x1="4" y1="6" x2="20" y2="6" stroke="#FFFFFF" stroke-width="2" stroke-linecap="round"/><line x1="4" y1="12" x2="20" y2="12" stroke="#FFFFFF" stroke-width="2" stroke-linecap="round"/><line x1="4" y1="18" x2="20" y2="18" stroke="#FFFFFF" stroke-width="2" stroke-linecap="round"/></g><text x="130" y="102" class="barTitle" fill="#FFFFFF" text-anchor="start">Video Downloader</text><rect x="88" y="154" width="362" height="58" class="inputBox" rx="4"/><text x="102" y="150" class="inputLabel">X (Twitter) URL</text><g transform="translate(95.00 175.00) scale(0.7500)"><path d="M10 13a5 5 0 0 0 7 0l2-2a5 5 0 0 0-7-7l-1 1" fill="none" stroke="#BDBDBD" stroke-width="2" stroke-linecap="round" stroke-linejoin="round"/><path d="M14 11a5 5 0 0 0-7 0l-2 2a5 5 0 0 0 7 7l1-1" fill="none" stroke="#BDBDBD" stroke-width="2" stroke-linecap="round" stroke-linejoin="round"/></g><text x="126" y="190" class="inputText">https://x.com/user/status/...</text><rect x="88" y="232" width="362" height="42" fill="#1DA1F2" rx="21"/><text x="269.0" y="259" class="buttonText" fill="#FFFFFF" text-anchor="middle">Show download options</text><g transform="translate(92.00 309.00) scale(0.8333)"><path d="M4 12a8 8 0 1 0 2.3-5.7L4 8" fill="none" stroke="#80868B" stroke-width="2" stroke-linecap="round" stroke-linejoin="round"/><path d="M4 4v4h4M12 8v5l3 2" fill="none" stroke="#80868B" stroke-width="2" stroke-linecap="round" stroke-linejoin="round"/></g><text x="120" y="324" class="cardTitle">Download history</text><rect x="340" y="299" width="96" height="40" fill="#00000000" stroke="#AAAAAA" stroke-width="1.1" rx="20"/><text x="388.0" y="325" class="buttonText" fill="#AAAAAA" text-anchor="middle">Clear history</text><rect x="88" y="346" width="362" height="74" class="m3Card" rx="8"/><rect x="100" y="356" width="96" height="54" class="thumb" rx="8" fill="url(#thumb0)"/><text x="212" y="374" class="cardTitle">X download #1</text><text x="212" y="394" class="cardSub">https://x.com/...</text><text x="416" y="410" class="cardSub" fill="#4CAF50" text-anchor="middle">COMPLETED</text><rect x="88" y="432" width="362" height="74" class="m3Card" rx="8"/><rect x="100" y="442" width="96" height="54" class="thumb" rx="8" fill="url(#thumb1)"/><text x="212" y="460" class="cardTitle">X download #2</text><text x="212" y="480" class="cardSub">https://x.com/...</text><text x="416" y="496" class="cardSub" fill="#4CAF50" text-anchor="middle">COMPLETED</text><rect x="88" y="518" width="362" height="74" class="m3Card" rx="8"/><rect x="100" y="528" width="96" height="54" class="thumb" rx="8" fill="url(#thumb2)"/><text x="212" y="546" class="cardTitle">X download #3</text><text x="212" y="566" class="cardSub">https://x.com/...</text><text x="416" y="582" class="cardSub" fill="#F44336" text-anchor="middle">FAILED</text><circle cx="182" cy="94" r="11" class="marker"/><text x="182" y="98" class="markerText" text-anchor="middle">1</text><circle cx="164" cy="184" r="11" class="marker"/><text x="164" y="188" class="markerText" text-anchor="middle">2</text><circle cx="269.0" cy="254" r="11" class="marker"/><text x="269.0" y="258" class="markerText" text-anchor="middle">3</text><circle cx="192" cy="382" r="11" class="marker"/><text x="192" y="386" class="markerText" text-anchor="middle">4</text><text x="532" y="68" class="docTitle">XダウンロードUIモック</text><text x="532" y="96" class="docSub">実装画面に近い詳細設計モック</text><rect x="532" y="118" width="320" height="1" fill="#30343A"/><circle cx="544" cy="148" r="11" class="marker"/><text x="544" y="152" class="markerText" text-anchor="middle">1</text><text x="566" y="144" class="legendTitle">TopAppBar</text><text x="566" y="168" class="legendBody">タイトルは Video Downloader。左にメニューを表示します。</text><circle cx="544" cy="222" r="11" class="marker"/><text x="544" y="226" class="markerText" text-anchor="middle">2</text><text x="566" y="218" class="legendTitle">URL入力欄</text><text x="566" y="242" class="legendBody">共有、VIEW、クリップボード、手入力URLを受けます。</text><circle cx="544" cy="296" r="11" class="marker"/><text x="544" y="300" class="markerText" text-anchor="middle">3</text><text x="566" y="292" class="legendTitle">候補解決</text><text x="566" y="316" class="legendBody">ボタンから保存候補と品質選択へ進みます。</text><circle cx="544" cy="370" r="11" class="marker"/><text x="544" y="374" class="markerText" text-anchor="middle">4</text><text x="566" y="366" class="legendTitle">履歴カード</text><text x="566" y="390" class="legendBody">保存済みメディア、URL、状態を一覧します。</text></svg>
