<svg xmlns="http://www.w3.org/2000/svg" width="920" height="980" viewBox="0 0 920 980" role="img" aria-labelledby="title"><title id="title">XダウンロードUIモック</title><defs>
  <linearGradient id="thumb0" x1="0" y1="0" x2="1" y2="1"><stop stop-color="#6C8BFF"/><stop offset="1" stop-color="#15203D"/></linearGradient>
  <linearGradient id="thumb1" x1="0" y1="0" x2="1" y2="1"><stop stop-color="#3EB489"/><stop offset="1" stop-color="#14251D"/></linearGradient>
  <linearGradient id="thumb2" x1="0" y1="0" x2="1" y2="1"><stop stop-color="#D77A61"/><stop offset="1" stop-color="#301915"/></linearGradient>
  <linearGradient id="thumb3" x1="0" y1="0" x2="1" y2="1"><stop stop-color="#D7B95F"/><stop offset="1" stop-color="#2C2412"/></linearGradient>
  <linearGradient id="thumb4" x1="0" y1="0" x2="1" y2="1"><stop stop-color="#8F7CFF"/><stop offset="1" stop-color="#21193A"/></linearGradient>
  <linearGradient id="thumb5" x1="0" y1="0" x2="1" y2="1"><stop stop-color="#E56B9F"/><stop offset="1" stop-color="#351826"/></linearGradient>
  <linearGradient id="thumb6" x1="0" y1="0" x2="1" y2="1"><stop stop-color="#6EC6E8"/><stop offset="1" stop-color="#132836"/></linearGradient>
  <linearGradient id="thumb7" x1="0" y1="0" x2="1" y2="1"><stop stop-color="#92A76A"/><stop offset="1" stop-color="#1A2214"/></linearGradient>
</defs><style>
  svg{background:#101316;font-family:'Yu Gothic','Meiryo',system-ui,sans-serif}
  .device{fill:#07080A;stroke:#2B3038;stroke-width:3}
  .screen{stroke:#171A1F;stroke-width:1}
  .camera{fill:#1E242C}
  .barTitle{font-size:20px;font-weight:500}
  .barIcon{font-size:25px;font-weight:600}
  .barIconSmall{font-size:18px;font-weight:600}
  .iconCircle{fill:#2D2D2D}
  .iconLabel{font-size:14px;font-weight:700;fill:#FFFFFF}
  .thumb{stroke:#222;stroke-width:.6}
  .badge{fill:#000000AA}
  .badgeText{fill:#fff;font-size:9px;font-weight:700}
  .fav{fill:#F44336;font-size:13px;font-weight:700}
  .txt{fill:#fff;font-size:13px}
  .headerText{fill:#fff;font-size:20px;font-weight:500}
  .small{fill:#E8EAED;font-size:12px}
  .muted{fill:#9E9E9E;font-size:12px}
  .bottomPill{fill:#000000D9}
  .navGlyph,.navText{fill:#8F8F8F}
  .navGlyphOn,.navTextOn{fill:#FFFFFF;font-weight:700}
  .navGlyph,.navGlyphOn{font-size:19px}
  .navText,.navTextOn{font-size:9px}
  .scrollThumb{fill:#FFFFFFCC}
  .scrollLabel{fill:#000000C7}
  .scrollLabelText{fill:#fff;font-size:13px}
  .marker{fill:#00BCD4}
  .markerText{fill:#001216;font-size:12px;font-weight:900}
  .docTitle{fill:#F8FAFC;font-size:25px;font-weight:800}
  .docSub{fill:#AAB2BD;font-size:13px}
  .legendTitle{fill:#F5F7FA;font-size:15px;font-weight:800}
  .legendBody{fill:#B9C2CE;font-size:12px}
  .catTitle{fill:#FFFFFF;font-size:13px}
  .catSub{fill:#A0A0A0;font-size:11px}
  .m3Card{fill:#1E1E1E}
  .cardTitle{fill:#FFFFFF;font-size:15px;font-weight:700}
  .cardSub{fill:#AAAAAA;font-size:11px}
  .buttonText{font-size:14px;font-weight:700}
  .inputBox{fill:#00000000;stroke:#80868B;stroke-width:1.2}
  .inputLabel{fill:#BDBDBD;font-size:12px}
  .inputText{fill:#FFFFFF;font-size:13px}
  .dialog{fill:#1A1A1A;stroke:#2C2C2C}
  .dialogTitle{fill:#fff;font-size:18px;font-weight:700}
  .dialogText{fill:#D5D5D5;font-size:13px}
  .brownCard{fill:#1D1A18;stroke:#4B4038}
  .brownField{fill:#28231F}
  .brownTitle{fill:#F4EFE8;font-size:18px;font-weight:700}
  .brownText{fill:#B8ADA2;font-size:13px}
  .brownAccent{fill:#D28A5E;font-size:13px;font-weight:700}
  .progressTrack{fill:#FFFFFF26}
  .progress{fill:#00BCD4}
  .line{stroke:#00BCD4;stroke-width:1.2;opacity:.65}
</style><rect x="54" y="38" width="430" height="900" class="device" rx="34"/><rect x="72" y="66" width="394" height="844" class="screen" rx="18" fill="#000000"/><circle cx="269.0" cy="56" r="4" class="camera"/><rect x="72" y="66" width="394" height="56" fill="#000000"/><text x="100" y="101" class="barIcon" fill="#FFFFFF" text-anchor="middle">≡</text><text x="130" y="102" class="barTitle" fill="#FFFFFF" text-anchor="start">Video Downloader</text><rect x="88" y="154" width="362" height="58" class="inputBox" rx="4"/><text x="102" y="150" class="inputLabel">X (Twitter) URL</text><text x="120" y="190" class="inputText">https://x.com/user/status/...</text><text x="102" y="190" class="inputText">🔗</text><rect x="88" y="232" width="362" height="42" fill="#1DA1F2" rx="21"/><text x="269.0" y="259" class="buttonText" fill="#FFFFFF" text-anchor="middle">Show download options</text><text x="120" y="324" class="cardTitle">Download history</text><text x="406" y="324" class="muted" text-anchor="middle">Clear history</text><rect x="88" y="346" width="362" height="74" class="m3Card" rx="8"/><rect x="100" y="356" width="96" height="54" class="thumb" rx="8" fill="url(#thumb0)"/><text x="110" y="404" class="fav">♥</text><text x="212" y="374" class="cardTitle">X download #1</text><text x="212" y="394" class="cardSub">https://x.com/...</text><text x="416" y="410" class="cardSub" fill="#4CAF50" text-anchor="middle">COMPLETED</text><rect x="88" y="432" width="362" height="74" class="m3Card" rx="8"/><rect x="100" y="442" width="96" height="54" class="thumb" rx="8" fill="url(#thumb1)"/><text x="212" y="460" class="cardTitle">X download #2</text><text x="212" y="480" class="cardSub">https://x.com/...</text><text x="416" y="496" class="cardSub" fill="#4CAF50" text-anchor="middle">COMPLETED</text><rect x="88" y="518" width="362" height="74" class="m3Card" rx="8"/><rect x="100" y="528" width="96" height="54" class="thumb" rx="8" fill="url(#thumb2)"/><text x="212" y="546" class="cardTitle">X download #3</text><text x="212" y="566" class="cardSub">https://x.com/...</text><text x="416" y="582" class="cardSub" fill="#F44336" text-anchor="middle">FAILED</text><rect x="72" y="66" width="394" height="844" fill="#000000" opacity="0.55"/><rect x="114" y="536" width="310" height="248" class="dialog" rx="18"/><text x="136" y="574" class="dialogTitle">Download settings</text><text x="136" y="606" class="dialogText">Select quality:</text><text x="136" y="636" class="dialogText">● High (1080p)</text><text x="136" y="666" class="dialogText">○ Medium (720p)</text><text x="136" y="696" class="dialogText">○ Low (480p)</text><text x="136" y="726" class="dialogText">HOME     Cancel</text><rect x="292" y="732" width="104" height="42" fill="#00BCD4" rx="21"/><text x="344.0" y="759" class="buttonText" fill="#001216" text-anchor="middle">Start download</text><circle cx="182" cy="94" r="11" class="marker"/><text x="182" y="98" class="markerText" text-anchor="middle">1</text><circle cx="164" cy="184" r="11" class="marker"/><text x="164" y="188" class="markerText" text-anchor="middle">2</text><circle cx="269.0" cy="254" r="11" class="marker"/><text x="269.0" y="258" class="markerText" text-anchor="middle">3</text><circle cx="192" cy="382" r="11" class="marker"/><text x="192" y="386" class="markerText" text-anchor="middle">4</text><circle cx="269.0" cy="578" r="11" class="marker"/><text x="269.0" y="582" class="markerText" text-anchor="middle">5</text><text x="532" y="68" class="docTitle">XダウンロードUIモック</text><text x="532" y="96" class="docSub">実装画面に近い詳細設計モック</text><rect x="532" y="118" width="320" height="1" fill="#30343A"/><circle cx="544" cy="148" r="11" class="marker"/><text x="544" y="152" class="markerText" text-anchor="middle">1</text><text x="566" y="144" class="legendTitle">TopAppBar</text><text x="566" y="168" class="legendBody">実装タイトルは Video Downloader。左にメニューを表示します。</text><circle cx="544" cy="222" r="11" class="marker"/><text x="544" y="226" class="markerText" text-anchor="middle">2</text><text x="566" y="218" class="legendTitle">OutlinedTextField</text><text x="566" y="242" class="legendBody">ラベルは X (Twitter) URL、Link アイコン付きです。</text><circle cx="544" cy="296" r="11" class="marker"/><text x="544" y="300" class="markerText" text-anchor="middle">3</text><text x="566" y="292" class="legendTitle">実行ボタン</text><text x="566" y="316" class="legendBody">青いボタンで Download settings ダイアログを開きます。</text><circle cx="544" cy="370" r="11" class="marker"/><text x="544" y="374" class="markerText" text-anchor="middle">4</text><text x="566" y="366" class="legendTitle">履歴カード</text><text x="566" y="390" class="legendBody">黒背景に Card、96x64 のプレビュー、URL、日時、状態を表示します。</text><circle cx="544" cy="444" r="11" class="marker"/><text x="544" y="448" class="markerText" text-anchor="middle">5</text><text x="566" y="440" class="legendTitle">設定ダイアログ</text><text x="566" y="464" class="legendBody">画質選択、GIF検出、HOME/Cancel、Start download を表示します。</text></svg>
