<svg xmlns="http://www.w3.org/2000/svg" width="1420" height="760" viewBox="0 0 1420 760" role="img" aria-labelledby="title"><title id="title">漫画ビューア 機能内画面遷移図</title><defs>
  <marker id="arrowHead" viewBox="0 0 10 10" refX="9" refY="5" markerWidth="7" markerHeight="7" orient="auto-start-reverse">
    <path d="M 0 0 L 10 5 L 0 10 z" fill="#73D7E8"/>
  </marker>
</defs><style>
  svg{background:#101316;font-family:'Yu Gothic','Meiryo',system-ui,sans-serif}
  .pageTitle{fill:#F8FAFC;font-size:28px;font-weight:800}
  .pageSub{fill:#AAB2BD;font-size:14px}
  .phone{fill:#07080A;stroke:#3D4551;stroke-width:2}
  .screenTitle{fill:#F8FAFC;font-size:12px;font-weight:800}
  .route{font-size:9px;font-weight:800}
  .miniMuted{fill:#D5DCE5;font-size:10px}
  .darkText{fill:#1D192B;font-size:11px;font-weight:800}
  .buttonText{fill:#fff;font-size:11px;font-weight:800}
  .dialog{fill:#2B2633;stroke:#B79CFF;stroke-width:1.5;stroke-dasharray:6 5}
  .popup{fill:#29323D;stroke:#D7B95F;stroke-width:1.4}
  .sheet{fill:#26302A;stroke:#4CAF50;stroke-width:1.4}
  .nodeTitle{fill:#F8FAFC;font-size:13px;font-weight:800}
  .dialogText{fill:#D5DCE5;font-size:11px}
  .arrow{fill:none;stroke:#73D7E8;stroke-width:2.1;marker-end:url(#arrowHead)}
  .arrowLabel{font-size:10px;font-weight:800}
  .txt{fill:#fff;font-size:12px}
</style><text x="46" y="52" class="pageTitle">漫画ビューア 機能内画面遷移図</text><text x="46" y="80" class="pageSub">漫画一覧、ビューア、その他Menu、設定Sheet、しおりジャンプ</text><rect x="46" y="104" width="1328" height="1" fill="#303741"/><rect x="70" y="220" width="190" height="270" class="phone" rx="18"/><rect x="80" y="232" width="170" height="246" fill="#121212" rx="12"/><rect x="80" y="232" width="170" height="34" fill="#000000" rx="12"/><rect x="80" y="254" width="170" height="12" fill="#000000"/><text x="92" y="255" class="screenTitle">漫画一覧</text><text x="242" y="255" class="route" fill="#00BCD4" text-anchor="end">books</text><rect x="92" y="284" width="55" height="120" fill="#44516B" rx="4"/><rect x="164" y="284" width="55" height="120" fill="#6B5144" rx="4"/><rect x="92" y="429" width="146" height="4" fill="#FFFFFF30" rx="2"/><rect x="92" y="429" width="73.0" height="4" fill="#00BCD4" rx="2"/><rect x="330" y="220" width="190" height="270" class="phone" rx="18"/><rect x="340" y="232" width="170" height="246" fill="#121212" rx="12"/><rect x="340" y="232" width="170" height="34" fill="#000000" rx="12"/><rect x="340" y="254" width="170" height="12" fill="#000000"/><text x="352" y="255" class="screenTitle">BookViewer</text><text x="502" y="255" class="route" fill="#00BCD4" text-anchor="end">viewer</text><rect x="352" y="284" width="55" height="120" fill="#44516B" rx="4"/><rect x="424" y="284" width="55" height="120" fill="#6B5144" rx="4"/><rect x="352" y="429" width="146" height="4" fill="#FFFFFF30" rx="2"/><rect x="352" y="429" width="73.0" height="4" fill="#00BCD4" rx="2"/><rect x="590" y="220" width="215" height="128" class="popup" rx="10"/><text x="602" y="247" class="nodeTitle" fill="#D7B95F">その他Menu</text><text x="604" y="275" class="dialogText">タイトル検索</text><text x="604" y="298" class="dialogText">表示設定</text><text x="604" y="321" class="dialogText">スクショ/回転</text><rect x="850" y="210" width="215" height="135" class="sheet" rx="15"/><rect x="918" y="222" width="74" height="4" fill="#FFFFFF50" rx="2"/><text x="864" y="248" class="nodeTitle" fill="#4CAF50">表示設定Sheet</text><text x="868" y="276" class="dialogText">単/見開き</text><text x="868" y="299" class="dialogText">読む方向</text><text x="868" y="322" class="dialogText">先読み</text><rect x="1110" y="220" width="190" height="270" class="phone" rx="18"/><rect x="1120" y="232" width="170" height="246" fill="#121212" rx="12"/><rect x="1120" y="232" width="170" height="34" fill="#000000" rx="12"/><rect x="1120" y="254" width="170" height="12" fill="#000000"/><text x="1132" y="255" class="screenTitle">しおり一覧</text><text x="1282" y="255" class="route" fill="#4CAF50" text-anchor="end">bookmarks</text><rect x="1132" y="284" width="55" height="120" fill="#44516B" rx="4"/><rect x="1204" y="284" width="55" height="120" fill="#6B5144" rx="4"/><rect x="1132" y="429" width="146" height="4" fill="#FFFFFF30" rx="2"/><rect x="1132" y="429" width="73.0" height="4" fill="#00BCD4" rx="2"/><line x1="260" y1="335" x2="330" y2="335" class="arrow" stroke="#73D7E8"/><rect x="259.0" y="310.0" width="61" height="24" fill="#101316" stroke="#73D7E8" stroke-width="1" rx="12"/><text x="267.0" y="327.0" class="arrowLabel" fill="#73D7E8">作品タップ</text><line x1="520" y1="335" x2="590" y2="285" class="arrow" stroke="#73D7E8"/><rect x="519.0" y="285.0" width="43" height="24" fill="#101316" stroke="#73D7E8" stroke-width="1" rx="12"/><text x="527.0" y="302.0" class="arrowLabel" fill="#73D7E8">その他</text><line x1="805" y1="285" x2="850" y2="280" class="arrow" stroke="#73D7E8"/><rect x="791.5" y="257.5" width="34" height="24" fill="#101316" stroke="#73D7E8" stroke-width="1" rx="12"/><text x="799.5" y="274.5" class="arrowLabel" fill="#73D7E8">設定</text><line x1="430" y1="220" x2="1110" y2="335" class="arrow" stroke="#73D7E8"/><rect x="734.0" y="252.5" width="43" height="24" fill="#101316" stroke="#73D7E8" stroke-width="1" rx="12"/><text x="742.0" y="269.5" class="arrowLabel" fill="#73D7E8">しおり</text><path d="M1110 390 Q720.0 540 330 380" class="arrow" stroke="#4CAF50"/><rect x="684.0" y="360.0" width="52" height="24" fill="#101316" stroke="#4CAF50" stroke-width="1" rx="12"/><text x="692.0" y="377.0" class="arrowLabel" fill="#4CAF50">ジャンプ</text></svg>
