<svg xmlns="http://www.w3.org/2000/svg" width="920" height="980" viewBox="0 0 920 980" role="img" aria-labelledby="title"><title id="title">お絵描き資料詳細UIモック</title><defs>
  <linearGradient id="thumb0" x1="0" y1="0" x2="1" y2="1"><stop stop-color="#6C8BFF"/><stop offset="1" stop-color="#15203D"/></linearGradient>
  <linearGradient id="thumb1" x1="0" y1="0" x2="1" y2="1"><stop stop-color="#3EB489"/><stop offset="1" stop-color="#14251D"/></linearGradient>
  <linearGradient id="thumb2" x1="0" y1="0" x2="1" y2="1"><stop stop-color="#D77A61"/><stop offset="1" stop-color="#301915"/></linearGradient>
  <linearGradient id="thumb3" x1="0" y1="0" x2="1" y2="1"><stop stop-color="#D7B95F"/><stop offset="1" stop-color="#2C2412"/></linearGradient>
  <linearGradient id="thumb4" x1="0" y1="0" x2="1" y2="1"><stop stop-color="#8F7CFF"/><stop offset="1" stop-color="#21193A"/></linearGradient>
  <linearGradient id="thumb5" x1="0" y1="0" x2="1" y2="1"><stop stop-color="#E56B9F"/><stop offset="1" stop-color="#351826"/></linearGradient>
  <linearGradient id="thumb6" x1="0" y1="0" x2="1" y2="1"><stop stop-color="#6EC6E8"/><stop offset="1" stop-color="#132836"/></linearGradient>
  <linearGradient id="thumb7" x1="0" y1="0" x2="1" y2="1"><stop stop-color="#92A76A"/><stop offset="1" stop-color="#1A2214"/></linearGradient>
</defs><style>
  svg{background:#101316;font-family:'Yu Gothic','Meiryo',system-ui,sans-serif}
  .device{fill:#07080A;stroke:#2B3038;stroke-width:3}
  .screen{stroke:#171A1F;stroke-width:1}
  .cameraDot{fill:#1E242C}
  .barTitle{font-size:20px;font-weight:500}
  .iconCircle{fill:#2D2D2D}
  .thumb{stroke:#222;stroke-width:.6}
  .badge{fill:#000000AA}
  .badgeText{fill:#fff;font-size:9px;font-weight:700}
  .txt{fill:#fff;font-size:13px}
  .headerText{fill:#fff;font-size:20px;font-weight:500}
  .small{fill:#E8EAED;font-size:12px}
  .muted{fill:#9E9E9E;font-size:12px}
  .bottomPill{fill:#000000D9}
  .navText{fill:#8F8F8F;font-size:9px}
  .navTextOn{fill:#FFFFFF;font-size:9px;font-weight:700}
  .scrollThumb{fill:#FFFFFFCC}
  .scrollTrack{fill:#FFFFFF40}
  .scrollLabel{fill:#000000C7}
  .scrollLabelText{fill:#fff;font-size:13px}
  .marker{fill:#00BCD4}
  .markerText{fill:#001216;font-size:12px;font-weight:900}
  .docTitle{fill:#F8FAFC;font-size:25px;font-weight:800}
  .docSub{fill:#AAB2BD;font-size:13px}
  .legendTitle{fill:#F5F7FA;font-size:15px;font-weight:800}
  .legendBody{fill:#B9C2CE;font-size:12px}
  .catTitle{fill:#FFFFFF;font-size:13px}
  .catSub{fill:#A0A0A0;font-size:11px}
  .m3Card{fill:#1E1E1E}
  .cardTitle{fill:#FFFFFF;font-size:15px;font-weight:700}
  .cardSub{fill:#AAAAAA;font-size:11px}
  .buttonText{font-size:14px;font-weight:700}
  .inputBox{fill:#00000000;stroke:#80868B;stroke-width:1.2}
  .inputLabel{fill:#BDBDBD;font-size:12px}
  .inputText{fill:#FFFFFF;font-size:13px}
  .dialog{fill:#1A1A1A;stroke:#2C2C2C}
  .dialogTitle{fill:#fff;font-size:18px;font-weight:700}
  .dialogText{fill:#D5D5D5;font-size:13px}
  .brownCard{fill:#1D1A18;stroke:#4B4038}
  .brownField{fill:#28231F}
  .brownTitle{fill:#F4EFE8;font-size:18px;font-weight:700}
  .brownText{fill:#B8ADA2;font-size:13px}
  .brownAccent{fill:#D28A5E;font-size:13px;font-weight:700}
  .progressTrack{fill:#FFFFFF26}
  .progress{fill:#00BCD4}
  .line{stroke:#00BCD4;stroke-width:1.2;opacity:.65}
  .chip{fill:#2D2D2D}
  .chipText{fill:#E8EAED;font-size:11px;font-weight:700}
</style><rect x="54" y="38" width="430" height="900" class="device" rx="34"/><rect x="72" y="66" width="394" height="844" class="screen" rx="18" fill="#000000"/><circle cx="269.0" cy="56" r="4" class="cameraDot"/><rect x="72" y="66" width="394" height="56" fill="#000000"/><g transform="translate(88.00 82.00) scale(1.0000)"><polyline points="15,5 8,12 15,19" fill="none" stroke="#FFFFFF" stroke-width="2" stroke-linecap="round" stroke-linejoin="round"/><line x1="8" y1="12" x2="21" y2="12" stroke="#FFFFFF" stroke-width="2" stroke-linecap="round"/></g><text x="269.0" y="102" class="barTitle" fill="#FFFFFF" text-anchor="middle">手とポーズ資料</text><g transform="translate(427.00 83.00) scale(0.9167)"><polyline points="4,13 9,18 20,6" fill="none" stroke="#FFFFFF" stroke-width="2" stroke-linecap="round" stroke-linejoin="round"/></g><rect x="94" y="162" width="350" height="42" fill="#00BCD4" rx="21"/><text x="269.0" y="189" class="buttonText" fill="#001216" text-anchor="middle">資料を追加</text><rect x="90" y="228" width="166" height="140" class="m3Card" rx="8"/><rect x="100" y="238" width="146" height="90" class="thumb" rx="8" fill="url(#thumb0)"/><text x="102" y="352" class="cardSub">reference_image.jpg</text><g transform="translate(204.00 342.00) scale(0.6667)"><path d="M12 4v10M8 10l4 4 4-4M5 20h14" fill="none" stroke="#00BCD4" stroke-width="2" stroke-linecap="round" stroke-linejoin="round"/></g><g transform="translate(230.00 342.00) scale(0.6667)"><path d="M5 7h14M10 7V5h4v2M7 7l1 14h8l1-14" fill="none" stroke="#9E9E9E" stroke-width="2" stroke-linecap="round" stroke-linejoin="round"/><line x1="10" y1="11" x2="10" y2="18" stroke="#9E9E9E" stroke-width="2" stroke-linecap="round"/><line x1="14" y1="11" x2="14" y2="18" stroke="#9E9E9E" stroke-width="2" stroke-linecap="round"/></g><rect x="270" y="228" width="166" height="140" class="m3Card" rx="8"/><rect x="280" y="238" width="146" height="90" class="thumb" rx="8" fill="url(#thumb1)"/><text x="282" y="352" class="cardSub">reference_image.jpg</text><g transform="translate(384.00 342.00) scale(0.6667)"><path d="M12 4v10M8 10l4 4 4-4M5 20h14" fill="none" stroke="#00BCD4" stroke-width="2" stroke-linecap="round" stroke-linejoin="round"/></g><g transform="translate(410.00 342.00) scale(0.6667)"><path d="M5 7h14M10 7V5h4v2M7 7l1 14h8l1-14" fill="none" stroke="#9E9E9E" stroke-width="2" stroke-linecap="round" stroke-linejoin="round"/><line x1="10" y1="11" x2="10" y2="18" stroke="#9E9E9E" stroke-width="2" stroke-linecap="round"/><line x1="14" y1="11" x2="14" y2="18" stroke="#9E9E9E" stroke-width="2" stroke-linecap="round"/></g><rect x="90" y="386" width="166" height="140" class="m3Card" rx="8"/><rect x="100" y="396" width="146" height="90" class="thumb" rx="8" fill="url(#thumb2)"/><text x="102" y="510" class="cardSub">reference_image.jpg</text><g transform="translate(204.00 500.00) scale(0.6667)"><path d="M12 4v10M8 10l4 4 4-4M5 20h14" fill="none" stroke="#00BCD4" stroke-width="2" stroke-linecap="round" stroke-linejoin="round"/></g><g transform="translate(230.00 500.00) scale(0.6667)"><path d="M5 7h14M10 7V5h4v2M7 7l1 14h8l1-14" fill="none" stroke="#9E9E9E" stroke-width="2" stroke-linecap="round" stroke-linejoin="round"/><line x1="10" y1="11" x2="10" y2="18" stroke="#9E9E9E" stroke-width="2" stroke-linecap="round"/><line x1="14" y1="11" x2="14" y2="18" stroke="#9E9E9E" stroke-width="2" stroke-linecap="round"/></g><rect x="270" y="386" width="166" height="140" class="m3Card" rx="8"/><rect x="280" y="396" width="146" height="90" class="thumb" rx="8" fill="url(#thumb3)"/><text x="282" y="510" class="cardSub">reference_image.jpg</text><g transform="translate(384.00 500.00) scale(0.6667)"><path d="M12 4v10M8 10l4 4 4-4M5 20h14" fill="none" stroke="#00BCD4" stroke-width="2" stroke-linecap="round" stroke-linejoin="round"/></g><g transform="translate(410.00 500.00) scale(0.6667)"><path d="M5 7h14M10 7V5h4v2M7 7l1 14h8l1-14" fill="none" stroke="#9E9E9E" stroke-width="2" stroke-linecap="round" stroke-linejoin="round"/><line x1="10" y1="11" x2="10" y2="18" stroke="#9E9E9E" stroke-width="2" stroke-linecap="round"/><line x1="14" y1="11" x2="14" y2="18" stroke="#9E9E9E" stroke-width="2" stroke-linecap="round"/></g><rect x="90" y="544" width="166" height="140" class="m3Card" rx="8"/><rect x="100" y="554" width="146" height="90" class="thumb" rx="8" fill="url(#thumb4)"/><text x="102" y="668" class="cardSub">reference_image.jpg</text><g transform="translate(204.00 658.00) scale(0.6667)"><path d="M12 4v10M8 10l4 4 4-4M5 20h14" fill="none" stroke="#00BCD4" stroke-width="2" stroke-linecap="round" stroke-linejoin="round"/></g><g transform="translate(230.00 658.00) scale(0.6667)"><path d="M5 7h14M10 7V5h4v2M7 7l1 14h8l1-14" fill="none" stroke="#9E9E9E" stroke-width="2" stroke-linecap="round" stroke-linejoin="round"/><line x1="10" y1="11" x2="10" y2="18" stroke="#9E9E9E" stroke-width="2" stroke-linecap="round"/><line x1="14" y1="11" x2="14" y2="18" stroke="#9E9E9E" stroke-width="2" stroke-linecap="round"/></g><rect x="270" y="544" width="166" height="140" class="m3Card" rx="8"/><rect x="280" y="554" width="146" height="90" class="thumb" rx="8" fill="url(#thumb5)"/><text x="282" y="668" class="cardSub">reference_image.jpg</text><g transform="translate(384.00 658.00) scale(0.6667)"><path d="M12 4v10M8 10l4 4 4-4M5 20h14" fill="none" stroke="#00BCD4" stroke-width="2" stroke-linecap="round" stroke-linejoin="round"/></g><g transform="translate(410.00 658.00) scale(0.6667)"><path d="M5 7h14M10 7V5h4v2M7 7l1 14h8l1-14" fill="none" stroke="#9E9E9E" stroke-width="2" stroke-linecap="round" stroke-linejoin="round"/><line x1="10" y1="11" x2="10" y2="18" stroke="#9E9E9E" stroke-width="2" stroke-linecap="round"/><line x1="14" y1="11" x2="14" y2="18" stroke="#9E9E9E" stroke-width="2" stroke-linecap="round"/></g><circle cx="269.0" cy="94" r="11" class="marker"/><text x="269.0" y="98" class="markerText" text-anchor="middle">1</text><circle cx="269.0" cy="184" r="11" class="marker"/><text x="269.0" y="188" class="markerText" text-anchor="middle">2</text><circle cx="176" cy="280" r="11" class="marker"/><text x="176" y="284" class="markerText" text-anchor="middle">3</text><circle cx="402" cy="350" r="11" class="marker"/><text x="402" y="354" class="markerText" text-anchor="middle">4</text><text x="532" y="68" class="docTitle">お絵描き資料詳細UIモック</text><text x="532" y="96" class="docSub">実装画面に近い詳細設計モック</text><rect x="532" y="118" width="320" height="1" fill="#30343A"/><circle cx="544" cy="148" r="11" class="marker"/><text x="544" y="152" class="markerText" text-anchor="middle">1</text><text x="566" y="144" class="legendTitle">詳細TopAppBar</text><text x="566" y="168" class="legendBody">戻る、完了切替、進行中切替の状態アイコンを表示します。</text><circle cx="544" cy="222" r="11" class="marker"/><text x="544" y="226" class="markerText" text-anchor="middle">2</text><text x="566" y="218" class="legendTitle">資料追加</text><text x="566" y="242" class="legendBody">端末画像または検索画面から資料を追加します。</text><circle cx="544" cy="296" r="11" class="marker"/><text x="544" y="300" class="markerText" text-anchor="middle">3</text><text x="566" y="292" class="legendTitle">資料カード</text><text x="566" y="316" class="legendBody">一時保存した参考画像をカードで並べます。</text><circle cx="544" cy="370" r="11" class="marker"/><text x="544" y="374" class="markerText" text-anchor="middle">4</text><text x="566" y="366" class="legendTitle">保存/削除</text><text x="566" y="390" class="legendBody">資料の保存先反映や削除を個別に操作します。</text></svg>
