<svg xmlns="http://www.w3.org/2000/svg" width="1420" height="760" viewBox="0 0 1420 760" role="img" aria-labelledby="title"><title id="title">お絵描き資料 機能内画面遷移図</title><defs>
  <marker id="arrowHead" viewBox="0 0 10 10" refX="9" refY="5" markerWidth="7" markerHeight="7" orient="auto-start-reverse">
    <path d="M 0 0 L 10 5 L 0 10 z" fill="#73D7E8"/>
  </marker>
</defs><style>
  svg{background:#101316;font-family:'Yu Gothic','Meiryo',system-ui,sans-serif}
  .pageTitle{fill:#F8FAFC;font-size:28px;font-weight:800}
  .pageSub{fill:#AAB2BD;font-size:14px}
  .phone{fill:#07080A;stroke:#3D4551;stroke-width:2}
  .screenTitle{fill:#F8FAFC;font-size:12px;font-weight:800}
  .route{font-size:9px;font-weight:800}
  .miniMuted{fill:#D5DCE5;font-size:10px}
  .darkText{fill:#1D192B;font-size:11px;font-weight:800}
  .buttonText{fill:#fff;font-size:11px;font-weight:800}
  .dialog{fill:#2B2633;stroke:#B79CFF;stroke-width:1.5;stroke-dasharray:6 5}
  .popup{fill:#29323D;stroke:#D7B95F;stroke-width:1.4}
  .sheet{fill:#26302A;stroke:#4CAF50;stroke-width:1.4}
  .nodeTitle{fill:#F8FAFC;font-size:13px;font-weight:800}
  .dialogText{fill:#D5DCE5;font-size:11px}
  .arrow{fill:none;stroke:#73D7E8;stroke-width:2.1;marker-end:url(#arrowHead)}
  .arrowLabel{font-size:10px;font-weight:800}
  .txt{fill:#fff;font-size:12px}
</style><text x="46" y="52" class="pageTitle">お絵描き資料 機能内画面遷移図</text><text x="46" y="80" class="pageSub">プロジェクト作成、資料詳細、Web検索、完了確認の流れ</text><rect x="46" y="104" width="1328" height="1" fill="#303741"/><rect x="70" y="220" width="190" height="270" class="phone" rx="18"/><rect x="80" y="232" width="170" height="246" fill="#121212" rx="12"/><rect x="80" y="232" width="170" height="34" fill="#000000" rx="12"/><rect x="80" y="254" width="170" height="12" fill="#000000"/><text x="92" y="255" class="screenTitle">資料プロジェクト</text><text x="242" y="255" class="route" fill="#B79CFF" text-anchor="end">references</text><rect x="92" y="284" width="146" height="32" fill="#FFFFFF12" rx="7"/><text x="102" y="305" class="miniMuted">キャラ資料</text><rect x="92" y="329" width="146" height="32" fill="#FFFFFF12" rx="7"/><text x="102" y="350" class="miniMuted">手とポーズ</text><rect x="92" y="374" width="146" height="32" fill="#FFFFFF12" rx="7"/><text x="102" y="395" class="miniMuted">背景ラフ</text><rect x="70" y="540" width="220" height="115" class="dialog" rx="14"/><text x="84" y="568" class="nodeTitle" fill="#B79CFF">新規Project Dialog</text><text x="86" y="598" class="dialogText">プロジェクト名</text><text x="86" y="622" class="dialogText">作成/キャンセル</text><rect x="330" y="220" width="190" height="270" class="phone" rx="18"/><rect x="340" y="232" width="170" height="246" fill="#121212" rx="12"/><rect x="340" y="232" width="170" height="34" fill="#000000" rx="12"/><rect x="340" y="254" width="170" height="12" fill="#000000"/><text x="352" y="255" class="screenTitle">資料詳細</text><text x="502" y="255" class="route" fill="#B79CFF" text-anchor="end">detail</text><text x="352" y="274" class="miniMuted">2026年6月25日</text><rect x="352" y="284" width="30" height="30" fill="#6C8BFF" rx="3" opacity="0.9"/><rect x="386" y="284" width="30" height="30" fill="#3EB489" rx="3" opacity="0.9"/><rect x="420" y="284" width="30" height="30" fill="#D77A61" rx="3" opacity="0.9"/><rect x="454" y="284" width="30" height="30" fill="#D7B95F" rx="3" opacity="0.9"/><rect x="352" y="318" width="30" height="30" fill="#8F7CFF" rx="3" opacity="0.9"/><rect x="386" y="318" width="30" height="30" fill="#E56B9F" rx="3" opacity="0.9"/><rect x="420" y="318" width="30" height="30" fill="#6EC6E8" rx="3" opacity="0.9"/><rect x="454" y="318" width="30" height="30" fill="#92A76A" rx="3" opacity="0.9"/><rect x="352" y="352" width="30" height="30" fill="#6C8BFF" rx="3" opacity="0.9"/><rect x="386" y="352" width="30" height="30" fill="#3EB489" rx="3" opacity="0.9"/><rect x="420" y="352" width="30" height="30" fill="#D77A61" rx="3" opacity="0.9"/><rect x="454" y="352" width="30" height="30" fill="#D7B95F" rx="3" opacity="0.9"/><rect x="352" y="386" width="30" height="30" fill="#8F7CFF" rx="3" opacity="0.9"/><rect x="386" y="386" width="30" height="30" fill="#E56B9F" rx="3" opacity="0.9"/><rect x="420" y="386" width="30" height="30" fill="#6EC6E8" rx="3" opacity="0.9"/><rect x="454" y="386" width="30" height="30" fill="#92A76A" rx="3" opacity="0.9"/><rect x="500" y="284" width="4" height="128" fill="#FFFFFF90" rx="2"/><rect x="590" y="215" width="220" height="120" class="dialog" rx="14"/><text x="604" y="243" class="nodeTitle" fill="#B79CFF">完了確認Dialog</text><text x="606" y="273" class="dialogText">完了にする</text><text x="606" y="297" class="dialogText">URL参照へ整理</text><rect x="850" y="220" width="190" height="270" class="phone" rx="18"/><rect x="860" y="232" width="170" height="246" fill="#121212" rx="12"/><rect x="860" y="232" width="170" height="34" fill="#000000" rx="12"/><rect x="860" y="254" width="170" height="12" fill="#000000"/><text x="872" y="255" class="screenTitle">資料検索</text><text x="1022" y="255" class="route" fill="#B79CFF" text-anchor="end">search</text><rect x="872" y="284" width="146" height="34" fill="#00000000" stroke="#80868B" rx="5"/><text x="882" y="306" class="miniMuted">search words</text><rect x="872" y="334" width="146" height="120" fill="#F4F4F4" rx="7"/><rect x="882" y="348" width="34" height="34" fill="#6C8BFF" rx="3" opacity="0.9"/><rect x="922" y="348" width="34" height="34" fill="#3EB489" rx="3" opacity="0.9"/><rect x="962" y="348" width="34" height="34" fill="#D77A61" rx="3" opacity="0.9"/><rect x="882" y="388" width="34" height="34" fill="#D7B95F" rx="3" opacity="0.9"/><rect x="922" y="388" width="34" height="34" fill="#8F7CFF" rx="3" opacity="0.9"/><rect x="962" y="388" width="34" height="34" fill="#E56B9F" rx="3" opacity="0.9"/><rect x="1110" y="220" width="190" height="270" class="phone" rx="18"/><rect x="1120" y="232" width="170" height="246" fill="#121212" rx="12"/><rect x="1120" y="232" width="170" height="34" fill="#000000" rx="12"/><rect x="1120" y="254" width="170" height="12" fill="#000000"/><text x="1132" y="255" class="screenTitle">資料Viewer</text><text x="1282" y="255" class="route" fill="#00BCD4" text-anchor="end">viewer</text><rect x="1132" y="284" width="146" height="138" fill="#44516B" rx="8"/><rect x="1120" y="414" width="170" height="52" fill="#000000CC" rx="8"/><text x="1136" y="445" class="miniMuted">削除  タグ  その他</text><line x1="260" y1="335" x2="330" y2="335" class="arrow" stroke="#73D7E8"/><rect x="259.0" y="310.0" width="34" height="24" fill="#101316" stroke="#73D7E8" stroke-width="1" rx="12"/><text x="267.0" y="327.0" class="arrowLabel" fill="#73D7E8">開く</text><line x1="165" y1="490" x2="165" y2="540" class="arrow" stroke="#73D7E8"/><rect x="129.0" y="490.0" width="34" height="24" fill="#101316" stroke="#73D7E8" stroke-width="1" rx="12"/><text x="137.0" y="507.0" class="arrowLabel" fill="#73D7E8">追加</text><line x1="520" y1="290" x2="590" y2="275" class="arrow" stroke="#73D7E8"/><rect x="519.0" y="257.5" width="34" height="24" fill="#101316" stroke="#73D7E8" stroke-width="1" rx="12"/><text x="527.0" y="274.5" class="arrowLabel" fill="#73D7E8">完了</text><line x1="520" y1="380" x2="850" y2="335" class="arrow" stroke="#73D7E8"/><rect x="649.0" y="332.5" width="52" height="24" fill="#101316" stroke="#73D7E8" stroke-width="1" rx="12"/><text x="657.0" y="349.5" class="arrowLabel" fill="#73D7E8">資料追加</text><path d="M1040 335 Q685.0 455 330 390" class="arrow" stroke="#4CAF50"/><rect x="649.0" y="337.5" width="52" height="24" fill="#101316" stroke="#4CAF50" stroke-width="1" rx="12"/><text x="657.0" y="354.5" class="arrowLabel" fill="#4CAF50">画像追加</text><line x1="430" y1="370" x2="1110" y2="335" class="arrow" stroke="#73D7E8"/><rect x="734.0" y="327.5" width="61" height="24" fill="#101316" stroke="#73D7E8" stroke-width="1" rx="12"/><text x="742.0" y="344.5" class="arrowLabel" fill="#73D7E8">資料タップ</text></svg>
