<svg xmlns="http://www.w3.org/2000/svg" width="920" height="980" viewBox="0 0 920 980" role="img" aria-labelledby="title"><title id="title">お絵描き資料検索UIモック</title><defs>
  <linearGradient id="thumb0" x1="0" y1="0" x2="1" y2="1"><stop stop-color="#6C8BFF"/><stop offset="1" stop-color="#15203D"/></linearGradient>
  <linearGradient id="thumb1" x1="0" y1="0" x2="1" y2="1"><stop stop-color="#3EB489"/><stop offset="1" stop-color="#14251D"/></linearGradient>
  <linearGradient id="thumb2" x1="0" y1="0" x2="1" y2="1"><stop stop-color="#D77A61"/><stop offset="1" stop-color="#301915"/></linearGradient>
  <linearGradient id="thumb3" x1="0" y1="0" x2="1" y2="1"><stop stop-color="#D7B95F"/><stop offset="1" stop-color="#2C2412"/></linearGradient>
  <linearGradient id="thumb4" x1="0" y1="0" x2="1" y2="1"><stop stop-color="#8F7CFF"/><stop offset="1" stop-color="#21193A"/></linearGradient>
  <linearGradient id="thumb5" x1="0" y1="0" x2="1" y2="1"><stop stop-color="#E56B9F"/><stop offset="1" stop-color="#351826"/></linearGradient>
  <linearGradient id="thumb6" x1="0" y1="0" x2="1" y2="1"><stop stop-color="#6EC6E8"/><stop offset="1" stop-color="#132836"/></linearGradient>
  <linearGradient id="thumb7" x1="0" y1="0" x2="1" y2="1"><stop stop-color="#92A76A"/><stop offset="1" stop-color="#1A2214"/></linearGradient>
</defs><style>
  svg{background:#101316;font-family:'Yu Gothic','Meiryo',system-ui,sans-serif}
  .device{fill:#07080A;stroke:#2B3038;stroke-width:3}
  .screen{stroke:#171A1F;stroke-width:1}
  .cameraDot{fill:#1E242C}
  .barTitle{font-size:20px;font-weight:500}
  .iconCircle{fill:#2D2D2D}
  .thumb{stroke:#222;stroke-width:.6}
  .badge{fill:#000000AA}
  .badgeText{fill:#fff;font-size:9px;font-weight:700}
  .txt{fill:#fff;font-size:13px}
  .headerText{fill:#fff;font-size:20px;font-weight:500}
  .small{fill:#E8EAED;font-size:12px}
  .muted{fill:#9E9E9E;font-size:12px}
  .bottomPill{fill:#000000D9}
  .navText{fill:#8F8F8F;font-size:9px}
  .navTextOn{fill:#FFFFFF;font-size:9px;font-weight:700}
  .scrollThumb{fill:#FFFFFFCC}
  .scrollTrack{fill:#FFFFFF40}
  .scrollLabel{fill:#000000C7}
  .scrollLabelText{fill:#fff;font-size:13px}
  .marker{fill:#00BCD4}
  .markerText{fill:#001216;font-size:12px;font-weight:900}
  .docTitle{fill:#F8FAFC;font-size:25px;font-weight:800}
  .docSub{fill:#AAB2BD;font-size:13px}
  .legendTitle{fill:#F5F7FA;font-size:15px;font-weight:800}
  .legendBody{fill:#B9C2CE;font-size:12px}
  .catTitle{fill:#FFFFFF;font-size:13px}
  .catSub{fill:#A0A0A0;font-size:11px}
  .m3Card{fill:#1E1E1E}
  .cardTitle{fill:#FFFFFF;font-size:15px;font-weight:700}
  .cardSub{fill:#AAAAAA;font-size:11px}
  .buttonText{font-size:14px;font-weight:700}
  .inputBox{fill:#00000000;stroke:#80868B;stroke-width:1.2}
  .inputLabel{fill:#BDBDBD;font-size:12px}
  .inputText{fill:#FFFFFF;font-size:13px}
  .dialog{fill:#1A1A1A;stroke:#2C2C2C}
  .dialogTitle{fill:#fff;font-size:18px;font-weight:700}
  .dialogText{fill:#D5D5D5;font-size:13px}
  .brownCard{fill:#1D1A18;stroke:#4B4038}
  .brownField{fill:#28231F}
  .brownTitle{fill:#F4EFE8;font-size:18px;font-weight:700}
  .brownText{fill:#B8ADA2;font-size:13px}
  .brownAccent{fill:#D28A5E;font-size:13px;font-weight:700}
  .progressTrack{fill:#FFFFFF26}
  .progress{fill:#00BCD4}
  .line{stroke:#00BCD4;stroke-width:1.2;opacity:.65}
  .chip{fill:#2D2D2D}
  .chipText{fill:#E8EAED;font-size:11px;font-weight:700}
</style><rect x="54" y="38" width="430" height="900" class="device" rx="34"/><rect x="72" y="66" width="394" height="844" class="screen" rx="18" fill="#000000"/><circle cx="269.0" cy="56" r="4" class="cameraDot"/><rect x="72" y="66" width="394" height="56" fill="#000000"/><g transform="translate(88.00 82.00) scale(1.0000)"><polyline points="15,5 8,12 15,19" fill="none" stroke="#FFFFFF" stroke-width="2" stroke-linecap="round" stroke-linejoin="round"/><line x1="8" y1="12" x2="21" y2="12" stroke="#FFFFFF" stroke-width="2" stroke-linecap="round"/></g><text x="269.0" y="102" class="barTitle" fill="#FFFFFF" text-anchor="middle">Web検索</text><g transform="translate(427.00 83.00) scale(0.9167)"><circle cx="10" cy="10" r="5.5" fill="none" stroke="#FFFFFF" stroke-width="2" stroke-linecap="round" stroke-linejoin="round"/><line x1="14" y1="14" x2="20" y2="20" stroke="#FFFFFF" stroke-width="2" stroke-linecap="round"/></g><rect x="90" y="162" width="358" height="54" class="inputBox" rx="6"/><g transform="translate(105.00 180.00) scale(0.7500)"><circle cx="10" cy="10" r="5.5" fill="none" stroke="#9E9E9E" stroke-width="2" stroke-linecap="round" stroke-linejoin="round"/><line x1="14" y1="14" x2="20" y2="20" stroke="#9E9E9E" stroke-width="2" stroke-linecap="round"/></g><text x="138" y="196" class="inputText">hand pose reference</text><rect x="88" y="240" width="362" height="470" fill="#FFFFFF" rx="8"/><text x="106" y="274" class="cardTitle" fill="#1A1A1A">Google Images</text><rect x="106" y="302" width="96" height="110" class="thumb" rx="8" fill="url(#thumb0)"/><rect x="216" y="302" width="96" height="110" class="thumb" rx="8" fill="url(#thumb1)"/><rect x="326" y="302" width="96" height="110" class="thumb" rx="8" fill="url(#thumb2)"/><rect x="106" y="442" width="96" height="110" class="thumb" rx="8" fill="url(#thumb3)"/><rect x="216" y="442" width="96" height="110" class="thumb" rx="8" fill="url(#thumb4)"/><rect x="326" y="442" width="96" height="110" class="thumb" rx="8" fill="url(#thumb5)"/><circle cx="412" cy="782" r="28" fill="#00BCD4"/><g transform="translate(400.00 770.00) scale(1.0000)"><path d="M5 8h3l2-3h4l2 3h3v11H5V8z" fill="none" stroke="#001216" stroke-width="2" stroke-linecap="round" stroke-linejoin="round"/><circle cx="12" cy="13" r="3.5" fill="none" stroke="#001216" stroke-width="2" stroke-linecap="round" stroke-linejoin="round"/></g><circle cx="202" cy="190" r="11" class="marker"/><text x="202" y="194" class="markerText" text-anchor="middle">1</text><circle cx="168" cy="364" r="11" class="marker"/><text x="168" y="368" class="markerText" text-anchor="middle">2</text><circle cx="412" cy="782" r="11" class="marker"/><text x="412" y="786" class="markerText" text-anchor="middle">3</text><text x="532" y="68" class="docTitle">お絵描き資料検索UIモック</text><text x="532" y="96" class="docSub">実装画面に近い詳細設計モック</text><rect x="532" y="118" width="320" height="1" fill="#30343A"/><circle cx="544" cy="148" r="11" class="marker"/><text x="544" y="152" class="markerText" text-anchor="middle">1</text><text x="566" y="144" class="legendTitle">検索欄</text><text x="566" y="168" class="legendBody">プロジェクト用の資料検索キーワードを入力します。</text><circle cx="544" cy="222" r="11" class="marker"/><text x="544" y="226" class="markerText" text-anchor="middle">2</text><text x="566" y="218" class="legendTitle">WebView</text><text x="566" y="242" class="legendBody">検索結果から画像長押しやURL選択で資料へ追加します。</text><circle cx="544" cy="296" r="11" class="marker"/><text x="544" y="300" class="markerText" text-anchor="middle">3</text><text x="566" y="292" class="legendTitle">スクショ保存</text><text x="566" y="316" class="legendBody">検索画面を資料として保存できます。</text></svg>
