<svg xmlns="http://www.w3.org/2000/svg" width="960" height="620" viewBox="0 0 960 620" role="img" aria-labelledby="title">
  <title id="title">おすすめ・視聴履歴UIモック</title>
  <style>.bg{fill:#101014}.phone{fill:#050505;stroke:#334155;stroke-width:3}.bar{fill:#000}.cell{fill:#334155}.panel{fill:#111827}.cyan{fill:#22d3ee}.txt{font:600 18px system-ui,sans-serif;fill:#f8fafc}.small{font:500 14px system-ui,sans-serif;fill:#cbd5e1}.num{font:700 16px system-ui,sans-serif;fill:#0f172a}</style>
  <rect class="bg" width="960" height="620"/>
  <rect class="phone" x="48" y="36" width="360" height="548" rx="28"/>
  <rect class="bar" x="48" y="36" width="360" height="58" rx="28"/><text class="txt" x="172" y="72">おすすめ</text><text class="txt" x="74" y="72">☰</text><circle class="cyan" cx="92" cy="55" r="12"/><text class="num" x="87" y="61">1</text>
  <g transform="translate(76 122)">
    <rect class="cell" x="0" y="0" width="84" height="84" rx="8"/><rect class="cell" x="98" y="0" width="84" height="84" rx="8"/><rect class="cell" x="196" y="0" width="84" height="84" rx="8"/>
    <rect class="cell" x="0" y="98" width="84" height="84" rx="8"/><rect class="cell" x="98" y="98" width="84" height="84" rx="8"/><rect class="cell" x="196" y="98" width="84" height="84" rx="8"/>
    <rect class="cell" x="0" y="196" width="84" height="84" rx="8"/><rect class="cell" x="98" y="196" width="84" height="84" rx="8"/><rect class="cell" x="196" y="196" width="84" height="84" rx="8"/>
  </g><circle class="cyan" cx="354" cy="126" r="12"/><text class="num" x="349" y="132">2</text>
  <rect class="panel" x="76" y="430" width="280" height="96" rx="14"/><text class="small" x="96" y="462">関連タブ</text><text class="small" x="96" y="488">タグ類似 / ベクトル類似 / ランダム</text><text class="small" x="96" y="512">閲覧履歴から候補生成</text><circle class="cyan" cx="350" cy="430" r="12"/><text class="num" x="345" y="436">3</text>
  <text class="txt" x="470" y="76">画面説明</text>
  <text class="small" x="470" y="122">1. おすすめ画面のトップバー。</text>
  <text class="small" x="470" y="158">2. 推薦結果グリッド。タップでビューアへ。</text>
  <text class="small" x="470" y="194">3. ビューア側の関連パネル。現在画像に近い候補を表示。</text>
  <text class="small" x="470" y="230">推薦元: 閲覧時間、閲覧回数、タグ類似、特徴ベクトル。</text>
</svg>
