<svg xmlns="http://www.w3.org/2000/svg" width="1420" height="760" viewBox="0 0 1420 760" role="img" aria-labelledby="title"><title id="title">おすすめ・視聴履歴 機能内画面遷移図</title><defs>
  <marker id="arrowHead" viewBox="0 0 10 10" refX="9" refY="5" markerWidth="7" markerHeight="7" orient="auto-start-reverse">
    <path d="M 0 0 L 10 5 L 0 10 z" fill="#73D7E8"/>
  </marker>
</defs><style>
  svg{background:#101316;font-family:'Yu Gothic','Meiryo',system-ui,sans-serif}
  .pageTitle{fill:#F8FAFC;font-size:28px;font-weight:800}
  .pageSub{fill:#AAB2BD;font-size:14px}
  .phone{fill:#07080A;stroke:#3D4551;stroke-width:2}
  .screenTitle{fill:#F8FAFC;font-size:12px;font-weight:800}
  .route{font-size:9px;font-weight:800}
  .miniMuted{fill:#D5DCE5;font-size:10px}
  .darkText{fill:#1D192B;font-size:11px;font-weight:800}
  .buttonText{fill:#fff;font-size:11px;font-weight:800}
  .dialog{fill:#2B2633;stroke:#B79CFF;stroke-width:1.5;stroke-dasharray:6 5}
  .popup{fill:#29323D;stroke:#D7B95F;stroke-width:1.4}
  .sheet{fill:#26302A;stroke:#4CAF50;stroke-width:1.4}
  .nodeTitle{fill:#F8FAFC;font-size:13px;font-weight:800}
  .dialogText{fill:#D5DCE5;font-size:11px}
  .arrow{fill:none;stroke:#73D7E8;stroke-width:2.1;marker-end:url(#arrowHead)}
  .arrowLabel{font-size:10px;font-weight:800}
  .txt{fill:#fff;font-size:12px}
</style><text x="46" y="52" class="pageTitle">おすすめ・視聴履歴 機能内画面遷移図</text><text x="46" y="80" class="pageSub">履歴からビューア、関連候補、閲覧統計更新までの流れ</text><rect x="46" y="104" width="1328" height="1" fill="#303741"/><rect x="70" y="220" width="190" height="270" class="phone" rx="18"/><rect x="80" y="232" width="170" height="246" fill="#121212" rx="12"/><rect x="80" y="232" width="170" height="34" fill="#000000" rx="12"/><rect x="80" y="254" width="170" height="12" fill="#000000"/><text x="92" y="255" class="screenTitle">おすすめ</text><text x="242" y="255" class="route" fill="#00BCD4" text-anchor="end">recommend</text><rect x="92" y="284" width="146" height="26" fill="#FFFFFF14" rx="6"/><text x="102" y="302" class="miniMuted">Favorites</text><rect x="92" y="322" width="146" height="26" fill="#FFFFFF14" rx="6"/><text x="102" y="340" class="miniMuted">Untagged</text><rect x="92" y="360" width="146" height="26" fill="#FFFFFF14" rx="6"/><text x="102" y="378" class="miniMuted">AI未分析</text><rect x="92" y="398" width="146" height="26" fill="#FFFFFF14" rx="6"/><text x="102" y="416" class="miniMuted">tag</text><rect x="330" y="220" width="190" height="270" class="phone" rx="18"/><rect x="340" y="232" width="170" height="246" fill="#121212" rx="12"/><rect x="340" y="232" width="170" height="34" fill="#000000" rx="12"/><rect x="340" y="254" width="170" height="12" fill="#000000"/><text x="352" y="255" class="screenTitle">視聴履歴</text><text x="502" y="255" class="route" fill="#00BCD4" text-anchor="end">history</text><text x="352" y="274" class="miniMuted">2026年6月25日</text><rect x="352" y="284" width="30" height="30" fill="#6C8BFF" rx="3" opacity="0.9"/><rect x="386" y="284" width="30" height="30" fill="#3EB489" rx="3" opacity="0.9"/><rect x="420" y="284" width="30" height="30" fill="#D77A61" rx="3" opacity="0.9"/><rect x="454" y="284" width="30" height="30" fill="#D7B95F" rx="3" opacity="0.9"/><rect x="352" y="318" width="30" height="30" fill="#8F7CFF" rx="3" opacity="0.9"/><rect x="386" y="318" width="30" height="30" fill="#E56B9F" rx="3" opacity="0.9"/><rect x="420" y="318" width="30" height="30" fill="#6EC6E8" rx="3" opacity="0.9"/><rect x="454" y="318" width="30" height="30" fill="#92A76A" rx="3" opacity="0.9"/><rect x="352" y="352" width="30" height="30" fill="#6C8BFF" rx="3" opacity="0.9"/><rect x="386" y="352" width="30" height="30" fill="#3EB489" rx="3" opacity="0.9"/><rect x="420" y="352" width="30" height="30" fill="#D77A61" rx="3" opacity="0.9"/><rect x="454" y="352" width="30" height="30" fill="#D7B95F" rx="3" opacity="0.9"/><rect x="352" y="386" width="30" height="30" fill="#8F7CFF" rx="3" opacity="0.9"/><rect x="386" y="386" width="30" height="30" fill="#E56B9F" rx="3" opacity="0.9"/><rect x="420" y="386" width="30" height="30" fill="#6EC6E8" rx="3" opacity="0.9"/><rect x="454" y="386" width="30" height="30" fill="#92A76A" rx="3" opacity="0.9"/><rect x="500" y="284" width="4" height="128" fill="#FFFFFF90" rx="2"/><rect x="590" y="220" width="190" height="270" class="phone" rx="18"/><rect x="600" y="232" width="170" height="246" fill="#121212" rx="12"/><rect x="600" y="232" width="170" height="34" fill="#000000" rx="12"/><rect x="600" y="254" width="170" height="12" fill="#000000"/><text x="612" y="255" class="screenTitle">MediaViewer</text><text x="762" y="255" class="route" fill="#00BCD4" text-anchor="end">viewer</text><rect x="612" y="284" width="146" height="138" fill="#44516B" rx="8"/><rect x="600" y="414" width="170" height="52" fill="#000000CC" rx="8"/><text x="616" y="445" class="miniMuted">削除  タグ  その他</text><rect x="850" y="235" width="220" height="130" class="sheet" rx="15"/><rect x="918" y="247" width="74" height="4" fill="#FFFFFF50" rx="2"/><text x="864" y="273" class="nodeTitle" fill="#4CAF50">関連Panel</text><text x="868" y="301" class="dialogText">タグ類似</text><text x="868" y="324" class="dialogText">ベクトル類似</text><text x="868" y="347" class="dialogText">候補表示</text><rect x="1110" y="220" width="190" height="270" class="phone" rx="18"/><rect x="1120" y="232" width="170" height="246" fill="#121212" rx="12"/><rect x="1120" y="232" width="170" height="34" fill="#000000" rx="12"/><rect x="1120" y="254" width="170" height="12" fill="#000000"/><text x="1132" y="255" class="screenTitle">候補Viewer</text><text x="1282" y="255" class="route" fill="#00BCD4" text-anchor="end">viewer</text><rect x="1132" y="284" width="146" height="138" fill="#44516B" rx="8"/><rect x="1120" y="414" width="170" height="52" fill="#000000CC" rx="8"/><text x="1136" y="445" class="miniMuted">削除  タグ  その他</text><line x1="260" y1="335" x2="330" y2="335" class="arrow" stroke="#73D7E8"/><rect x="259.0" y="310.0" width="52" height="24" fill="#101316" stroke="#73D7E8" stroke-width="1" rx="12"/><text x="267.0" y="327.0" class="arrowLabel" fill="#73D7E8">履歴表示</text><line x1="520" y1="335" x2="590" y2="335" class="arrow" stroke="#73D7E8"/><rect x="519.0" y="310.0" width="43" height="24" fill="#101316" stroke="#73D7E8" stroke-width="1" rx="12"/><text x="527.0" y="327.0" class="arrowLabel" fill="#73D7E8">タップ</text><line x1="780" y1="335" x2="850" y2="300" class="arrow" stroke="#73D7E8"/><rect x="779.0" y="292.5" width="34" height="24" fill="#101316" stroke="#73D7E8" stroke-width="1" rx="12"/><text x="787.0" y="309.5" class="arrowLabel" fill="#73D7E8">関連</text><line x1="1070" y1="300" x2="1110" y2="335" class="arrow" stroke="#73D7E8"/><rect x="1054.0" y="292.5" width="61" height="24" fill="#101316" stroke="#73D7E8" stroke-width="1" rx="12"/><text x="1062.0" y="309.5" class="arrowLabel" fill="#73D7E8">候補タップ</text><path d="M1210 495 Q770.0 655 330 395" class="arrow" stroke="#4CAF50"/><rect x="734.0" y="420.0" width="70" height="24" fill="#101316" stroke="#4CAF50" stroke-width="1" rx="12"/><text x="742.0" y="437.0" class="arrowLabel" fill="#4CAF50">閲覧統計更新</text></svg>
