<svg xmlns="http://www.w3.org/2000/svg" width="920" height="980" viewBox="0 0 920 980" role="img" aria-labelledby="title"><title id="title">お気に入りサイトUIモック</title><defs>
  <linearGradient id="thumb0" x1="0" y1="0" x2="1" y2="1"><stop stop-color="#6C8BFF"/><stop offset="1" stop-color="#15203D"/></linearGradient>
  <linearGradient id="thumb1" x1="0" y1="0" x2="1" y2="1"><stop stop-color="#3EB489"/><stop offset="1" stop-color="#14251D"/></linearGradient>
  <linearGradient id="thumb2" x1="0" y1="0" x2="1" y2="1"><stop stop-color="#D77A61"/><stop offset="1" stop-color="#301915"/></linearGradient>
  <linearGradient id="thumb3" x1="0" y1="0" x2="1" y2="1"><stop stop-color="#D7B95F"/><stop offset="1" stop-color="#2C2412"/></linearGradient>
  <linearGradient id="thumb4" x1="0" y1="0" x2="1" y2="1"><stop stop-color="#8F7CFF"/><stop offset="1" stop-color="#21193A"/></linearGradient>
  <linearGradient id="thumb5" x1="0" y1="0" x2="1" y2="1"><stop stop-color="#E56B9F"/><stop offset="1" stop-color="#351826"/></linearGradient>
  <linearGradient id="thumb6" x1="0" y1="0" x2="1" y2="1"><stop stop-color="#6EC6E8"/><stop offset="1" stop-color="#132836"/></linearGradient>
  <linearGradient id="thumb7" x1="0" y1="0" x2="1" y2="1"><stop stop-color="#92A76A"/><stop offset="1" stop-color="#1A2214"/></linearGradient>
</defs><style>
  svg{background:#101316;font-family:'Yu Gothic','Meiryo',system-ui,sans-serif}
  .device{fill:#07080A;stroke:#2B3038;stroke-width:3}
  .screen{stroke:#171A1F;stroke-width:1}
  .cameraDot{fill:#1E242C}
  .barTitle{font-size:20px;font-weight:500}
  .iconCircle{fill:#2D2D2D}
  .thumb{stroke:#222;stroke-width:.6}
  .badge{fill:#000000AA}
  .badgeText{fill:#fff;font-size:9px;font-weight:700}
  .txt{fill:#fff;font-size:13px}
  .headerText{fill:#fff;font-size:20px;font-weight:500}
  .small{fill:#E8EAED;font-size:12px}
  .muted{fill:#9E9E9E;font-size:12px}
  .bottomPill{fill:#000000D9}
  .navText{fill:#8F8F8F;font-size:9px}
  .navTextOn{fill:#FFFFFF;font-size:9px;font-weight:700}
  .scrollThumb{fill:#FFFFFFCC}
  .scrollTrack{fill:#FFFFFF40}
  .scrollLabel{fill:#000000C7}
  .scrollLabelText{fill:#fff;font-size:13px}
  .marker{fill:#00BCD4}
  .markerText{fill:#001216;font-size:12px;font-weight:900}
  .docTitle{fill:#F8FAFC;font-size:25px;font-weight:800}
  .docSub{fill:#AAB2BD;font-size:13px}
  .legendTitle{fill:#F5F7FA;font-size:15px;font-weight:800}
  .legendBody{fill:#B9C2CE;font-size:12px}
  .catTitle{fill:#FFFFFF;font-size:13px}
  .catSub{fill:#A0A0A0;font-size:11px}
  .m3Card{fill:#1E1E1E}
  .cardTitle{fill:#FFFFFF;font-size:15px;font-weight:700}
  .cardSub{fill:#AAAAAA;font-size:11px}
  .buttonText{font-size:14px;font-weight:700}
  .inputBox{fill:#00000000;stroke:#80868B;stroke-width:1.2}
  .inputLabel{fill:#BDBDBD;font-size:12px}
  .inputText{fill:#FFFFFF;font-size:13px}
  .dialog{fill:#1A1A1A;stroke:#2C2C2C}
  .dialogTitle{fill:#fff;font-size:18px;font-weight:700}
  .dialogText{fill:#D5D5D5;font-size:13px}
  .brownCard{fill:#1D1A18;stroke:#4B4038}
  .brownField{fill:#28231F}
  .brownTitle{fill:#F4EFE8;font-size:18px;font-weight:700}
  .brownText{fill:#B8ADA2;font-size:13px}
  .brownAccent{fill:#D28A5E;font-size:13px;font-weight:700}
  .progressTrack{fill:#FFFFFF26}
  .progress{fill:#00BCD4}
  .line{stroke:#00BCD4;stroke-width:1.2;opacity:.65}
  .chip{fill:#2D2D2D}
  .chipText{fill:#E8EAED;font-size:11px;font-weight:700}
</style><rect x="54" y="38" width="430" height="900" class="device" rx="34"/><rect x="72" y="66" width="394" height="844" class="screen" rx="18" fill="#11100F"/><circle cx="269.0" cy="56" r="4" class="cameraDot"/><rect x="72" y="66" width="394" height="56" fill="#11100F"/><g transform="translate(88.00 82.00) scale(1.0000)"><line x1="4" y1="6" x2="20" y2="6" stroke="#F4EFE8" stroke-width="2" stroke-linecap="round"/><line x1="4" y1="12" x2="20" y2="12" stroke="#F4EFE8" stroke-width="2" stroke-linecap="round"/><line x1="4" y1="18" x2="20" y2="18" stroke="#F4EFE8" stroke-width="2" stroke-linecap="round"/></g><text x="269.0" y="102" class="barTitle" fill="#F4EFE8" text-anchor="middle">お気に入りサイト</text><g transform="translate(427.00 83.00) scale(0.9167)"><path d="M4 17.5V21h3.5L18.5 10 15 6.5 4 17.5zM14 7l3 3" fill="none" stroke="#F4EFE8" stroke-width="2" stroke-linecap="round" stroke-linejoin="round"/></g><rect x="88" y="154" width="362" height="118" class="brownCard" rx="8"/><text x="104" y="186" class="brownTitle">画像検索</text><text x="104" y="212" class="brownText">資料探し用</text><rect x="104" y="226" width="330" height="30" class="brownField" rx="6"/><text x="116" y="246" class="brownAccent">https://example.com/search?q={query}</text><g transform="translate(415.50 233.50) scale(0.7083)"><path d="M5 5h7M5 5v14h14v-7" fill="none" stroke="#D28A5E" stroke-width="2" stroke-linecap="round" stroke-linejoin="round"/><path d="M13 4h7v7M20 4l-9 9" fill="none" stroke="#D28A5E" stroke-width="2" stroke-linecap="round" stroke-linejoin="round"/></g><rect x="88" y="292" width="362" height="118" class="brownCard" rx="8"/><text x="104" y="324" class="brownTitle">ポーズ集</text><text x="104" y="350" class="brownText">人体参考</text><rect x="104" y="364" width="330" height="30" class="brownField" rx="6"/><text x="116" y="384" class="brownAccent">https://poses.example.com</text><g transform="translate(415.50 371.50) scale(0.7083)"><path d="M5 5h7M5 5v14h14v-7" fill="none" stroke="#D28A5E" stroke-width="2" stroke-linecap="round" stroke-linejoin="round"/><path d="M13 4h7v7M20 4l-9 9" fill="none" stroke="#D28A5E" stroke-width="2" stroke-linecap="round" stroke-linejoin="round"/></g><rect x="88" y="430" width="362" height="118" class="brownCard" rx="8"/><text x="104" y="462" class="brownTitle">素材サイト</text><text x="104" y="488" class="brownText">背景素材</text><rect x="104" y="502" width="330" height="30" class="brownField" rx="6"/><text x="116" y="522" class="brownAccent">https://assets.example.com</text><g transform="translate(415.50 509.50) scale(0.7083)"><path d="M5 5h7M5 5v14h14v-7" fill="none" stroke="#D28A5E" stroke-width="2" stroke-linecap="round" stroke-linejoin="round"/><path d="M13 4h7v7M20 4l-9 9" fill="none" stroke="#D28A5E" stroke-width="2" stroke-linecap="round" stroke-linejoin="round"/></g><circle cx="269.0" cy="94" r="11" class="marker"/><text x="269.0" y="98" class="markerText" text-anchor="middle">1</text><circle cx="182" cy="186" r="11" class="marker"/><text x="182" y="190" class="markerText" text-anchor="middle">2</text><circle cx="220" cy="244" r="11" class="marker"/><text x="220" y="248" class="markerText" text-anchor="middle">3</text><circle cx="424" cy="242" r="11" class="marker"/><text x="424" y="246" class="markerText" text-anchor="middle">4</text><text x="532" y="68" class="docTitle">お気に入りサイトUIモック</text><text x="532" y="96" class="docSub">実装画面に近い詳細設計モック</text><rect x="532" y="118" width="320" height="1" fill="#30343A"/><circle cx="544" cy="148" r="11" class="marker"/><text x="544" y="152" class="markerText" text-anchor="middle">1</text><text x="566" y="144" class="legendTitle">お気に入りサイト</text><text x="566" y="168" class="legendBody">作家画面と同じ茶系テーマでサイトを管理します。</text><circle cx="544" cy="222" r="11" class="marker"/><text x="544" y="226" class="markerText" text-anchor="middle">2</text><text x="566" y="218" class="legendTitle">サイトカード</text><text x="566" y="242" class="legendBody">サイト名と説明をカードで表示します。</text><circle cx="544" cy="296" r="11" class="marker"/><text x="544" y="300" class="markerText" text-anchor="middle">3</text><text x="566" y="292" class="legendTitle">URLテンプレート</text><text x="566" y="316" class="legendBody">検索語を差し込めるURLを登録できます。</text><circle cx="544" cy="370" r="11" class="marker"/><text x="544" y="374" class="markerText" text-anchor="middle">4</text><text x="566" y="366" class="legendTitle">外部表示</text><text x="566" y="390" class="legendBody">登録URLをブラウザやWebViewで開きます。</text></svg>
