<svg xmlns="http://www.w3.org/2000/svg" width="920" height="980" viewBox="0 0 920 980" role="img" aria-labelledby="title"><title id="title">お気に入り作家・サイトUIモック</title><defs>
  <linearGradient id="thumb0" x1="0" y1="0" x2="1" y2="1"><stop stop-color="#6C8BFF"/><stop offset="1" stop-color="#15203D"/></linearGradient>
  <linearGradient id="thumb1" x1="0" y1="0" x2="1" y2="1"><stop stop-color="#3EB489"/><stop offset="1" stop-color="#14251D"/></linearGradient>
  <linearGradient id="thumb2" x1="0" y1="0" x2="1" y2="1"><stop stop-color="#D77A61"/><stop offset="1" stop-color="#301915"/></linearGradient>
  <linearGradient id="thumb3" x1="0" y1="0" x2="1" y2="1"><stop stop-color="#D7B95F"/><stop offset="1" stop-color="#2C2412"/></linearGradient>
  <linearGradient id="thumb4" x1="0" y1="0" x2="1" y2="1"><stop stop-color="#8F7CFF"/><stop offset="1" stop-color="#21193A"/></linearGradient>
  <linearGradient id="thumb5" x1="0" y1="0" x2="1" y2="1"><stop stop-color="#E56B9F"/><stop offset="1" stop-color="#351826"/></linearGradient>
  <linearGradient id="thumb6" x1="0" y1="0" x2="1" y2="1"><stop stop-color="#6EC6E8"/><stop offset="1" stop-color="#132836"/></linearGradient>
  <linearGradient id="thumb7" x1="0" y1="0" x2="1" y2="1"><stop stop-color="#92A76A"/><stop offset="1" stop-color="#1A2214"/></linearGradient>
</defs><style>
  svg{background:#101316;font-family:'Yu Gothic','Meiryo',system-ui,sans-serif}
  .device{fill:#07080A;stroke:#2B3038;stroke-width:3}
  .screen{stroke:#171A1F;stroke-width:1}
  .camera{fill:#1E242C}
  .barTitle{font-size:20px;font-weight:500}
  .barIcon{font-size:25px;font-weight:600}
  .barIconSmall{font-size:18px;font-weight:600}
  .iconCircle{fill:#2D2D2D}
  .iconLabel{font-size:14px;font-weight:700;fill:#FFFFFF}
  .thumb{stroke:#222;stroke-width:.6}
  .badge{fill:#000000AA}
  .badgeText{fill:#fff;font-size:9px;font-weight:700}
  .fav{fill:#F44336;font-size:13px;font-weight:700}
  .txt{fill:#fff;font-size:13px}
  .headerText{fill:#fff;font-size:20px;font-weight:500}
  .small{fill:#E8EAED;font-size:12px}
  .muted{fill:#9E9E9E;font-size:12px}
  .bottomPill{fill:#000000D9}
  .navGlyph,.navText{fill:#8F8F8F}
  .navGlyphOn,.navTextOn{fill:#FFFFFF;font-weight:700}
  .navGlyph,.navGlyphOn{font-size:19px}
  .navText,.navTextOn{font-size:9px}
  .scrollThumb{fill:#FFFFFFCC}
  .scrollLabel{fill:#000000C7}
  .scrollLabelText{fill:#fff;font-size:13px}
  .marker{fill:#00BCD4}
  .markerText{fill:#001216;font-size:12px;font-weight:900}
  .docTitle{fill:#F8FAFC;font-size:25px;font-weight:800}
  .docSub{fill:#AAB2BD;font-size:13px}
  .legendTitle{fill:#F5F7FA;font-size:15px;font-weight:800}
  .legendBody{fill:#B9C2CE;font-size:12px}
  .catTitle{fill:#FFFFFF;font-size:13px}
  .catSub{fill:#A0A0A0;font-size:11px}
  .m3Card{fill:#1E1E1E}
  .cardTitle{fill:#FFFFFF;font-size:15px;font-weight:700}
  .cardSub{fill:#AAAAAA;font-size:11px}
  .buttonText{font-size:14px;font-weight:700}
  .inputBox{fill:#00000000;stroke:#80868B;stroke-width:1.2}
  .inputLabel{fill:#BDBDBD;font-size:12px}
  .inputText{fill:#FFFFFF;font-size:13px}
  .dialog{fill:#1A1A1A;stroke:#2C2C2C}
  .dialogTitle{fill:#fff;font-size:18px;font-weight:700}
  .dialogText{fill:#D5D5D5;font-size:13px}
  .brownCard{fill:#1D1A18;stroke:#4B4038}
  .brownField{fill:#28231F}
  .brownTitle{fill:#F4EFE8;font-size:18px;font-weight:700}
  .brownText{fill:#B8ADA2;font-size:13px}
  .brownAccent{fill:#D28A5E;font-size:13px;font-weight:700}
  .progressTrack{fill:#FFFFFF26}
  .progress{fill:#00BCD4}
  .line{stroke:#00BCD4;stroke-width:1.2;opacity:.65}
</style><rect x="54" y="38" width="430" height="900" class="device" rx="34"/><rect x="72" y="66" width="394" height="844" class="screen" rx="18" fill="#11100F"/><circle cx="269.0" cy="56" r="4" class="camera"/><rect x="72" y="66" width="394" height="56" fill="#11100F"/><text x="100" y="101" class="barIcon" fill="#F4EFE8" text-anchor="middle">≡</text><text x="269.0" y="102" class="barTitle" fill="#F4EFE8" text-anchor="middle">Creators</text><text x="438" y="101" class="barIconSmall" fill="#F4EFE8" text-anchor="middle">DL</text><text x="400" y="101" class="barIconSmall" fill="#F4EFE8" text-anchor="middle">UP</text><text x="362" y="101" class="barIconSmall" fill="#F4EFE8" text-anchor="middle">✎</text><rect x="88" y="144" width="362" height="100" class="brownCard" rx="8"/><text x="104" y="175" class="brownTitle">artist_name</text><rect x="104" y="192" width="330" height="34" class="brownField" rx="8"/><text x="118" y="214" class="brownText">pixiv / X / Support</text><text x="424" y="214" class="brownAccent" text-anchor="middle">↗</text><rect x="88" y="262" width="362" height="100" class="brownCard" rx="8"/><text x="104" y="293" class="brownTitle">illustrator_02</text><rect x="104" y="310" width="330" height="34" class="brownField" rx="8"/><text x="118" y="332" class="brownText">User sites / custom</text><text x="424" y="332" class="brownAccent" text-anchor="middle">↗</text><rect x="88" y="380" width="362" height="100" class="brownCard" rx="8"/><text x="104" y="411" class="brownTitle">Untitled creator</text><rect x="104" y="428" width="330" height="34" class="brownField" rx="8"/><text x="118" y="450" class="brownText">URL未設定</text><text x="424" y="450" class="brownAccent" text-anchor="middle">↗</text><rect x="88" y="540" width="362" height="128" class="brownCard" rx="8"/><text x="104" y="570" class="brownTitle">お気に入りサイト</text><text x="104" y="598" class="brownText">別画面: CenterAlignedTopAppBar「お気に入りサイト」</text><rect x="104" y="614" width="330" height="34" class="brownField" rx="6"/><text x="116" y="636" class="brownAccent">https://example.com/search?q={query}</text><circle cx="269.0" cy="94" r="11" class="marker"/><text x="269.0" y="98" class="markerText" text-anchor="middle">1</text><circle cx="180" cy="176" r="11" class="marker"/><text x="180" y="180" class="markerText" text-anchor="middle">2</text><circle cx="402" cy="94" r="11" class="marker"/><text x="402" y="98" class="markerText" text-anchor="middle">3</text><circle cx="190" cy="570" r="11" class="marker"/><text x="190" y="574" class="markerText" text-anchor="middle">4</text><text x="532" y="68" class="docTitle">お気に入り作家・サイトUIモック</text><text x="532" y="96" class="docSub">実装画面に近い詳細設計モック</text><rect x="532" y="118" width="320" height="1" fill="#30343A"/><circle cx="544" cy="148" r="11" class="marker"/><text x="544" y="152" class="markerText" text-anchor="middle">1</text><text x="566" y="144" class="legendTitle">Creators画面</text><text x="566" y="168" class="legendBody">実装は茶系テーマで CenterAlignedTopAppBar を使います。</text><circle cx="544" cy="222" r="11" class="marker"/><text x="544" y="226" class="markerText" text-anchor="middle">2</text><text x="566" y="218" class="legendTitle">作家カード</text><text x="566" y="242" class="legendBody">作家名と登録済みリンクを Card / Surface で表示します。</text><circle cx="544" cy="296" r="11" class="marker"/><text x="544" y="300" class="markerText" text-anchor="middle">3</text><text x="566" y="292" class="legendTitle">DL/UP/編集</text><text x="566" y="316" class="legendBody">バックアップ書き出し、読み込み、表示/編集切替を右上に置きます。</text><circle cx="544" cy="370" r="11" class="marker"/><text x="544" y="374" class="markerText" text-anchor="middle">4</text><text x="566" y="366" class="legendTitle">お気に入りサイト</text><text x="566" y="390" class="legendBody">別画面も同じ茶系テーマでサイト名、説明、URLカードを表示します。</text></svg>
