<svg xmlns="http://www.w3.org/2000/svg" width="1420" height="760" viewBox="0 0 1420 760" role="img" aria-labelledby="title"><title id="title">お気に入り作家・サイト 機能内画面遷移図</title><defs>
  <marker id="arrowHead" viewBox="0 0 10 10" refX="9" refY="5" markerWidth="7" markerHeight="7" orient="auto-start-reverse">
    <path d="M 0 0 L 10 5 L 0 10 z" fill="#73D7E8"/>
  </marker>
</defs><style>
  svg{background:#101316;font-family:'Yu Gothic','Meiryo',system-ui,sans-serif}
  .pageTitle{fill:#F8FAFC;font-size:28px;font-weight:800}
  .pageSub{fill:#AAB2BD;font-size:14px}
  .phone{fill:#07080A;stroke:#3D4551;stroke-width:2}
  .screenTitle{fill:#F8FAFC;font-size:12px;font-weight:800}
  .route{font-size:9px;font-weight:800}
  .miniMuted{fill:#D5DCE5;font-size:10px}
  .darkText{fill:#1D192B;font-size:11px;font-weight:800}
  .buttonText{fill:#fff;font-size:11px;font-weight:800}
  .dialog{fill:#2B2633;stroke:#B79CFF;stroke-width:1.5;stroke-dasharray:6 5}
  .popup{fill:#29323D;stroke:#D7B95F;stroke-width:1.4}
  .sheet{fill:#26302A;stroke:#4CAF50;stroke-width:1.4}
  .nodeTitle{fill:#F8FAFC;font-size:13px;font-weight:800}
  .dialogText{fill:#D5DCE5;font-size:11px}
  .arrow{fill:none;stroke:#73D7E8;stroke-width:2.1;marker-end:url(#arrowHead)}
  .arrowLabel{font-size:10px;font-weight:800}
  .txt{fill:#fff;font-size:12px}
</style><text x="46" y="52" class="pageTitle">お気に入り作家・サイト 機能内画面遷移図</text><text x="46" y="80" class="pageSub">作家/サイト編集、検索Dialog、削除確認、バックアップ操作</text><rect x="46" y="104" width="1328" height="1" fill="#303741"/><rect x="70" y="220" width="190" height="270" class="phone" rx="18"/><rect x="80" y="232" width="170" height="246" fill="#121212" rx="12"/><rect x="80" y="232" width="170" height="34" fill="#000000" rx="12"/><rect x="80" y="254" width="170" height="12" fill="#000000"/><text x="92" y="255" class="screenTitle">Creators</text><text x="242" y="255" class="route" fill="#D28A5E" text-anchor="end">artists</text><rect x="92" y="284" width="146" height="36" fill="#4B4038" rx="7"/><text x="102" y="307" class="miniMuted">artist_name</text><rect x="92" y="332" width="146" height="36" fill="#4B4038" rx="7"/><text x="102" y="355" class="miniMuted">illustrator_02</text><rect x="92" y="380" width="146" height="36" fill="#4B4038" rx="7"/><text x="102" y="403" class="miniMuted">site URL</text><rect x="330" y="220" width="190" height="270" class="phone" rx="18"/><rect x="340" y="232" width="170" height="246" fill="#121212" rx="12"/><rect x="340" y="232" width="170" height="34" fill="#000000" rx="12"/><rect x="340" y="254" width="170" height="12" fill="#000000"/><text x="352" y="255" class="screenTitle">編集モード</text><text x="502" y="255" class="route" fill="#D28A5E" text-anchor="end">edit</text><rect x="352" y="284" width="146" height="36" fill="#4B4038" rx="7"/><text x="362" y="307" class="miniMuted">artist_name</text><rect x="352" y="332" width="146" height="36" fill="#4B4038" rx="7"/><text x="362" y="355" class="miniMuted">illustrator_02</text><rect x="352" y="380" width="146" height="36" fill="#4B4038" rx="7"/><text x="362" y="403" class="miniMuted">site URL</text><rect x="590" y="170" width="210" height="120" class="dialog" rx="14"/><text x="604" y="198" class="nodeTitle" fill="#D28A5E">検索Dialog</text><text x="606" y="228" class="dialogText">Google検索</text><text x="606" y="252" class="dialogText">URLを反映</text><rect x="590" y="360" width="210" height="105" class="dialog" rx="14"/><text x="604" y="388" class="nodeTitle" fill="#F44336">削除確認Dialog</text><text x="606" y="418" class="dialogText">削除/キャンセル</text><rect x="850" y="220" width="190" height="270" class="phone" rx="18"/><rect x="860" y="232" width="170" height="246" fill="#121212" rx="12"/><rect x="860" y="232" width="170" height="34" fill="#000000" rx="12"/><rect x="860" y="254" width="170" height="12" fill="#000000"/><text x="872" y="255" class="screenTitle">お気に入りサイト</text><text x="1022" y="255" class="route" fill="#D28A5E" text-anchor="end">sites</text><rect x="872" y="284" width="146" height="36" fill="#4B4038" rx="7"/><text x="882" y="307" class="miniMuted">artist_name</text><rect x="872" y="332" width="146" height="36" fill="#4B4038" rx="7"/><text x="882" y="355" class="miniMuted">illustrator_02</text><rect x="872" y="380" width="146" height="36" fill="#4B4038" rx="7"/><text x="882" y="403" class="miniMuted">site URL</text><rect x="1110" y="220" width="210" height="115" class="dialog" rx="14"/><text x="1124" y="248" class="nodeTitle" fill="#4CAF50">Import/Export</text><text x="1126" y="278" class="dialogText">JSON書き出し</text><text x="1126" y="302" class="dialogText">読み込み</text><line x1="260" y1="335" x2="330" y2="335" class="arrow" stroke="#73D7E8"/><rect x="259.0" y="310.0" width="34" height="24" fill="#101316" stroke="#73D7E8" stroke-width="1" rx="12"/><text x="267.0" y="327.0" class="arrowLabel" fill="#73D7E8">編集</text><line x1="520" y1="290" x2="590" y2="230" class="arrow" stroke="#73D7E8"/><rect x="519.0" y="235.0" width="61" height="24" fill="#101316" stroke="#73D7E8" stroke-width="1" rx="12"/><text x="527.0" y="252.0" class="arrowLabel" fill="#73D7E8">URL検索</text><line x1="520" y1="400" x2="590" y2="405" class="arrow" stroke="#73D7E8"/><rect x="519.0" y="377.5" width="34" height="24" fill="#101316" stroke="#73D7E8" stroke-width="1" rx="12"/><text x="527.0" y="394.5" class="arrowLabel" fill="#73D7E8">削除</text><line x1="520" y1="335" x2="850" y2="335" class="arrow" stroke="#73D7E8"/><rect x="649.0" y="310.0" width="61" height="24" fill="#101316" stroke="#73D7E8" stroke-width="1" rx="12"/><text x="657.0" y="327.0" class="arrowLabel" fill="#73D7E8">サイト画面</text><line x1="1040" y1="335" x2="1110" y2="280" class="arrow" stroke="#73D7E8"/><rect x="1039.0" y="282.5" width="70" height="24" fill="#101316" stroke="#73D7E8" stroke-width="1" rx="12"/><text x="1047.0" y="299.5" class="arrowLabel" fill="#73D7E8">バックアップ</text><path d="M700 290 Q515.0 390 330 390" class="arrow" stroke="#4CAF50"/><rect x="479.0" y="315.0" width="61" height="24" fill="#101316" stroke="#4CAF50" stroke-width="1" rx="12"/><text x="487.0" y="332.0" class="arrowLabel" fill="#4CAF50">URL反映</text></svg>
