<svg xmlns="http://www.w3.org/2000/svg" width="920" height="980" viewBox="0 0 920 980" role="img" aria-labelledby="title"><title id="title">共通進捗オーバーレイUIモック</title><defs>
  <linearGradient id="thumb0" x1="0" y1="0" x2="1" y2="1"><stop stop-color="#6C8BFF"/><stop offset="1" stop-color="#15203D"/></linearGradient>
  <linearGradient id="thumb1" x1="0" y1="0" x2="1" y2="1"><stop stop-color="#3EB489"/><stop offset="1" stop-color="#14251D"/></linearGradient>
  <linearGradient id="thumb2" x1="0" y1="0" x2="1" y2="1"><stop stop-color="#D77A61"/><stop offset="1" stop-color="#301915"/></linearGradient>
  <linearGradient id="thumb3" x1="0" y1="0" x2="1" y2="1"><stop stop-color="#D7B95F"/><stop offset="1" stop-color="#2C2412"/></linearGradient>
  <linearGradient id="thumb4" x1="0" y1="0" x2="1" y2="1"><stop stop-color="#8F7CFF"/><stop offset="1" stop-color="#21193A"/></linearGradient>
  <linearGradient id="thumb5" x1="0" y1="0" x2="1" y2="1"><stop stop-color="#E56B9F"/><stop offset="1" stop-color="#351826"/></linearGradient>
  <linearGradient id="thumb6" x1="0" y1="0" x2="1" y2="1"><stop stop-color="#6EC6E8"/><stop offset="1" stop-color="#132836"/></linearGradient>
  <linearGradient id="thumb7" x1="0" y1="0" x2="1" y2="1"><stop stop-color="#92A76A"/><stop offset="1" stop-color="#1A2214"/></linearGradient>
</defs><style>
  svg{background:#101316;font-family:'Yu Gothic','Meiryo',system-ui,sans-serif}
  .device{fill:#07080A;stroke:#2B3038;stroke-width:3}
  .screen{stroke:#171A1F;stroke-width:1}
  .cameraDot{fill:#1E242C}
  .barTitle{font-size:20px;font-weight:500}
  .iconCircle{fill:#2D2D2D}
  .thumb{stroke:#222;stroke-width:.6}
  .badge{fill:#000000AA}
  .badgeText{fill:#fff;font-size:9px;font-weight:700}
  .txt{fill:#fff;font-size:13px}
  .headerText{fill:#fff;font-size:20px;font-weight:500}
  .small{fill:#E8EAED;font-size:12px}
  .muted{fill:#9E9E9E;font-size:12px}
  .bottomPill{fill:#000000D9}
  .navText{fill:#8F8F8F;font-size:9px}
  .navTextOn{fill:#FFFFFF;font-size:9px;font-weight:700}
  .scrollThumb{fill:#FFFFFFCC}
  .scrollTrack{fill:#FFFFFF40}
  .scrollLabel{fill:#000000C7}
  .scrollLabelText{fill:#fff;font-size:13px}
  .marker{fill:#00BCD4}
  .markerText{fill:#001216;font-size:12px;font-weight:900}
  .docTitle{fill:#F8FAFC;font-size:25px;font-weight:800}
  .docSub{fill:#AAB2BD;font-size:13px}
  .legendTitle{fill:#F5F7FA;font-size:15px;font-weight:800}
  .legendBody{fill:#B9C2CE;font-size:12px}
  .catTitle{fill:#FFFFFF;font-size:13px}
  .catSub{fill:#A0A0A0;font-size:11px}
  .m3Card{fill:#1E1E1E}
  .cardTitle{fill:#FFFFFF;font-size:15px;font-weight:700}
  .cardSub{fill:#AAAAAA;font-size:11px}
  .buttonText{font-size:14px;font-weight:700}
  .inputBox{fill:#00000000;stroke:#80868B;stroke-width:1.2}
  .inputLabel{fill:#BDBDBD;font-size:12px}
  .inputText{fill:#FFFFFF;font-size:13px}
  .dialog{fill:#1A1A1A;stroke:#2C2C2C}
  .dialogTitle{fill:#fff;font-size:18px;font-weight:700}
  .dialogText{fill:#D5D5D5;font-size:13px}
  .brownCard{fill:#1D1A18;stroke:#4B4038}
  .brownField{fill:#28231F}
  .brownTitle{fill:#F4EFE8;font-size:18px;font-weight:700}
  .brownText{fill:#B8ADA2;font-size:13px}
  .brownAccent{fill:#D28A5E;font-size:13px;font-weight:700}
  .progressTrack{fill:#FFFFFF26}
  .progress{fill:#00BCD4}
  .line{stroke:#00BCD4;stroke-width:1.2;opacity:.65}
  .chip{fill:#2D2D2D}
  .chipText{fill:#E8EAED;font-size:11px;font-weight:700}
</style><rect x="54" y="38" width="430" height="900" class="device" rx="34"/><rect x="72" y="66" width="394" height="844" class="screen" rx="18" fill="#444444"/><circle cx="269.0" cy="56" r="4" class="cameraDot"/><rect x="72" y="66" width="394" height="56" fill="#000000"/><g transform="translate(88.00 82.00) scale(1.0000)"><line x1="4" y1="6" x2="20" y2="6" stroke="#FFFFFF" stroke-width="2" stroke-linecap="round"/><line x1="4" y1="12" x2="20" y2="12" stroke="#FFFFFF" stroke-width="2" stroke-linecap="round"/><line x1="4" y1="18" x2="20" y2="18" stroke="#FFFFFF" stroke-width="2" stroke-linecap="round"/></g><text x="130" y="102" class="barTitle" fill="#FFFFFF" text-anchor="start">すべて</text><rect x="82.0" y="208.0" width="87.5" height="87.5" class="thumb" rx="1" fill="url(#thumb0)"/><g transform="translate(86.00 278.50) scale(0.5833)"><path d="M12 20s-7-4.5-9-9c-1.5-3.5 2.5-6.5 5.5-4.5 1.6 1 2.2 2.3 3.5 3.8 1.3-1.5 1.9-2.8 3.5-3.8 3-2 7 1 5.5 4.5-2 4.5-9 9-9 9z" fill="#F44336" stroke="none"/></g><rect x="170.5" y="208.0" width="87.5" height="87.5" class="thumb" rx="1" fill="url(#thumb1)"/><rect x="259.0" y="208.0" width="87.5" height="87.5" class="thumb" rx="1" fill="url(#thumb2)"/><rect x="304.5" y="277.5" width="38" height="15" class="badge" rx="2"/><text x="323.5" y="288.5" class="badgeText" text-anchor="middle">GIF</text><rect x="347.5" y="208.0" width="87.5" height="87.5" class="thumb" rx="1" fill="url(#thumb3)"/><rect x="82.0" y="296.5" width="87.5" height="87.5" class="thumb" rx="1" fill="url(#thumb4)"/><rect x="170.5" y="296.5" width="87.5" height="87.5" class="thumb" rx="1" fill="url(#thumb5)"/><rect x="216.0" y="366.0" width="38" height="15" class="badge" rx="2"/><text x="235.0" y="377.0" class="badgeText" text-anchor="middle">0:12</text><rect x="259.0" y="296.5" width="87.5" height="87.5" class="thumb" rx="1" fill="url(#thumb6)"/><g transform="translate(263.00 367.00) scale(0.5833)"><path d="M12 20s-7-4.5-9-9c-1.5-3.5 2.5-6.5 5.5-4.5 1.6 1 2.2 2.3 3.5 3.8 1.3-1.5 1.9-2.8 3.5-3.8 3-2 7 1 5.5 4.5-2 4.5-9 9-9 9z" fill="#F44336" stroke="none"/></g><rect x="347.5" y="296.5" width="87.5" height="87.5" class="thumb" rx="1" fill="url(#thumb7)"/><rect x="82.0" y="385.0" width="87.5" height="87.5" class="thumb" rx="1" fill="url(#thumb0)"/><rect x="170.5" y="385.0" width="87.5" height="87.5" class="thumb" rx="1" fill="url(#thumb1)"/><rect x="259.0" y="385.0" width="87.5" height="87.5" class="thumb" rx="1" fill="url(#thumb2)"/><rect x="347.5" y="385.0" width="87.5" height="87.5" class="thumb" rx="1" fill="url(#thumb3)"/><rect x="393.0" y="454.5" width="38" height="15" class="badge" rx="2"/><text x="412.0" y="465.5" class="badgeText" text-anchor="middle">0:12</text><rect x="82.0" y="473.5" width="87.5" height="87.5" class="thumb" rx="1" fill="url(#thumb4)"/><g transform="translate(86.00 544.00) scale(0.5833)"><path d="M12 20s-7-4.5-9-9c-1.5-3.5 2.5-6.5 5.5-4.5 1.6 1 2.2 2.3 3.5 3.8 1.3-1.5 1.9-2.8 3.5-3.8 3-2 7 1 5.5 4.5-2 4.5-9 9-9 9z" fill="#F44336" stroke="none"/></g><rect x="170.5" y="473.5" width="87.5" height="87.5" class="thumb" rx="1" fill="url(#thumb5)"/><rect x="216.0" y="543.0" width="38" height="15" class="badge" rx="2"/><text x="235.0" y="554.0" class="badgeText" text-anchor="middle">GIF</text><rect x="259.0" y="473.5" width="87.5" height="87.5" class="thumb" rx="1" fill="url(#thumb6)"/><rect x="347.5" y="473.5" width="87.5" height="87.5" class="thumb" rx="1" fill="url(#thumb7)"/><rect x="82.0" y="562.0" width="87.5" height="87.5" class="thumb" rx="1" fill="url(#thumb0)"/><rect x="170.5" y="562.0" width="87.5" height="87.5" class="thumb" rx="1" fill="url(#thumb1)"/><rect x="259.0" y="562.0" width="87.5" height="87.5" class="thumb" rx="1" fill="url(#thumb2)"/><g transform="translate(263.00 632.50) scale(0.5833)"><path d="M12 20s-7-4.5-9-9c-1.5-3.5 2.5-6.5 5.5-4.5 1.6 1 2.2 2.3 3.5 3.8 1.3-1.5 1.9-2.8 3.5-3.8 3-2 7 1 5.5 4.5-2 4.5-9 9-9 9z" fill="#F44336" stroke="none"/></g><rect x="347.5" y="562.0" width="87.5" height="87.5" class="thumb" rx="1" fill="url(#thumb3)"/><rect x="88" y="722" width="362" height="112" fill="#000000D9" stroke="#FFFFFF22" rx="12"/><text x="104" y="752" class="cardTitle">サムネイル生成</text><text x="414" y="752" class="cardTitle" fill="#00BCD4" text-anchor="middle">42%</text><rect x="104" y="776" width="330" height="5" class="progressTrack" rx="3"/><rect x="104" y="776" width="132" height="5" class="progress" rx="3"/><text x="104" y="804" class="muted">MediaStore同期 / AIモデル準備 / Room更新</text><circle cx="202" cy="752" r="11" class="marker"/><text x="202" y="756" class="markerText" text-anchor="middle">1</text><circle cx="274" cy="778" r="11" class="marker"/><text x="274" y="782" class="markerText" text-anchor="middle">2</text><circle cx="292" cy="804" r="11" class="marker"/><text x="292" y="808" class="markerText" text-anchor="middle">3</text><text x="532" y="68" class="docTitle">共通進捗オーバーレイUIモック</text><text x="532" y="96" class="docSub">実装画面に近い詳細設計モック</text><rect x="532" y="118" width="320" height="1" fill="#30343A"/><circle cx="544" cy="148" r="11" class="marker"/><text x="544" y="152" class="markerText" text-anchor="middle">1</text><text x="566" y="144" class="legendTitle">GlobalProgressOverlay</text><text x="566" y="168" class="legendBody">起動タスクや一括処理の進捗を黒いカードで重ねます。</text><circle cx="544" cy="222" r="11" class="marker"/><text x="544" y="226" class="markerText" text-anchor="middle">2</text><text x="566" y="218" class="legendTitle">進捗バー</text><text x="566" y="242" class="legendBody">処理率をパーセントとバーで確認できます。</text><circle cx="544" cy="296" r="11" class="marker"/><text x="544" y="300" class="markerText" text-anchor="middle">3</text><text x="566" y="292" class="legendTitle">処理内容</text><text x="566" y="316" class="legendBody">同期、モデル準備、Room更新などの現在作業を表示します。</text></svg>
