<svg xmlns="http://www.w3.org/2000/svg" width="1420" height="760" viewBox="0 0 1420 760" role="img" aria-labelledby="title"><title id="title">共通基盤 機能内画面遷移図</title><defs>
  <marker id="arrowHead" viewBox="0 0 10 10" refX="9" refY="5" markerWidth="7" markerHeight="7" orient="auto-start-reverse">
    <path d="M 0 0 L 10 5 L 0 10 z" fill="#73D7E8"/>
  </marker>
</defs><style>
  svg{background:#101316;font-family:'Yu Gothic','Meiryo',system-ui,sans-serif}
  .pageTitle{fill:#F8FAFC;font-size:28px;font-weight:800}
  .pageSub{fill:#AAB2BD;font-size:14px}
  .phone{fill:#07080A;stroke:#3D4551;stroke-width:2}
  .screenTitle{fill:#F8FAFC;font-size:12px;font-weight:800}
  .route{font-size:9px;font-weight:800}
  .miniMuted{fill:#D5DCE5;font-size:10px}
  .darkText{fill:#1D192B;font-size:11px;font-weight:800}
  .buttonText{fill:#fff;font-size:11px;font-weight:800}
  .dialog{fill:#2B2633;stroke:#B79CFF;stroke-width:1.5;stroke-dasharray:6 5}
  .popup{fill:#29323D;stroke:#D7B95F;stroke-width:1.4}
  .sheet{fill:#26302A;stroke:#4CAF50;stroke-width:1.4}
  .nodeTitle{fill:#F8FAFC;font-size:13px;font-weight:800}
  .dialogText{fill:#D5DCE5;font-size:11px}
  .arrow{fill:none;stroke:#73D7E8;stroke-width:2.1;marker-end:url(#arrowHead)}
  .arrowLabel{font-size:10px;font-weight:800}
  .txt{fill:#fff;font-size:12px}
</style><text x="46" y="52" class="pageTitle">共通基盤 機能内画面遷移図</text><text x="46" y="80" class="pageSub">Drawer、共通進捗、Tutorial、Aboutへの共通遷移</text><rect x="46" y="104" width="1328" height="1" fill="#303741"/><rect x="70" y="220" width="190" height="270" class="phone" rx="18"/><rect x="80" y="232" width="170" height="246" fill="#121212" rx="12"/><rect x="80" y="232" width="170" height="34" fill="#000000" rx="12"/><rect x="80" y="254" width="170" height="12" fill="#000000"/><text x="92" y="255" class="screenTitle">現在画面</text><text x="242" y="255" class="route" fill="#00BCD4" text-anchor="end">current</text><text x="92" y="274" class="miniMuted">2026年6月25日</text><rect x="92" y="284" width="30" height="30" fill="#6C8BFF" rx="3" opacity="0.9"/><rect x="126" y="284" width="30" height="30" fill="#3EB489" rx="3" opacity="0.9"/><rect x="160" y="284" width="30" height="30" fill="#D77A61" rx="3" opacity="0.9"/><rect x="194" y="284" width="30" height="30" fill="#D7B95F" rx="3" opacity="0.9"/><rect x="92" y="318" width="30" height="30" fill="#8F7CFF" rx="3" opacity="0.9"/><rect x="126" y="318" width="30" height="30" fill="#E56B9F" rx="3" opacity="0.9"/><rect x="160" y="318" width="30" height="30" fill="#6EC6E8" rx="3" opacity="0.9"/><rect x="194" y="318" width="30" height="30" fill="#92A76A" rx="3" opacity="0.9"/><rect x="92" y="352" width="30" height="30" fill="#6C8BFF" rx="3" opacity="0.9"/><rect x="126" y="352" width="30" height="30" fill="#3EB489" rx="3" opacity="0.9"/><rect x="160" y="352" width="30" height="30" fill="#D77A61" rx="3" opacity="0.9"/><rect x="194" y="352" width="30" height="30" fill="#D7B95F" rx="3" opacity="0.9"/><rect x="92" y="386" width="30" height="30" fill="#8F7CFF" rx="3" opacity="0.9"/><rect x="126" y="386" width="30" height="30" fill="#E56B9F" rx="3" opacity="0.9"/><rect x="160" y="386" width="30" height="30" fill="#6EC6E8" rx="3" opacity="0.9"/><rect x="194" y="386" width="30" height="30" fill="#92A76A" rx="3" opacity="0.9"/><rect x="240" y="284" width="4" height="128" fill="#FFFFFF90" rx="2"/><rect x="330" y="220" width="190" height="270" class="phone" rx="18"/><rect x="340" y="232" width="170" height="246" fill="#121212" rx="12"/><rect x="340" y="232" width="170" height="34" fill="#000000" rx="12"/><rect x="340" y="254" width="170" height="12" fill="#000000"/><text x="352" y="255" class="screenTitle">Drawer</text><text x="502" y="255" class="route" fill="#D7B95F" text-anchor="end">drawer</text><text x="352" y="284" class="miniMuted">ホーム</text><text x="352" y="314" class="miniMuted">フォルダ</text><text x="352" y="344" class="miniMuted">動画DL</text><text x="352" y="374" class="miniMuted">資料</text><rect x="590" y="120" width="190" height="270" class="phone" rx="18"/><rect x="600" y="132" width="170" height="246" fill="#121212" rx="12"/><rect x="600" y="132" width="170" height="34" fill="#000000" rx="12"/><rect x="600" y="154" width="170" height="12" fill="#000000"/><text x="612" y="155" class="screenTitle">基本機能</text><text x="762" y="155" class="route" fill="#00BCD4" text-anchor="end">home/folders</text><rect x="612" y="184" width="146" height="26" fill="#FFFFFF14" rx="6"/><text x="622" y="202" class="miniMuted">Favorites</text><rect x="612" y="222" width="146" height="26" fill="#FFFFFF14" rx="6"/><text x="622" y="240" class="miniMuted">Untagged</text><rect x="612" y="260" width="146" height="26" fill="#FFFFFF14" rx="6"/><text x="622" y="278" class="miniMuted">AI未分析</text><rect x="612" y="298" width="146" height="26" fill="#FFFFFF14" rx="6"/><text x="622" y="316" class="miniMuted">tag</text><rect x="590" y="440" width="190" height="270" class="phone" rx="18"/><rect x="600" y="452" width="170" height="246" fill="#121212" rx="12"/><rect x="600" y="452" width="170" height="34" fill="#000000" rx="12"/><rect x="600" y="474" width="170" height="12" fill="#000000"/><text x="612" y="475" class="screenTitle">便利機能</text><text x="762" y="475" class="route" fill="#B79CFF" text-anchor="end">tools</text><rect x="612" y="504" width="146" height="32" fill="#FFFFFF12" rx="7"/><text x="622" y="525" class="miniMuted">キャラ資料</text><rect x="612" y="549" width="146" height="32" fill="#FFFFFF12" rx="7"/><text x="622" y="570" class="miniMuted">手とポーズ</text><rect x="612" y="594" width="146" height="32" fill="#FFFFFF12" rx="7"/><text x="622" y="615" class="miniMuted">背景ラフ</text><rect x="850" y="160" width="205" height="115" class="dialog" rx="14"/><text x="864" y="188" class="nodeTitle" fill="#B79CFF">TutorialDialog</text><text x="866" y="218" class="dialogText">使い方ガイド</text><text x="866" y="242" class="dialogText">閉じる</text><rect x="850" y="440" width="190" height="270" class="phone" rx="18"/><rect x="860" y="452" width="170" height="246" fill="#121212" rx="12"/><rect x="860" y="452" width="170" height="34" fill="#000000" rx="12"/><rect x="860" y="474" width="170" height="12" fill="#000000"/><text x="872" y="475" class="screenTitle">About</text><text x="1022" y="475" class="route" fill="#00BCD4" text-anchor="end">about</text><rect x="872" y="504" width="146" height="26" fill="#FFFFFF14" rx="6"/><text x="882" y="522" class="miniMuted">Favorites</text><rect x="872" y="542" width="146" height="26" fill="#FFFFFF14" rx="6"/><text x="882" y="560" class="miniMuted">Untagged</text><rect x="872" y="580" width="146" height="26" fill="#FFFFFF14" rx="6"/><text x="882" y="598" class="miniMuted">AI未分析</text><rect x="872" y="618" width="146" height="26" fill="#FFFFFF14" rx="6"/><text x="882" y="636" class="miniMuted">tag</text><rect x="1110" y="320" width="190" height="270" class="phone" rx="18"/><rect x="1120" y="332" width="170" height="246" fill="#121212" rx="12"/><rect x="1120" y="332" width="170" height="34" fill="#000000" rx="12"/><rect x="1120" y="354" width="170" height="12" fill="#000000"/><text x="1132" y="355" class="screenTitle">ProgressOverlay</text><text x="1282" y="355" class="route" fill="#4CAF50" text-anchor="end">overlay</text><rect x="1132" y="444" width="146" height="86" fill="#000000D9" rx="9"/><text x="1144" y="474" class="miniMuted">サムネイル生成</text><rect x="1144" y="492" width="122" height="5" fill="#FFFFFF30" rx="2"/><rect x="1144" y="492" width="54.9" height="5" fill="#00BCD4" rx="2"/><line x1="260" y1="335" x2="330" y2="335" class="arrow" stroke="#73D7E8"/><rect x="259.0" y="310.0" width="52" height="24" fill="#101316" stroke="#73D7E8" stroke-width="1" rx="12"/><text x="267.0" y="327.0" class="arrowLabel" fill="#73D7E8">メニュー</text><line x1="520" y1="280" x2="590" y2="235" class="arrow" stroke="#73D7E8"/><rect x="519.0" y="232.5" width="34" height="24" fill="#101316" stroke="#73D7E8" stroke-width="1" rx="12"/><text x="527.0" y="249.5" class="arrowLabel" fill="#73D7E8">基本</text><line x1="520" y1="390" x2="590" y2="555" class="arrow" stroke="#73D7E8"/><rect x="519.0" y="447.5" width="34" height="24" fill="#101316" stroke="#73D7E8" stroke-width="1" rx="12"/><text x="527.0" y="464.5" class="arrowLabel" fill="#73D7E8">便利</text><line x1="520" y1="320" x2="850" y2="220" class="arrow" stroke="#73D7E8"/><rect x="649.0" y="245.0" width="43" height="24" fill="#101316" stroke="#73D7E8" stroke-width="1" rx="12"/><text x="657.0" y="262.0" class="arrowLabel" fill="#73D7E8">ガイド</text><line x1="520" y1="410" x2="850" y2="555" class="arrow" stroke="#73D7E8"/><rect x="649.0" y="457.5" width="34" height="24" fill="#101316" stroke="#73D7E8" stroke-width="1" rx="12"/><text x="657.0" y="474.5" class="arrowLabel" fill="#73D7E8">情報</text><path d="M260 390 Q685.0 510 1110 435" class="arrow" stroke="#4CAF50"/><rect x="649.0" y="387.5" width="61" height="24" fill="#101316" stroke="#4CAF50" stroke-width="1" rx="12"/><text x="657.0" y="404.5" class="arrowLabel" fill="#4CAF50">処理中表示</text></svg>
