<svg xmlns="http://www.w3.org/2000/svg" width="1600" height="1050" viewBox="0 0 1600 1050" role="img" aria-labelledby="title"><title id="title">全体画面遷移図</title><defs>
  <marker id="arrowHead" viewBox="0 0 10 10" refX="9" refY="5" markerWidth="8" markerHeight="8" orient="auto-start-reverse">
    <path d="M 0 0 L 10 5 L 0 10 z" fill="#73D7E8"/>
  </marker>
</defs><style>
  svg{background:#101316;font-family:'Yu Gothic','Meiryo',system-ui,sans-serif}
  .pageTitle{fill:#F8FAFC;font-size:30px;font-weight:800}
  .pageSub{fill:#AAB2BD;font-size:14px}
  .screenCard{fill:#20242B;stroke:#4A5362;stroke-width:1.3}
  .dialogCard{fill:#2B2633;stroke:#B79CFF;stroke-width:1.5;stroke-dasharray:7 5}
  .popupCard{fill:#29323D;stroke:#D7B95F;stroke-width:1.4}
  .sheetCard{fill:#26302A;stroke:#4CAF50;stroke-width:1.4}
  .cardTitle{fill:#F8FAFC;font-size:15px;font-weight:800}
  .route{font-size:10px;font-weight:700}
  .cardText{fill:#E8EAED;font-size:12px}
  .dialogText{fill:#D5DCE5;font-size:12px}
  .arrow{fill:none;stroke:#73D7E8;stroke-width:2.2;marker-end:url(#arrowHead)}
  .arrowLabel{font-size:11px;font-weight:800}
  .txt{fill:#fff;font-size:12px}
</style><text x="56" y="60" class="pageTitle">全体画面遷移図</text><text x="56" y="88" class="pageSub">MainActivity の Drawer / BottomBar / Intent から主要画面へ遷移する流れ</text><rect x="56" y="110" width="1488" height="1" fill="#303741"/><rect x="70" y="170" width="210" height="230" class="screenCard" rx="14"/><rect x="70" y="170" width="210" height="42" fill="#050607" rx="14"/><rect x="70" y="198" width="210" height="14" fill="#050607"/><text x="84" y="197" class="cardTitle">アプリ起動</text><text x="268" y="197" class="route" fill="#4CAF50" text-anchor="end">MainActivity</text><rect x="84" y="218" width="182" height="24" fill="#FFFFFF10" rx="6"/><text x="94" y="236" class="cardText">権限確認</text><rect x="84" y="252" width="182" height="24" fill="#FFFFFF10" rx="6"/><text x="94" y="270" class="cardText">MediaStore同期</text><rect x="84" y="286" width="182" height="24" fill="#FFFFFF10" rx="6"/><text x="94" y="304" class="cardText">起動タスク開始</text><rect x="82" y="364" width="186" height="24" fill="#00000099" rx="12"/><rect x="365" y="170" width="210" height="230" class="screenCard" rx="14"/><rect x="365" y="170" width="210" height="42" fill="#050607" rx="14"/><rect x="365" y="198" width="210" height="14" fill="#050607"/><text x="379" y="197" class="cardTitle">ホーム</text><text x="563" y="197" class="route" fill="#00BCD4" text-anchor="end">home</text><rect x="379" y="218" width="182" height="24" fill="#FFFFFF10" rx="6"/><text x="389" y="236" class="cardText">ギャラリー一覧</text><rect x="379" y="252" width="182" height="24" fill="#FFFFFF10" rx="6"/><text x="389" y="270" class="cardText">フィルタ/ソート</text><rect x="379" y="286" width="182" height="24" fill="#FFFFFF10" rx="6"/><text x="389" y="304" class="cardText">スクロール位置保持</text><rect x="377" y="364" width="186" height="24" fill="#00000099" rx="12"/><rect x="650" y="150" width="210" height="230" class="screenCard" rx="14"/><rect x="650" y="150" width="210" height="42" fill="#050607" rx="14"/><rect x="650" y="178" width="210" height="14" fill="#050607"/><text x="664" y="177" class="cardTitle">ドロワー</text><text x="848" y="177" class="route" fill="#D7B95F" text-anchor="end">drawer</text><rect x="664" y="198" width="182" height="24" fill="#FFFFFF10" rx="6"/><text x="674" y="216" class="cardText">ホーム</text><rect x="664" y="232" width="182" height="24" fill="#FFFFFF10" rx="6"/><text x="674" y="250" class="cardText">便利機能</text><rect x="664" y="266" width="182" height="24" fill="#FFFFFF10" rx="6"/><text x="674" y="284" class="cardText">情報/ガイド</text><rect x="662" y="344" width="186" height="24" fill="#00000099" rx="12"/><rect x="930" y="120" width="210" height="230" class="screenCard" rx="14"/><rect x="930" y="120" width="210" height="42" fill="#050607" rx="14"/><rect x="930" y="148" width="210" height="14" fill="#050607"/><text x="944" y="147" class="cardTitle">フォルダ</text><text x="1128" y="147" class="route" fill="#00BCD4" text-anchor="end">folders</text><rect x="944" y="168" width="182" height="24" fill="#FFFFFF10" rx="6"/><text x="954" y="186" class="cardText">フォルダ一覧</text><rect x="944" y="202" width="182" height="24" fill="#FFFFFF10" rx="6"/><text x="954" y="220" class="cardText">フォルダ内グリッド</text><rect x="944" y="236" width="182" height="24" fill="#FFFFFF10" rx="6"/><text x="954" y="254" class="cardText">一括操作</text><rect x="942" y="314" width="186" height="24" fill="#00000099" rx="12"/><rect x="1210" y="120" width="210" height="230" class="screenCard" rx="14"/><rect x="1210" y="120" width="210" height="42" fill="#050607" rx="14"/><rect x="1210" y="148" width="210" height="14" fill="#050607"/><text x="1224" y="147" class="cardTitle">My List</text><text x="1408" y="147" class="route" fill="#00BCD4" text-anchor="end">mylist</text><rect x="1224" y="168" width="182" height="24" fill="#FFFFFF10" rx="6"/><text x="1234" y="186" class="cardText">お気に入り</text><rect x="1224" y="202" width="182" height="24" fill="#FFFFFF10" rx="6"/><text x="1234" y="220" class="cardText">未整理</text><rect x="1224" y="236" width="182" height="24" fill="#FFFFFF10" rx="6"/><text x="1234" y="254" class="cardText">AI未分析</text><rect x="1222" y="314" width="186" height="24" fill="#00000099" rx="12"/><rect x="930" y="390" width="210" height="230" class="screenCard" rx="14"/><rect x="930" y="390" width="210" height="42" fill="#050607" rx="14"/><rect x="930" y="418" width="210" height="14" fill="#050607"/><text x="944" y="417" class="cardTitle">本</text><text x="1128" y="417" class="route" fill="#00BCD4" text-anchor="end">books</text><rect x="944" y="438" width="182" height="24" fill="#FFFFFF10" rx="6"/><text x="954" y="456" class="cardText">漫画一覧</text><rect x="944" y="472" width="182" height="24" fill="#FFFFFF10" rx="6"/><text x="954" y="490" class="cardText">ビューア</text><rect x="944" y="506" width="182" height="24" fill="#FFFFFF10" rx="6"/><text x="954" y="524" class="cardText">しおり</text><rect x="942" y="584" width="186" height="24" fill="#00000099" rx="12"/><rect x="1210" y="390" width="210" height="230" class="screenCard" rx="14"/><rect x="1210" y="390" width="210" height="42" fill="#050607" rx="14"/><rect x="1210" y="418" width="210" height="14" fill="#050607"/><text x="1224" y="417" class="cardTitle">ゴミ箱</text><text x="1408" y="417" class="route" fill="#00BCD4" text-anchor="end">trash</text><rect x="1224" y="438" width="182" height="24" fill="#FFFFFF10" rx="6"/><text x="1234" y="456" class="cardText">削除済み一覧</text><rect x="1224" y="472" width="182" height="24" fill="#FFFFFF10" rx="6"/><text x="1234" y="490" class="cardText">復元</text><rect x="1224" y="506" width="182" height="24" fill="#FFFFFF10" rx="6"/><text x="1234" y="524" class="cardText">完全削除</text><rect x="1222" y="584" width="186" height="24" fill="#00000099" rx="12"/><rect x="70" y="520" width="210" height="230" class="screenCard" rx="14"/><rect x="70" y="520" width="210" height="42" fill="#050607" rx="14"/><rect x="70" y="548" width="210" height="14" fill="#050607"/><text x="84" y="547" class="cardTitle">X共有/VIEW</text><text x="268" y="547" class="route" fill="#D28A5E" text-anchor="end">intent</text><rect x="84" y="568" width="182" height="24" fill="#FFFFFF10" rx="6"/><text x="94" y="586" class="cardText">ACTION_SEND</text><rect x="84" y="602" width="182" height="24" fill="#FFFFFF10" rx="6"/><text x="94" y="620" class="cardText">ACTION_VIEW</text><rect x="84" y="636" width="182" height="24" fill="#FFFFFF10" rx="6"/><text x="94" y="654" class="cardText">initialUrl</text><rect x="82" y="714" width="186" height="24" fill="#00000099" rx="12"/><rect x="365" y="520" width="210" height="230" class="screenCard" rx="14"/><rect x="365" y="520" width="210" height="42" fill="#050607" rx="14"/><rect x="365" y="548" width="210" height="14" fill="#050607"/><text x="379" y="547" class="cardTitle">動画DL</text><text x="563" y="547" class="route" fill="#D28A5E" text-anchor="end">video_downloader</text><rect x="379" y="568" width="182" height="24" fill="#FFFFFF10" rx="6"/><text x="389" y="586" class="cardText">URL入力</text><rect x="379" y="602" width="182" height="24" fill="#FFFFFF10" rx="6"/><text x="389" y="620" class="cardText">品質選択</text><rect x="379" y="636" width="182" height="24" fill="#FFFFFF10" rx="6"/><text x="389" y="654" class="cardText">履歴プレビュー</text><rect x="377" y="714" width="186" height="24" fill="#00000099" rx="12"/><rect x="650" y="520" width="210" height="230" class="screenCard" rx="14"/><rect x="650" y="520" width="210" height="42" fill="#050607" rx="14"/><rect x="650" y="548" width="210" height="14" fill="#050607"/><text x="664" y="547" class="cardTitle">制作補助</text><text x="848" y="547" class="route" fill="#B79CFF" text-anchor="end">references</text><rect x="664" y="568" width="182" height="24" fill="#FFFFFF10" rx="6"/><text x="674" y="586" class="cardText">プロジェクト</text><rect x="664" y="602" width="182" height="24" fill="#FFFFFF10" rx="6"/><text x="674" y="620" class="cardText">資料詳細</text><rect x="664" y="636" width="182" height="24" fill="#FFFFFF10" rx="6"/><text x="674" y="654" class="cardText">Web検索</text><rect x="662" y="714" width="186" height="24" fill="#00000099" rx="12"/><rect x="930" y="670" width="210" height="230" class="screenCard" rx="14"/><rect x="930" y="670" width="210" height="42" fill="#050607" rx="14"/><rect x="930" y="698" width="210" height="14" fill="#050607"/><text x="944" y="697" class="cardTitle">作家/サイト</text><text x="1128" y="697" class="route" fill="#D28A5E" text-anchor="end">favorite_*</text><rect x="944" y="718" width="182" height="24" fill="#FFFFFF10" rx="6"/><text x="954" y="736" class="cardText">作家リンク</text><rect x="944" y="752" width="182" height="24" fill="#FFFFFF10" rx="6"/><text x="954" y="770" class="cardText">サイトリンク</text><rect x="944" y="786" width="182" height="24" fill="#FFFFFF10" rx="6"/><text x="954" y="804" class="cardText">検索Dialog</text><rect x="942" y="864" width="186" height="24" fill="#00000099" rx="12"/><rect x="1210" y="670" width="210" height="230" class="screenCard" rx="14"/><rect x="1210" y="670" width="210" height="42" fill="#050607" rx="14"/><rect x="1210" y="698" width="210" height="14" fill="#050607"/><text x="1224" y="697" class="cardTitle">おすすめ/情報</text><text x="1408" y="697" class="route" fill="#B79CFF" text-anchor="end">recommend/about</text><rect x="1224" y="718" width="182" height="24" fill="#FFFFFF10" rx="6"/><text x="1234" y="736" class="cardText">おすすめ</text><rect x="1224" y="752" width="182" height="24" fill="#FFFFFF10" rx="6"/><text x="1234" y="770" class="cardText">使い方Dialog</text><rect x="1224" y="786" width="182" height="24" fill="#FFFFFF10" rx="6"/><text x="1234" y="804" class="cardText">このアプリについて</text><rect x="1222" y="864" width="186" height="24" fill="#00000099" rx="12"/><rect x="640" y="790" width="230" height="120" class="dialogCard" rx="14"/><text x="654" y="820" class="cardTitle" fill="#B79CFF">TutorialDialog</text><text x="658" y="850" class="dialogText">使い方ガイド</text><text x="658" y="877" class="dialogText">ドロワーから表示</text><rect x="365" y="790" width="230" height="120" class="popupCard" rx="10"/><text x="377" y="817" class="cardTitle" fill="#4CAF50">GlobalProgressOverlay</text><text x="381" y="845" class="dialogText">サムネイル生成</text><text x="381" y="870" class="dialogText">AI分析進捗</text><line x1="280" y1="285" x2="365" y2="285" class="arrow" stroke="#73D7E8"/><rect x="298.5" y="259.0" width="40" height="25" fill="#101316" stroke="#73D7E8" stroke-width="1" rx="12"/><text x="306.5" y="277.0" class="arrowLabel" fill="#73D7E8">起動後</text><line x1="575" y1="230" x2="650" y2="230" class="arrow" stroke="#73D7E8"/><rect x="588.5" y="204.0" width="48" height="25" fill="#101316" stroke="#73D7E8" stroke-width="1" rx="12"/><text x="596.5" y="222.0" class="arrowLabel" fill="#73D7E8">メニュー</text><path d="M860 265 Q895.0 225 930 235" class="arrow" stroke="#73D7E8"/><rect x="871.0" y="224.0" width="32" height="25" fill="#101316" stroke="#73D7E8" stroke-width="1" rx="12"/><text x="879.0" y="242.0" class="arrowLabel" fill="#73D7E8">基本</text><path d="M860 265 Q1035.0 225 1210 235" class="arrow" stroke="#73D7E8"/><rect x="1011.0" y="224.0" width="32" height="25" fill="#101316" stroke="#73D7E8" stroke-width="1" rx="12"/><text x="1019.0" y="242.0" class="arrowLabel" fill="#73D7E8">基本</text><path d="M860 265 Q895.0 335 930 505" class="arrow" stroke="#73D7E8"/><rect x="871.0" y="359.0" width="32" height="25" fill="#101316" stroke="#73D7E8" stroke-width="1" rx="12"/><text x="879.0" y="377.0" class="arrowLabel" fill="#73D7E8">基本</text><path d="M860 265 Q1035.0 335 1210 505" class="arrow" stroke="#73D7E8"/><rect x="1011.0" y="359.0" width="32" height="25" fill="#101316" stroke="#73D7E8" stroke-width="1" rx="12"/><text x="1019.0" y="377.0" class="arrowLabel" fill="#73D7E8">基本</text><path d="M860 265 Q612.5 335 365 620" class="arrow" stroke="#73D7E8"/><rect x="588.5" y="416.5" width="32" height="25" fill="#101316" stroke="#73D7E8" stroke-width="1" rx="12"/><text x="596.5" y="434.5" class="arrowLabel" fill="#73D7E8">共有</text><path d="M860 265 Q755.0 335 650 620" class="arrow" stroke="#73D7E8"/><rect x="731.0" y="416.5" width="32" height="25" fill="#101316" stroke="#73D7E8" stroke-width="1" rx="12"/><text x="739.0" y="434.5" class="arrowLabel" fill="#73D7E8">便利</text><path d="M860 265 Q895.0 335 930 785" class="arrow" stroke="#73D7E8"/><rect x="871.0" y="499.0" width="32" height="25" fill="#101316" stroke="#73D7E8" stroke-width="1" rx="12"/><text x="879.0" y="517.0" class="arrowLabel" fill="#73D7E8">便利</text><path d="M860 265 Q1035.0 335 1210 785" class="arrow" stroke="#73D7E8"/><rect x="1011.0" y="499.0" width="32" height="25" fill="#101316" stroke="#73D7E8" stroke-width="1" rx="12"/><text x="1019.0" y="517.0" class="arrowLabel" fill="#73D7E8">情報</text><line x1="280" y1="635" x2="365" y2="635" class="arrow" stroke="#73D7E8"/><rect x="298.5" y="609.0" width="56" height="25" fill="#101316" stroke="#73D7E8" stroke-width="1" rx="12"/><text x="306.5" y="627.0" class="arrowLabel" fill="#73D7E8">外部URL</text><line x1="650" y1="752" x2="755" y2="790" class="arrow" stroke="#73D7E8"/><rect x="678.5" y="745.0" width="40" height="25" fill="#101316" stroke="#73D7E8" stroke-width="1" rx="12"/><text x="686.5" y="763.0" class="arrowLabel" fill="#73D7E8">ガイド</text><line x1="470" y1="400" x2="470" y2="790" class="arrow" stroke="#4CAF50"/><rect x="446.0" y="569.0" width="48" height="25" fill="#101316" stroke="#4CAF50" stroke-width="1" rx="12"/><text x="454.0" y="587.0" class="arrowLabel" fill="#4CAF50">進捗表示</text><rect x="1220" y="820" width="310" height="150" fill="#0B0E12" stroke="#303741" rx="12"/><text x="1238" y="850" class="cardTitle">凡例</text><rect x="1238" y="866" width="34" height="18" fill="#20242B" rx="5"/><text x="1284" y="882" class="dialogText">画面</text><rect x="1238" y="896" width="34" height="18" fill="#2B2633" rx="5"/><text x="1284" y="912" class="dialogText">Dialog</text><rect x="1238" y="926" width="34" height="18" fill="#29323D" rx="5"/><text x="1284" y="942" class="dialogText">Popup/Overlay</text><rect x="1238" y="956" width="34" height="18" fill="#73D7E8" rx="5"/><text x="1284" y="972" class="dialogText">遷移</text></svg>
