<svg xmlns="http://www.w3.org/2000/svg" width="1600" height="1050" viewBox="0 0 1600 1050" role="img" aria-labelledby="title"><title id="title">ギャラリー・ビューア遷移図</title><defs>
  <marker id="arrowHead" viewBox="0 0 10 10" refX="9" refY="5" markerWidth="8" markerHeight="8" orient="auto-start-reverse">
    <path d="M 0 0 L 10 5 L 0 10 z" fill="#73D7E8"/>
  </marker>
</defs><style>
  svg{background:#101316;font-family:'Yu Gothic','Meiryo',system-ui,sans-serif}
  .pageTitle{fill:#F8FAFC;font-size:30px;font-weight:800}
  .pageSub{fill:#AAB2BD;font-size:14px}
  .screenCard{fill:#20242B;stroke:#4A5362;stroke-width:1.3}
  .dialogCard{fill:#2B2633;stroke:#B79CFF;stroke-width:1.5;stroke-dasharray:7 5}
  .popupCard{fill:#29323D;stroke:#D7B95F;stroke-width:1.4}
  .sheetCard{fill:#26302A;stroke:#4CAF50;stroke-width:1.4}
  .cardTitle{fill:#F8FAFC;font-size:15px;font-weight:800}
  .route{font-size:10px;font-weight:700}
  .cardText{fill:#E8EAED;font-size:12px}
  .dialogText{fill:#D5DCE5;font-size:12px}
  .arrow{fill:none;stroke:#73D7E8;stroke-width:2.2;marker-end:url(#arrowHead)}
  .arrowLabel{font-size:11px;font-weight:800}
  .txt{fill:#fff;font-size:12px}
</style><text x="56" y="60" class="pageTitle">ギャラリー・ビューア遷移図</text><text x="56" y="88" class="pageSub">一覧操作、選択モード、ビューア内ポップアップ/ダイアログの流れ</text><rect x="56" y="110" width="1488" height="1" fill="#303741"/><rect x="70" y="170" width="210" height="230" class="screenCard" rx="14"/><rect x="70" y="170" width="210" height="42" fill="#050607" rx="14"/><rect x="70" y="198" width="210" height="14" fill="#050607"/><text x="84" y="197" class="cardTitle">ホームギャラリー</text><text x="268" y="197" class="route" fill="#00BCD4" text-anchor="end">home</text><rect x="84" y="218" width="182" height="24" fill="#FFFFFF10" rx="6"/><text x="94" y="236" class="cardText">日/月/年グリッド</text><rect x="84" y="252" width="182" height="24" fill="#FFFFFF10" rx="6"/><text x="94" y="270" class="cardText">28列表示</text><rect x="84" y="286" width="182" height="24" fill="#FFFFFF10" rx="6"/><text x="94" y="304" class="cardText">スクロールバー</text><rect x="82" y="364" width="186" height="24" fill="#00000099" rx="12"/><rect x="80" y="450" width="210" height="145" class="popupCard" rx="10"/><text x="92" y="477" class="cardTitle" fill="#D7B95F">Filter/Sort Menu</text><text x="96" y="505" class="dialogText">メディア種別</text><text x="96" y="530" class="dialogText">年齢制限</text><text x="96" y="555" class="dialogText">並び替え</text><rect x="310" y="450" width="190" height="120" class="popupCard" rx="10"/><text x="322" y="477" class="cardTitle" fill="#D7B95F">年月日ラベル</text><text x="326" y="505" class="dialogText">スクロールバー左</text><text x="326" y="530" class="dialogText">ドラッグ中のみ表示</text><rect x="390" y="170" width="210" height="230" class="screenCard" rx="14"/><rect x="390" y="170" width="210" height="42" fill="#050607" rx="14"/><rect x="390" y="198" width="210" height="14" fill="#050607"/><text x="404" y="197" class="cardTitle">選択モード</text><text x="588" y="197" class="route" fill="#B79CFF" text-anchor="end">selection</text><rect x="404" y="218" width="182" height="24" fill="#FFFFFF10" rx="6"/><text x="414" y="236" class="cardText">複数選択</text><rect x="404" y="252" width="182" height="24" fill="#FFFFFF10" rx="6"/><text x="414" y="270" class="cardText">選択バー</text><rect x="404" y="286" width="182" height="24" fill="#FFFFFF10" rx="6"/><text x="414" y="304" class="cardText">その他メニュー</text><rect x="402" y="364" width="186" height="24" fill="#00000099" rx="12"/><rect x="435" y="450" width="210" height="145" class="popupCard" rx="10"/><text x="447" y="477" class="cardTitle" fill="#D7B95F">選択Menu</text><text x="451" y="505" class="dialogText">ゴミ箱へ</text><text x="451" y="530" class="dialogText">フォルダ移動</text><text x="451" y="555" class="dialogText">一括タグ編集</text><rect x="690" y="150" width="220" height="160" class="dialogCard" rx="14"/><text x="704" y="180" class="cardTitle" fill="#B79CFF">一括編集Dialog</text><text x="708" y="210" class="dialogText">mass_edit</text><text x="708" y="237" class="dialogText">UnifiedMediaEditDialog</text><text x="708" y="264" class="dialogText">タグ/年齢制限</text><rect x="690" y="390" width="210" height="230" class="screenCard" rx="14"/><rect x="690" y="390" width="210" height="42" fill="#050607" rx="14"/><rect x="690" y="418" width="210" height="14" fill="#050607"/><text x="704" y="417" class="cardTitle">フォルダ選択</text><text x="888" y="417" class="route" fill="#4CAF50" text-anchor="end">bulk_move_selection</text><rect x="704" y="438" width="182" height="24" fill="#FFFFFF10" rx="6"/><text x="714" y="456" class="cardText">移動先を選択</text><rect x="704" y="472" width="182" height="24" fill="#FFFFFF10" rx="6"/><text x="714" y="490" class="cardText">新規フォルダDialog</text><rect x="704" y="506" width="182" height="24" fill="#FFFFFF10" rx="6"/><text x="714" y="524" class="cardText">移動実行</text><rect x="702" y="584" width="186" height="24" fill="#00000099" rx="12"/><rect x="690" y="650" width="210" height="230" class="screenCard" rx="14"/><rect x="690" y="650" width="210" height="42" fill="#050607" rx="14"/><rect x="690" y="678" width="210" height="14" fill="#050607"/><text x="704" y="677" class="cardTitle">ゴミ箱</text><text x="888" y="677" class="route" fill="#F44336" text-anchor="end">trash</text><rect x="704" y="698" width="182" height="24" fill="#FFFFFF10" rx="6"/><text x="714" y="716" class="cardText">論理削除後</text><rect x="704" y="732" width="182" height="24" fill="#FFFFFF10" rx="6"/><text x="714" y="750" class="cardText">復元/完全削除</text><rect x="704" y="766" width="182" height="24" fill="#FFFFFF10" rx="6"/><text x="714" y="784" class="cardText">TrashScreen</text><rect x="702" y="844" width="186" height="24" fill="#00000099" rx="12"/><rect x="1000" y="170" width="210" height="230" class="screenCard" rx="14"/><rect x="1000" y="170" width="210" height="42" fill="#050607" rx="14"/><rect x="1000" y="198" width="210" height="14" fill="#050607"/><text x="1014" y="197" class="cardTitle">メディアビューア</text><text x="1198" y="197" class="route" fill="#00BCD4" text-anchor="end">in-screen</text><rect x="1014" y="218" width="182" height="24" fill="#FFFFFF10" rx="6"/><text x="1024" y="236" class="cardText">全画面表示</text><rect x="1014" y="252" width="182" height="24" fill="#FFFFFF10" rx="6"/><text x="1024" y="270" class="cardText">動画/GIF再生</text><rect x="1014" y="286" width="182" height="24" fill="#FFFFFF10" rx="6"/><text x="1024" y="304" class="cardText">左右スワイプ</text><rect x="1012" y="364" width="186" height="24" fill="#00000099" rx="12"/><rect x="1250" y="120" width="230" height="150" class="popupCard" rx="10"/><text x="1262" y="147" class="cardTitle" fill="#D7B95F">Viewer More</text><text x="1266" y="175" class="dialogText">ascii2d検索</text><text x="1266" y="200" class="dialogText">フレーム保存</text><text x="1266" y="225" class="dialogText">壁紙/タグ編集</text><rect x="1250" y="330" width="230" height="130" class="dialogCard" rx="14"/><text x="1264" y="360" class="cardTitle" fill="#B79CFF">タグ編集Dialog</text><text x="1268" y="390" class="dialogText">単体メディア編集</text><text x="1268" y="417" class="dialogText">タグ追加/評価更新</text><rect x="1250" y="510" width="230" height="130" class="dialogCard" rx="14"/><text x="1264" y="540" class="cardTitle" fill="#D28A5E">ascii2d Dialog</text><text x="1268" y="570" class="dialogText">Web検索表示</text><text x="1268" y="597" class="dialogText">結果を確認</text><rect x="1000" y="650" width="240" height="150" class="sheetCard" rx="16"/><rect x="1078" y="662" width="74" height="4" fill="#FFFFFF50" rx="2"/><text x="1016" y="692" class="cardTitle" fill="#4CAF50">関連メディアPanel</text><text x="1020" y="722" class="dialogText">タグ類似</text><text x="1020" y="748" class="dialogText">ベクトル類似</text><text x="1020" y="774" class="dialogText">候補から再表示</text><line x1="280" y1="285" x2="390" y2="285" class="arrow" stroke="#73D7E8"/><rect x="311.0" y="259.0" width="40" height="25" fill="#101316" stroke="#73D7E8" stroke-width="1" rx="12"/><text x="319.0" y="277.0" class="arrowLabel" fill="#73D7E8">長押し</text><line x1="180" y1="400" x2="185" y2="450" class="arrow" stroke="#73D7E8"/><rect x="158.5" y="399.0" width="48" height="25" fill="#101316" stroke="#73D7E8" stroke-width="1" rx="12"/><text x="166.5" y="417.0" class="arrowLabel" fill="#73D7E8">アイコン</text><line x1="230" y1="312" x2="1000" y2="285" class="arrow" stroke="#73D7E8"/><rect x="591.0" y="272.5" width="40" height="25" fill="#101316" stroke="#73D7E8" stroke-width="1" rx="12"/><text x="599.0" y="290.5" class="arrowLabel" fill="#73D7E8">タップ</text><line x1="495" y1="400" x2="520" y2="450" class="arrow" stroke="#73D7E8"/><rect x="483.5" y="399.0" width="40" height="25" fill="#101316" stroke="#73D7E8" stroke-width="1" rx="12"/><text x="491.5" y="417.0" class="arrowLabel" fill="#73D7E8">その他</text><line x1="645" y1="520" x2="690" y2="230" class="arrow" stroke="#73D7E8"/><rect x="643.5" y="349.0" width="32" height="25" fill="#101316" stroke="#73D7E8" stroke-width="1" rx="12"/><text x="651.5" y="367.0" class="arrowLabel" fill="#73D7E8">編集</text><line x1="645" y1="550" x2="690" y2="505" class="arrow" stroke="#73D7E8"/><rect x="643.5" y="501.5" width="32" height="25" fill="#101316" stroke="#73D7E8" stroke-width="1" rx="12"/><text x="651.5" y="519.5" class="arrowLabel" fill="#73D7E8">移動</text><line x1="645" y1="580" x2="690" y2="735" class="arrow" stroke="#73D7E8"/><rect x="643.5" y="631.5" width="32" height="25" fill="#101316" stroke="#73D7E8" stroke-width="1" rx="12"/><text x="651.5" y="649.5" class="arrowLabel" fill="#73D7E8">削除</text><line x1="1210" y1="285" x2="1250" y2="195" class="arrow" stroke="#73D7E8"/><rect x="1206.0" y="214.0" width="40" height="25" fill="#101316" stroke="#73D7E8" stroke-width="1" rx="12"/><text x="1214.0" y="232.0" class="arrowLabel" fill="#73D7E8">その他</text><line x1="1365" y1="270" x2="1365" y2="330" class="arrow" stroke="#73D7E8"/><rect x="1341.0" y="274.0" width="32" height="25" fill="#101316" stroke="#73D7E8" stroke-width="1" rx="12"/><text x="1349.0" y="292.0" class="arrowLabel" fill="#73D7E8">タグ</text><line x1="1365" y1="270" x2="1365" y2="510" class="arrow" stroke="#73D7E8"/><rect x="1341.0" y="364.0" width="32" height="25" fill="#101316" stroke="#73D7E8" stroke-width="1" rx="12"/><text x="1349.0" y="382.0" class="arrowLabel" fill="#73D7E8">検索</text><line x1="1115" y1="400" x2="1115" y2="650" class="arrow" stroke="#73D7E8"/><rect x="1091.0" y="499.0" width="32" height="25" fill="#101316" stroke="#73D7E8" stroke-width="1" rx="12"/><text x="1099.0" y="517.0" class="arrowLabel" fill="#73D7E8">関連</text><line x1="1120" y1="650" x2="1000" y2="400" class="arrow" stroke="#73D7E8"/><rect x="1036.0" y="499.0" width="56" height="25" fill="#101316" stroke="#73D7E8" stroke-width="1" rx="12"/><text x="1044.0" y="517.0" class="arrowLabel" fill="#73D7E8">候補タップ</text><rect x="1220" y="820" width="310" height="150" fill="#0B0E12" stroke="#303741" rx="12"/><text x="1238" y="850" class="cardTitle">凡例</text><rect x="1238" y="866" width="34" height="18" fill="#20242B" rx="5"/><text x="1284" y="882" class="dialogText">画面/内部画面</text><rect x="1238" y="896" width="34" height="18" fill="#2B2633" rx="5"/><text x="1284" y="912" class="dialogText">Dialog</text><rect x="1238" y="926" width="34" height="18" fill="#29323D" rx="5"/><text x="1284" y="942" class="dialogText">Dropdown/Popup</text><rect x="1238" y="956" width="34" height="18" fill="#26302A" rx="5"/><text x="1284" y="972" class="dialogText">Panel/Sheet</text></svg>
