<svg xmlns="http://www.w3.org/2000/svg" width="1600" height="1050" viewBox="0 0 1600 1050" role="img" aria-labelledby="title"><title id="title">整理・AI分析遷移図</title><defs>
  <marker id="arrowHead" viewBox="0 0 10 10" refX="9" refY="5" markerWidth="8" markerHeight="8" orient="auto-start-reverse">
    <path d="M 0 0 L 10 5 L 0 10 z" fill="#73D7E8"/>
  </marker>
</defs><style>
  svg{background:#101316;font-family:'Yu Gothic','Meiryo',system-ui,sans-serif}
  .pageTitle{fill:#F8FAFC;font-size:30px;font-weight:800}
  .pageSub{fill:#AAB2BD;font-size:14px}
  .screenCard{fill:#20242B;stroke:#4A5362;stroke-width:1.3}
  .dialogCard{fill:#2B2633;stroke:#B79CFF;stroke-width:1.5;stroke-dasharray:7 5}
  .popupCard{fill:#29323D;stroke:#D7B95F;stroke-width:1.4}
  .sheetCard{fill:#26302A;stroke:#4CAF50;stroke-width:1.4}
  .cardTitle{fill:#F8FAFC;font-size:15px;font-weight:800}
  .route{font-size:10px;font-weight:700}
  .cardText{fill:#E8EAED;font-size:12px}
  .dialogText{fill:#D5DCE5;font-size:12px}
  .arrow{fill:none;stroke:#73D7E8;stroke-width:2.2;marker-end:url(#arrowHead)}
  .arrowLabel{font-size:11px;font-weight:800}
  .txt{fill:#fff;font-size:12px}
</style><text x="56" y="60" class="pageTitle">整理・AI分析遷移図</text><text x="56" y="88" class="pageSub">My List、分析、フォルダ管理、ゴミ箱のダイアログを含む流れ</text><rect x="56" y="110" width="1488" height="1" fill="#303741"/><rect x="70" y="170" width="210" height="230" class="screenCard" rx="14"/><rect x="70" y="170" width="210" height="42" fill="#050607" rx="14"/><rect x="70" y="198" width="210" height="14" fill="#050607"/><text x="84" y="197" class="cardTitle">My List</text><text x="268" y="197" class="route" fill="#00BCD4" text-anchor="end">mylist</text><rect x="84" y="218" width="182" height="24" fill="#FFFFFF10" rx="6"/><text x="94" y="236" class="cardText">整理カテゴリ</text><rect x="84" y="252" width="182" height="24" fill="#FFFFFF10" rx="6"/><text x="94" y="270" class="cardText">タグカテゴリ</text><rect x="84" y="286" width="182" height="24" fill="#FFFFFF10" rx="6"/><text x="94" y="304" class="cardText">AI分析ボタン</text><rect x="82" y="364" width="186" height="24" fill="#00000099" rx="12"/><rect x="360" y="140" width="210" height="230" class="screenCard" rx="14"/><rect x="360" y="140" width="210" height="42" fill="#050607" rx="14"/><rect x="360" y="168" width="210" height="14" fill="#050607"/><text x="374" y="167" class="cardTitle">カテゴリ一覧</text><text x="558" y="167" class="route" fill="#00BCD4" text-anchor="end">mylist/{tag}</text><rect x="374" y="188" width="182" height="24" fill="#FFFFFF10" rx="6"/><text x="384" y="206" class="cardText">条件付きグリッド</text><rect x="374" y="222" width="182" height="24" fill="#FFFFFF10" rx="6"/><text x="384" y="240" class="cardText">タップでビューア</text><rect x="374" y="256" width="182" height="24" fill="#FFFFFF10" rx="6"/><text x="384" y="274" class="cardText">選択操作</text><rect x="372" y="334" width="186" height="24" fill="#00000099" rx="12"/><rect x="360" y="430" width="230" height="150" class="dialogCard" rx="14"/><text x="374" y="460" class="cardTitle" fill="#B79CFF">AI分析Dialog</text><text x="378" y="490" class="dialogText">分析種別</text><text x="378" y="517" class="dialogText">期間選択</text><text x="378" y="544" class="dialogText">開始/キャンセル</text><rect x="640" y="430" width="220" height="130" class="dialogCard" rx="14"/><text x="654" y="460" class="cardTitle" fill="#D28A5E">DatePickerDialog</text><text x="658" y="490" class="dialogText">開始日/終了日</text><text x="658" y="517" class="dialogText">期間を確定</text><rect x="910" y="390" width="210" height="230" class="screenCard" rx="14"/><rect x="910" y="390" width="210" height="42" fill="#050607" rx="14"/><rect x="910" y="418" width="210" height="14" fill="#050607"/><text x="924" y="417" class="cardTitle">分析進捗</text><text x="1108" y="417" class="route" fill="#4CAF50" text-anchor="end">analysis/{type}/{days}</text><rect x="924" y="438" width="182" height="24" fill="#FFFFFF10" rx="6"/><text x="934" y="456" class="cardText">ForegroundService</text><rect x="924" y="472" width="182" height="24" fill="#FFFFFF10" rx="6"/><text x="934" y="490" class="cardText">進捗/キャンセル</text><rect x="924" y="506" width="182" height="24" fill="#FFFFFF10" rx="6"/><text x="934" y="524" class="cardText">完了でMy List</text><rect x="922" y="584" width="186" height="24" fill="#00000099" rx="12"/><rect x="70" y="610" width="210" height="230" class="screenCard" rx="14"/><rect x="70" y="610" width="210" height="42" fill="#050607" rx="14"/><rect x="70" y="638" width="210" height="14" fill="#050607"/><text x="84" y="637" class="cardTitle">フォルダ</text><text x="268" y="637" class="route" fill="#00BCD4" text-anchor="end">folders</text><rect x="84" y="658" width="182" height="24" fill="#FFFFFF10" rx="6"/><text x="94" y="676" class="cardText">フォルダ一覧</text><rect x="84" y="692" width="182" height="24" fill="#FFFFFF10" rx="6"/><text x="94" y="710" class="cardText">フォルダ内表示</text><rect x="84" y="726" width="182" height="24" fill="#FFFFFF10" rx="6"/><text x="94" y="744" class="cardText">分析開始</text><rect x="82" y="804" width="186" height="24" fill="#00000099" rx="12"/><rect x="360" y="650" width="230" height="150" class="dialogCard" rx="14"/><text x="374" y="680" class="cardTitle" fill="#B79CFF">フォルダ作成Dialog</text><text x="378" y="710" class="dialogText">DCIM直下</text><text x="378" y="737" class="dialogText">フォルダ名入力</text><text x="378" y="764" class="dialogText">作成/キャンセル</text><rect x="640" y="650" width="220" height="130" class="dialogCard" rx="14"/><text x="654" y="680" class="cardTitle" fill="#B79CFF">フォルダMenu</text><text x="658" y="710" class="dialogText">順序/サムネイル</text><text x="658" y="737" class="dialogText">フォルダ情報</text><text x="658" y="764" class="dialogText">閉じる</text><rect x="910" y="650" width="210" height="230" class="screenCard" rx="14"/><rect x="910" y="650" width="210" height="42" fill="#050607" rx="14"/><rect x="910" y="678" width="210" height="14" fill="#050607"/><text x="924" y="677" class="cardTitle">FolderPicker</text><text x="1108" y="677" class="route" fill="#4CAF50" text-anchor="end">folders_select</text><rect x="924" y="698" width="182" height="24" fill="#FFFFFF10" rx="6"/><text x="934" y="716" class="cardText">移動先選択</text><rect x="924" y="732" width="182" height="24" fill="#FFFFFF10" rx="6"/><text x="934" y="750" class="cardText">新規作成</text><rect x="924" y="766" width="182" height="24" fill="#FFFFFF10" rx="6"/><text x="934" y="784" class="cardText">戻る</text><rect x="922" y="844" width="186" height="24" fill="#00000099" rx="12"/><rect x="1210" y="390" width="210" height="230" class="screenCard" rx="14"/><rect x="1210" y="390" width="210" height="42" fill="#050607" rx="14"/><rect x="1210" y="418" width="210" height="14" fill="#050607"/><text x="1224" y="417" class="cardTitle">ゴミ箱</text><text x="1408" y="417" class="route" fill="#F44336" text-anchor="end">trash</text><rect x="1224" y="438" width="182" height="24" fill="#FFFFFF10" rx="6"/><text x="1234" y="456" class="cardText">削除済み一覧</text><rect x="1224" y="472" width="182" height="24" fill="#FFFFFF10" rx="6"/><text x="1234" y="490" class="cardText">復元</text><rect x="1224" y="506" width="182" height="24" fill="#FFFFFF10" rx="6"/><text x="1234" y="524" class="cardText">完全削除</text><rect x="1222" y="584" width="186" height="24" fill="#00000099" rx="12"/><rect x="1210" y="650" width="210" height="230" class="screenCard" rx="14"/><rect x="1210" y="650" width="210" height="42" fill="#050607" rx="14"/><rect x="1210" y="678" width="210" height="14" fill="#050607"/><text x="1224" y="677" class="cardTitle">MediaViewer</text><text x="1408" y="677" class="route" fill="#F44336" text-anchor="end">trash viewer</text><rect x="1224" y="698" width="182" height="24" fill="#FFFFFF10" rx="6"/><text x="1234" y="716" class="cardText">削除済み表示</text><rect x="1224" y="732" width="182" height="24" fill="#FFFFFF10" rx="6"/><text x="1234" y="750" class="cardText">復元導線</text><rect x="1224" y="766" width="182" height="24" fill="#FFFFFF10" rx="6"/><text x="1234" y="784" class="cardText">閲覧のみ</text><rect x="1222" y="844" width="186" height="24" fill="#00000099" rx="12"/><line x1="280" y1="250" x2="360" y2="250" class="arrow" stroke="#73D7E8"/><rect x="296.0" y="224.0" width="48" height="25" fill="#101316" stroke="#73D7E8" stroke-width="1" rx="12"/><text x="304.0" y="242.0" class="arrowLabel" fill="#73D7E8">カテゴリ</text><line x1="180" y1="400" x2="360" y2="500" class="arrow" stroke="#73D7E8"/><rect x="246.0" y="424.0" width="32" height="25" fill="#101316" stroke="#73D7E8" stroke-width="1" rx="12"/><text x="254.0" y="442.0" class="arrowLabel" fill="#73D7E8">AI</text><line x1="590" y1="500" x2="640" y2="500" class="arrow" stroke="#73D7E8"/><rect x="591.0" y="474.0" width="48" height="25" fill="#101316" stroke="#73D7E8" stroke-width="1" rx="12"/><text x="599.0" y="492.0" class="arrowLabel" fill="#73D7E8">任意期間</text><line x1="590" y1="505" x2="910" y2="505" class="arrow" stroke="#73D7E8"/><rect x="726.0" y="479.0" width="32" height="25" fill="#101316" stroke="#73D7E8" stroke-width="1" rx="12"/><text x="734.0" y="497.0" class="arrowLabel" fill="#73D7E8">開始</text><path d="M1020 390 Q600.0 210 180 240" class="arrow" stroke="#4CAF50"/><rect x="576.0" y="289.0" width="56" height="25" fill="#101316" stroke="#4CAF50" stroke-width="1" rx="12"/><text x="584.0" y="307.0" class="arrowLabel" fill="#4CAF50">完了/中断</text><line x1="280" y1="690" x2="360" y2="720" class="arrow" stroke="#73D7E8"/><rect x="296.0" y="679.0" width="32" height="25" fill="#101316" stroke="#73D7E8" stroke-width="1" rx="12"/><text x="304.0" y="697.0" class="arrowLabel" fill="#73D7E8">追加</text><line x1="280" y1="740" x2="640" y2="715" class="arrow" stroke="#73D7E8"/><rect x="436.0" y="701.5" width="40" height="25" fill="#101316" stroke="#73D7E8" stroke-width="1" rx="12"/><text x="444.0" y="719.5" class="arrowLabel" fill="#73D7E8">長押し</text><line x1="505" y1="290" x2="910" y2="715" class="arrow" stroke="#73D7E8"/><rect x="683.5" y="476.5" width="64" height="25" fill="#101316" stroke="#73D7E8" stroke-width="1" rx="12"/><text x="691.5" y="494.5" class="arrowLabel" fill="#73D7E8">フォルダ移動</text><line x1="1120" y1="735" x2="1210" y2="470" class="arrow" stroke="#73D7E8"/><rect x="1141.0" y="576.5" width="32" height="25" fill="#101316" stroke="#73D7E8" stroke-width="1" rx="12"/><text x="1149.0" y="594.5" class="arrowLabel" fill="#73D7E8">削除</text><line x1="1320" y1="620" x2="1320" y2="650" class="arrow" stroke="#73D7E8"/><rect x="1296.0" y="609.0" width="40" height="25" fill="#101316" stroke="#73D7E8" stroke-width="1" rx="12"/><text x="1304.0" y="627.0" class="arrowLabel" fill="#73D7E8">タップ</text><path d="M1210 520 Q785.0 670 360 250" class="arrow" stroke="#4CAF50"/><rect x="761.0" y="359.0" width="56" height="25" fill="#101316" stroke="#4CAF50" stroke-width="1" rx="12"/><text x="769.0" y="377.0" class="arrowLabel" fill="#4CAF50">復元後戻る</text><rect x="1220" y="820" width="310" height="150" fill="#0B0E12" stroke="#303741" rx="12"/><text x="1238" y="850" class="cardTitle">凡例</text><rect x="1238" y="866" width="34" height="18" fill="#20242B" rx="5"/><text x="1284" y="882" class="dialogText">画面</text><rect x="1238" y="896" width="34" height="18" fill="#2B2633" rx="5"/><text x="1284" y="912" class="dialogText">Dialog</text><rect x="1238" y="926" width="34" height="18" fill="#4CAF50" rx="5"/><text x="1284" y="942" class="dialogText">完了/復帰</text><rect x="1238" y="956" width="34" height="18" fill="#F44336" rx="5"/><text x="1284" y="972" class="dialogText">削除系</text></svg>
