<svg xmlns="http://www.w3.org/2000/svg" width="1600" height="1050" viewBox="0 0 1600 1050" role="img" aria-labelledby="title"><title id="title">外部連携・漫画・制作補助遷移図</title><defs>
  <marker id="arrowHead" viewBox="0 0 10 10" refX="9" refY="5" markerWidth="8" markerHeight="8" orient="auto-start-reverse">
    <path d="M 0 0 L 10 5 L 0 10 z" fill="#73D7E8"/>
  </marker>
</defs><style>
  svg{background:#101316;font-family:'Yu Gothic','Meiryo',system-ui,sans-serif}
  .pageTitle{fill:#F8FAFC;font-size:30px;font-weight:800}
  .pageSub{fill:#AAB2BD;font-size:14px}
  .screenCard{fill:#20242B;stroke:#4A5362;stroke-width:1.3}
  .dialogCard{fill:#2B2633;stroke:#B79CFF;stroke-width:1.5;stroke-dasharray:7 5}
  .popupCard{fill:#29323D;stroke:#D7B95F;stroke-width:1.4}
  .sheetCard{fill:#26302A;stroke:#4CAF50;stroke-width:1.4}
  .cardTitle{fill:#F8FAFC;font-size:15px;font-weight:800}
  .route{font-size:10px;font-weight:700}
  .cardText{fill:#E8EAED;font-size:12px}
  .dialogText{fill:#D5DCE5;font-size:12px}
  .arrow{fill:none;stroke:#73D7E8;stroke-width:2.2;marker-end:url(#arrowHead)}
  .arrowLabel{font-size:11px;font-weight:800}
  .txt{fill:#fff;font-size:12px}
</style><text x="56" y="60" class="pageTitle">外部連携・漫画・制作補助遷移図</text><text x="56" y="88" class="pageSub">X保存、漫画ビューア、お絵描き資料、作家/サイト管理の流れ</text><rect x="56" y="110" width="1488" height="1" fill="#303741"/><rect x="70" y="150" width="210" height="230" class="screenCard" rx="14"/><rect x="70" y="150" width="210" height="42" fill="#050607" rx="14"/><rect x="70" y="178" width="210" height="14" fill="#050607"/><text x="84" y="177" class="cardTitle">X共有/URL</text><text x="268" y="177" class="route" fill="#D28A5E" text-anchor="end">intent/clipboard</text><rect x="84" y="198" width="182" height="24" fill="#FFFFFF10" rx="6"/><text x="94" y="216" class="cardText">共有URL</text><rect x="84" y="232" width="182" height="24" fill="#FFFFFF10" rx="6"/><text x="94" y="250" class="cardText">VIEW URL</text><rect x="84" y="266" width="182" height="24" fill="#FFFFFF10" rx="6"/><text x="94" y="284" class="cardText">クリップボード</text><rect x="82" y="344" width="186" height="24" fill="#00000099" rx="12"/><rect x="340" y="150" width="210" height="230" class="screenCard" rx="14"/><rect x="340" y="150" width="210" height="42" fill="#050607" rx="14"/><rect x="340" y="178" width="210" height="14" fill="#050607"/><text x="354" y="177" class="cardTitle">動画DL</text><text x="538" y="177" class="route" fill="#D28A5E" text-anchor="end">video_downloader</text><rect x="354" y="198" width="182" height="24" fill="#FFFFFF10" rx="6"/><text x="364" y="216" class="cardText">URL入力</text><rect x="354" y="232" width="182" height="24" fill="#FFFFFF10" rx="6"/><text x="364" y="250" class="cardText">候補解決</text><rect x="354" y="266" width="182" height="24" fill="#FFFFFF10" rx="6"/><text x="364" y="284" class="cardText">履歴</text><rect x="352" y="344" width="186" height="24" fill="#00000099" rx="12"/><rect x="610" y="140" width="230" height="150" class="dialogCard" rx="14"/><text x="624" y="170" class="cardTitle" fill="#D28A5E">Download settings</text><text x="628" y="200" class="dialogText">品質選択</text><text x="628" y="227" class="dialogText">GIF保存</text><text x="628" y="254" class="dialogText">HOME/Cancel</text><rect x="900" y="150" width="210" height="230" class="screenCard" rx="14"/><rect x="900" y="150" width="210" height="42" fill="#050607" rx="14"/><rect x="900" y="178" width="210" height="14" fill="#050607"/><text x="914" y="177" class="cardTitle">保存履歴</text><text x="1098" y="177" class="route" fill="#00BCD4" text-anchor="end">history</text><rect x="914" y="198" width="182" height="24" fill="#FFFFFF10" rx="6"/><text x="924" y="216" class="cardText">保存済みカード</text><rect x="914" y="232" width="182" height="24" fill="#FFFFFF10" rx="6"/><text x="924" y="250" class="cardText">状態表示</text><rect x="914" y="266" width="182" height="24" fill="#FFFFFF10" rx="6"/><text x="924" y="284" class="cardText">プレビュー</text><rect x="912" y="344" width="186" height="24" fill="#00000099" rx="12"/><rect x="1180" y="150" width="210" height="230" class="screenCard" rx="14"/><rect x="1180" y="150" width="210" height="42" fill="#050607" rx="14"/><rect x="1180" y="178" width="210" height="14" fill="#050607"/><text x="1194" y="177" class="cardTitle">MediaViewer</text><text x="1378" y="177" class="route" fill="#00BCD4" text-anchor="end">preview</text><rect x="1194" y="198" width="182" height="24" fill="#FFFFFF10" rx="6"/><text x="1204" y="216" class="cardText">保存済み再生</text><rect x="1194" y="232" width="182" height="24" fill="#FFFFFF10" rx="6"/><text x="1204" y="250" class="cardText">閉じる</text><rect x="1194" y="266" width="182" height="24" fill="#FFFFFF10" rx="6"/><text x="1204" y="284" class="cardText">ホームへ戻る</text><rect x="1192" y="344" width="186" height="24" fill="#00000099" rx="12"/><rect x="70" y="430" width="210" height="230" class="screenCard" rx="14"/><rect x="70" y="430" width="210" height="42" fill="#050607" rx="14"/><rect x="70" y="458" width="210" height="14" fill="#050607"/><text x="84" y="457" class="cardTitle">漫画一覧</text><text x="268" y="457" class="route" fill="#00BCD4" text-anchor="end">books</text><rect x="84" y="478" width="182" height="24" fill="#FFFFFF10" rx="6"/><text x="94" y="496" class="cardText">ZIP/PDFスキャン</text><rect x="84" y="512" width="182" height="24" fill="#FFFFFF10" rx="6"/><text x="94" y="530" class="cardText">作品カード</text><rect x="84" y="546" width="182" height="24" fill="#FFFFFF10" rx="6"/><text x="94" y="564" class="cardText">しおり導線</text><rect x="82" y="624" width="186" height="24" fill="#00000099" rx="12"/><rect x="340" y="430" width="210" height="230" class="screenCard" rx="14"/><rect x="340" y="430" width="210" height="42" fill="#050607" rx="14"/><rect x="340" y="458" width="210" height="14" fill="#050607"/><text x="354" y="457" class="cardTitle">漫画ビューア</text><text x="538" y="457" class="route" fill="#00BCD4" text-anchor="end">BookViewer</text><rect x="354" y="478" width="182" height="24" fill="#FFFFFF10" rx="6"/><text x="364" y="496" class="cardText">ページ表示</text><rect x="354" y="512" width="182" height="24" fill="#FFFFFF10" rx="6"/><text x="364" y="530" class="cardText">しおり</text><rect x="354" y="546" width="182" height="24" fill="#FFFFFF10" rx="6"/><text x="364" y="564" class="cardText">ページシーク</text><rect x="352" y="624" width="186" height="24" fill="#00000099" rx="12"/><rect x="610" y="430" width="220" height="145" class="popupCard" rx="10"/><text x="622" y="457" class="cardTitle" fill="#D7B95F">Book More</text><text x="626" y="485" class="dialogText">タイトル検索</text><text x="626" y="510" class="dialogText">表示設定</text><text x="626" y="535" class="dialogText">スクショ/回転</text><rect x="890" y="430" width="230" height="150" class="sheetCard" rx="16"/><rect x="968" y="442" width="74" height="4" fill="#FFFFFF50" rx="2"/><text x="906" y="472" class="cardTitle" fill="#4CAF50">表示設定Sheet</text><text x="910" y="502" class="dialogText">単/見開き</text><text x="910" y="528" class="dialogText">読む方向</text><text x="910" y="554" class="dialogText">先読み</text><rect x="1180" y="430" width="210" height="230" class="screenCard" rx="14"/><rect x="1180" y="430" width="210" height="42" fill="#050607" rx="14"/><rect x="1180" y="458" width="210" height="14" fill="#050607"/><text x="1194" y="457" class="cardTitle">しおり一覧</text><text x="1378" y="457" class="route" fill="#00BCD4" text-anchor="end">book_bookmarks</text><rect x="1194" y="478" width="182" height="24" fill="#FFFFFF10" rx="6"/><text x="1204" y="496" class="cardText">しおりカード</text><rect x="1194" y="512" width="182" height="24" fill="#FFFFFF10" rx="6"/><text x="1204" y="530" class="cardText">本へジャンプ</text><rect x="1194" y="546" width="182" height="24" fill="#FFFFFF10" rx="6"/><text x="1204" y="564" class="cardText">解除</text><rect x="1192" y="624" width="186" height="24" fill="#00000099" rx="12"/><rect x="70" y="710" width="210" height="230" class="screenCard" rx="14"/><rect x="70" y="710" width="210" height="42" fill="#050607" rx="14"/><rect x="70" y="738" width="210" height="14" fill="#050607"/><text x="84" y="737" class="cardTitle">資料プロジェクト</text><text x="268" y="737" class="route" fill="#B79CFF" text-anchor="end">references</text><rect x="84" y="758" width="182" height="24" fill="#FFFFFF10" rx="6"/><text x="94" y="776" class="cardText">一覧</text><rect x="84" y="792" width="182" height="24" fill="#FFFFFF10" rx="6"/><text x="94" y="810" class="cardText">新規作成</text><rect x="84" y="826" width="182" height="24" fill="#FFFFFF10" rx="6"/><text x="94" y="844" class="cardText">進行/完了</text><rect x="82" y="904" width="186" height="24" fill="#00000099" rx="12"/><rect x="70" y="910" width="230" height="115" class="dialogCard" rx="14"/><text x="84" y="940" class="cardTitle" fill="#B79CFF">新規Project Dialog</text><text x="88" y="970" class="dialogText">プロジェクト名</text><text x="88" y="997" class="dialogText">作成/キャンセル</text><rect x="340" y="710" width="210" height="230" class="screenCard" rx="14"/><rect x="340" y="710" width="210" height="42" fill="#050607" rx="14"/><rect x="340" y="738" width="210" height="14" fill="#050607"/><text x="354" y="737" class="cardTitle">資料詳細</text><text x="538" y="737" class="route" fill="#B79CFF" text-anchor="end">reference_detail</text><rect x="354" y="758" width="182" height="24" fill="#FFFFFF10" rx="6"/><text x="364" y="776" class="cardText">資料カード</text><rect x="354" y="792" width="182" height="24" fill="#FFFFFF10" rx="6"/><text x="364" y="810" class="cardText">追加</text><rect x="354" y="826" width="182" height="24" fill="#FFFFFF10" rx="6"/><text x="364" y="844" class="cardText">完了切替</text><rect x="352" y="904" width="186" height="24" fill="#00000099" rx="12"/><rect x="610" y="710" width="230" height="130" class="dialogCard" rx="14"/><text x="624" y="740" class="cardTitle" fill="#B79CFF">完了確認Dialog</text><text x="628" y="770" class="dialogText">完了にする</text><text x="628" y="797" class="dialogText">URL参照へ整理</text><rect x="890" y="710" width="210" height="230" class="screenCard" rx="14"/><rect x="890" y="710" width="210" height="42" fill="#050607" rx="14"/><rect x="890" y="738" width="210" height="14" fill="#050607"/><text x="904" y="737" class="cardTitle">資料検索</text><text x="1088" y="737" class="route" fill="#B79CFF" text-anchor="end">reference_search</text><rect x="904" y="758" width="182" height="24" fill="#FFFFFF10" rx="6"/><text x="914" y="776" class="cardText">WebView検索</text><rect x="904" y="792" width="182" height="24" fill="#FFFFFF10" rx="6"/><text x="914" y="810" class="cardText">画像追加</text><rect x="904" y="826" width="182" height="24" fill="#FFFFFF10" rx="6"/><text x="914" y="844" class="cardText">スクショ保存</text><rect x="902" y="904" width="186" height="24" fill="#00000099" rx="12"/><rect x="1180" y="710" width="250" height="150" class="dialogCard" rx="14"/><text x="1194" y="740" class="cardTitle" fill="#D28A5E">作家/サイトDialog</text><text x="1198" y="770" class="dialogText">検索WebView</text><text x="1198" y="797" class="dialogText">削除確認</text><text x="1198" y="824" class="dialogText">Import/Export</text><line x1="280" y1="260" x2="340" y2="260" class="arrow" stroke="#73D7E8"/><rect x="286.0" y="234.0" width="40" height="25" fill="#101316" stroke="#73D7E8" stroke-width="1" rx="12"/><text x="294.0" y="252.0" class="arrowLabel" fill="#73D7E8">URL</text><line x1="550" y1="260" x2="610" y2="215" class="arrow" stroke="#73D7E8"/><rect x="556.0" y="211.5" width="32" height="25" fill="#101316" stroke="#73D7E8" stroke-width="1" rx="12"/><text x="564.0" y="229.5" class="arrowLabel" fill="#73D7E8">候補</text><line x1="840" y1="215" x2="900" y2="260" class="arrow" stroke="#73D7E8"/><rect x="846.0" y="211.5" width="32" height="25" fill="#101316" stroke="#73D7E8" stroke-width="1" rx="12"/><text x="854.0" y="229.5" class="arrowLabel" fill="#73D7E8">保存</text><line x1="1110" y1="260" x2="1180" y2="260" class="arrow" stroke="#73D7E8"/><rect x="1121.0" y="234.0" width="56" height="25" fill="#101316" stroke="#73D7E8" stroke-width="1" rx="12"/><text x="1129.0" y="252.0" class="arrowLabel" fill="#73D7E8">履歴タップ</text><path d="M1390 360 Q920.0 510 450 270" class="arrow" stroke="#73D7E8"/><rect x="896.0" y="289.0" width="80" height="25" fill="#101316" stroke="#73D7E8" stroke-width="1" rx="12"/><text x="904.0" y="307.0" class="arrowLabel" fill="#73D7E8">閉じる/HOME</text><line x1="280" y1="540" x2="340" y2="540" class="arrow" stroke="#73D7E8"/><rect x="286.0" y="514.0" width="56" height="25" fill="#101316" stroke="#73D7E8" stroke-width="1" rx="12"/><text x="294.0" y="532.0" class="arrowLabel" fill="#73D7E8">作品タップ</text><line x1="550" y1="540" x2="610" y2="500" class="arrow" stroke="#73D7E8"/><rect x="556.0" y="494.0" width="40" height="25" fill="#101316" stroke="#73D7E8" stroke-width="1" rx="12"/><text x="564.0" y="512.0" class="arrowLabel" fill="#73D7E8">その他</text><line x1="830" y1="500" x2="890" y2="505" class="arrow" stroke="#73D7E8"/><rect x="836.0" y="476.5" width="32" height="25" fill="#101316" stroke="#73D7E8" stroke-width="1" rx="12"/><text x="844.0" y="494.5" class="arrowLabel" fill="#73D7E8">設定</text><line x1="450" y1="430" x2="1180" y2="540" class="arrow" stroke="#73D7E8"/><rect x="791.0" y="459.0" width="40" height="25" fill="#101316" stroke="#73D7E8" stroke-width="1" rx="12"/><text x="799.0" y="477.0" class="arrowLabel" fill="#73D7E8">しおり</text><path d="M1290 430 Q815.0 290 340 540" class="arrow" stroke="#73D7E8"/><rect x="791.0" y="459.0" width="48" height="25" fill="#101316" stroke="#73D7E8" stroke-width="1" rx="12"/><text x="799.0" y="477.0" class="arrowLabel" fill="#73D7E8">ジャンプ</text><line x1="280" y1="820" x2="340" y2="820" class="arrow" stroke="#73D7E8"/><rect x="286.0" y="794.0" width="64" height="25" fill="#101316" stroke="#73D7E8" stroke-width="1" rx="12"/><text x="294.0" y="812.0" class="arrowLabel" fill="#73D7E8">プロジェクト</text><line x1="180" y1="900" x2="180" y2="910" class="arrow" stroke="#73D7E8"/><rect x="156.0" y="879.0" width="32" height="25" fill="#101316" stroke="#73D7E8" stroke-width="1" rx="12"/><text x="164.0" y="897.0" class="arrowLabel" fill="#73D7E8">追加</text><line x1="550" y1="820" x2="610" y2="770" class="arrow" stroke="#73D7E8"/><rect x="556.0" y="769.0" width="32" height="25" fill="#101316" stroke="#73D7E8" stroke-width="1" rx="12"/><text x="564.0" y="787.0" class="arrowLabel" fill="#73D7E8">完了</text><line x1="550" y1="860" x2="890" y2="820" class="arrow" stroke="#73D7E8"/><rect x="696.0" y="814.0" width="48" height="25" fill="#101316" stroke="#73D7E8" stroke-width="1" rx="12"/><text x="704.0" y="832.0" class="arrowLabel" fill="#73D7E8">資料追加</text><line x1="1110" y1="820" x2="1180" y2="785" class="arrow" stroke="#73D7E8"/><rect x="1121.0" y="776.5" width="72" height="25" fill="#101316" stroke="#73D7E8" stroke-width="1" rx="12"/><text x="1129.0" y="794.5" class="arrowLabel" fill="#73D7E8">外部/検索補助</text><rect x="1220" y="820" width="310" height="150" fill="#0B0E12" stroke="#303741" rx="12"/><text x="1238" y="850" class="cardTitle">凡例</text><rect x="1238" y="866" width="34" height="18" fill="#20242B" rx="5"/><text x="1284" y="882" class="dialogText">画面</text><rect x="1238" y="896" width="34" height="18" fill="#2B2633" rx="5"/><text x="1284" y="912" class="dialogText">Dialog</text><rect x="1238" y="926" width="34" height="18" fill="#29323D" rx="5"/><text x="1284" y="942" class="dialogText">Dropdown</text><rect x="1238" y="956" width="34" height="18" fill="#26302A" rx="5"/><text x="1284" y="972" class="dialogText">BottomSheet</text></svg>
